<svg width="25" height="25" viewBox="0 0 25 25" fill="none" xmlns="http://www.w3.org/2000/svg">
<g id="mingcute:background-fill">
<g id="Group">
<path id="Vector" d="M22.0095 4.17923C22.1447 4.33365 22.2481 4.51319 22.3139 4.7076C22.3797 4.90201 22.4065 5.10747 22.3929 5.31226C22.3792 5.51704 22.3254 5.71713 22.2344 5.9011C22.1434 6.08506 22.0171 6.2493 21.8626 6.38443L5.19595 20.9678C4.88404 21.2407 4.47648 21.3786 4.06292 21.351C3.64937 21.3235 3.26369 21.1328 2.99074 20.8209C2.71779 20.509 2.57992 20.1014 2.60746 19.6879C2.63501 19.2743 2.82571 18.8886 3.13761 18.6157L19.8043 4.03235C19.9587 3.89717 20.1382 3.79373 20.3327 3.72794C20.5271 3.66216 20.7325 3.63532 20.9373 3.64896C21.1421 3.6626 21.3422 3.71645 21.5261 3.80743C21.7101 3.89842 21.8744 4.02475 22.0095 4.17923ZM22.0095 10.8199C22.1447 10.9743 22.2481 11.1538 22.3139 11.3482C22.3797 11.5426 22.4065 11.7481 22.3929 11.9529C22.3792 12.1577 22.3254 12.3578 22.2344 12.5417C22.1434 12.7257 22.0171 12.8899 21.8626 13.0251L12.7845 20.9678C12.4719 21.2359 12.0662 21.3699 11.6554 21.3405C11.2446 21.311 10.862 21.1206 10.5909 20.8107C10.3198 20.5007 10.182 20.0962 10.2075 19.6851C10.233 19.2741 10.4198 18.8898 10.7272 18.6157L19.8043 10.673C19.9587 10.5378 20.1382 10.4344 20.3327 10.3686C20.5271 10.3028 20.7325 10.2759 20.9373 10.2896C21.1421 10.3032 21.3422 10.3571 21.5261 10.4481C21.7101 10.539 21.8744 10.6654 22.0095 10.8199ZM22.0095 16.9396C22.2644 17.2306 22.4023 17.6058 22.3965 17.9925C22.3907 18.3793 22.2417 18.7502 21.9782 19.0334L21.8626 19.1449L19.7793 20.9678C19.478 21.2325 19.0864 21.3712 18.6856 21.3552C18.2848 21.3391 17.9056 21.1696 17.6264 20.8817C17.3471 20.5938 17.1893 20.2095 17.1856 19.8084C17.1819 19.4073 17.3325 19.0202 17.6064 18.7271L17.7209 18.6157L19.8043 16.7928C19.9587 16.6576 20.1382 16.5541 20.3327 16.4884C20.5271 16.4226 20.7325 16.3957 20.9373 16.4094C21.1421 16.423 21.3422 16.4769 21.5261 16.5679C21.7101 16.6588 21.8744 16.7852 22.0095 16.9396ZM14.4199 4.17923C14.5552 4.33358 14.6587 4.51307 14.7245 4.70745C14.7904 4.90182 14.8173 5.10726 14.8038 5.31204C14.7903 5.51682 14.7365 5.71693 14.6456 5.90093C14.5547 6.08493 14.4285 6.24923 14.2741 6.38443L5.19595 14.3271C4.88404 14.6001 4.47648 14.738 4.06292 14.7104C3.64937 14.6829 3.26369 14.4922 2.99074 14.1803C2.71779 13.8684 2.57992 13.4608 2.60746 13.0472C2.63501 12.6337 2.82571 12.248 3.13761 11.9751L12.2157 4.03235C12.5276 3.75965 12.9349 3.62194 13.3482 3.64948C13.7615 3.67702 14.147 3.86757 14.4199 4.17923ZM7.87199 4.17923C8.12686 4.47019 8.26476 4.84535 8.25898 5.23211C8.25321 5.61888 8.10418 5.98975 7.84074 6.27298L7.72615 6.38443L5.1949 8.59798C4.89325 8.86046 4.50243 8.9973 4.10293 8.98033C3.70342 8.96336 3.32562 8.79387 3.04731 8.50675C2.76899 8.21963 2.61135 7.83673 2.60684 7.43689C2.60232 7.03704 2.75127 6.65069 3.02303 6.35735L3.13761 6.24589L5.66782 4.03235C5.97964 3.75965 6.38699 3.62194 6.80031 3.64948C7.21363 3.67702 7.59911 3.86757 7.87199 4.17923Z" fill="#D7E3FF"/>
</g>
</g>
</svg>
