<svg width="24" height="24" viewBox="0 0 24 24" fill="none" xmlns="http://www.w3.org/2000/svg">
<path id="Star 5" d="M10.7286 1.62475C11.1148 0.0963769 13.2863 0.0963807 13.6725 1.62476L14.5234 4.99205C14.7552 5.90942 15.7605 6.39357 16.6223 6.00284L19.7855 4.5686C21.2212 3.91762 22.5751 5.61539 21.621 6.87026L19.5188 9.63498C18.9461 10.3882 19.1944 11.4761 20.0372 11.9062L23.1308 13.485C24.5349 14.2016 24.0517 16.3187 22.4757 16.3551L19.0035 16.4354C18.0575 16.4573 17.3618 17.3297 17.551 18.2568L18.2454 21.6598C18.5605 23.2044 16.6041 24.1466 15.593 22.9371L13.3653 20.2725C12.7585 19.5465 11.6426 19.5465 11.0357 20.2725L8.80809 22.9371C7.797 24.1466 5.84053 23.2044 6.15571 21.6598L6.85011 18.2568C7.03929 17.3297 6.34356 16.4573 5.39761 16.4354L1.9254 16.3551C0.349409 16.3187 -0.133796 14.2016 1.27032 13.485L4.36385 11.9062C5.20663 11.4761 5.45494 10.3882 4.88224 9.63498L2.7801 6.87026C1.82596 5.61539 3.17988 3.91763 4.61561 4.56861L7.77878 6.00284C8.64053 6.39357 9.64589 5.90942 9.87769 4.99205L10.7286 1.62475Z" fill="#3E65C8"/>
</svg>
