<svg width="37" height="37" viewBox="0 0 37 37" fill="none" xmlns="http://www.w3.org/2000/svg">
<path d="M29.4936 8.3926H25.583L23.6602 5.50906C23.5572 5.35465 23.4177 5.22804 23.254 5.14044C23.0904 5.05284 22.9077 5.00695 22.722 5.00684H13.6934C13.5077 5.00695 13.325 5.05284 13.1614 5.14044C12.9977 5.22804 12.8582 5.35465 12.7552 5.50906L10.831 8.3926H6.92183C6.02387 8.3926 5.16269 8.74931 4.52774 9.38426C3.89278 10.0192 3.53607 10.8804 3.53607 11.7784V27.5786C3.53607 28.4765 3.89278 29.3377 4.52774 29.9727C5.16269 30.6076 6.02387 30.9643 6.92183 30.9643H29.4936C30.3915 30.9643 31.2527 30.6076 31.8877 29.9727C32.5226 29.3377 32.8793 28.4765 32.8793 27.5786V11.7784C32.8793 10.8804 32.5226 10.0192 31.8877 9.38426C31.2527 8.74931 30.3915 8.3926 29.4936 8.3926ZM30.6222 27.5786C30.6222 27.8779 30.5033 28.165 30.2916 28.3766C30.08 28.5883 29.7929 28.7072 29.4936 28.7072H6.92183C6.62251 28.7072 6.33545 28.5883 6.1238 28.3766C5.91215 28.165 5.79325 27.8779 5.79325 27.5786V11.7784C5.79325 11.479 5.91215 11.192 6.1238 10.9803C6.33545 10.7687 6.62251 10.6498 6.92183 10.6498H11.4362C11.622 10.6499 11.805 10.6041 11.9689 10.5165C12.1328 10.4289 12.2726 10.3022 12.3757 10.1475L14.2971 7.26401H22.1168L24.0397 10.1475C24.1428 10.3022 24.2826 10.4289 24.4465 10.5165C24.6104 10.6041 24.7934 10.6499 24.9792 10.6498H29.4936C29.7929 10.6498 30.08 10.7687 30.2916 10.9803C30.5033 11.192 30.6222 11.479 30.6222 11.7784V27.5786ZM18.2077 12.9069C16.98 12.9069 15.7799 13.271 14.7592 13.9531C13.7384 14.6351 12.9428 15.6045 12.473 16.7388C12.0032 17.873 11.8802 19.1211 12.1197 20.3251C12.3593 21.5292 12.9504 22.6352 13.8185 23.5033C14.6866 24.3714 15.7926 24.9626 16.9967 25.2021C18.2008 25.4416 19.4489 25.3187 20.5831 24.8489C21.7173 24.3791 22.6868 23.5835 23.3688 22.5627C24.0509 21.5419 24.4149 20.3418 24.4149 19.1142C24.4131 17.4685 23.7585 15.8907 22.5948 14.7271C21.4311 13.5634 19.8534 12.9088 18.2077 12.9069ZM18.2077 23.0642C17.4265 23.0642 16.6628 22.8326 16.0132 22.3985C15.3636 21.9645 14.8573 21.3476 14.5583 20.6258C14.2594 19.904 14.1811 19.1098 14.3335 18.3436C14.486 17.5773 14.8622 16.8735 15.4146 16.3211C15.967 15.7686 16.6708 15.3924 17.4371 15.24C18.2033 15.0876 18.9975 15.1658 19.7193 15.4648C20.4411 15.7638 21.058 16.2701 21.4921 16.9196C21.9261 17.5692 22.1578 18.3329 22.1578 19.1142C22.1578 20.1618 21.7416 21.1665 21.0008 21.9073C20.26 22.6481 19.2553 23.0642 18.2077 23.0642Z" fill="white"/>
</svg>
