<svg width="16" height="18" viewBox="0 0 16 18" fill="none" xmlns="http://www.w3.org/2000/svg">
<path d="M4.44444 6.23928V8.04862H1.77778V16.1907H14.2222V8.04862H11.5556V6.23928H14.2222C14.6937 6.23928 15.1459 6.4299 15.4793 6.76922C15.8127 7.10854 16 7.56875 16 8.04862V16.1907C16 16.6705 15.8127 17.1307 15.4793 17.4701C15.1459 17.8094 14.6937 18 14.2222 18H1.77778C1.30628 18 0.854097 17.8094 0.520699 17.4701C0.187301 17.1307 0 16.6705 0 16.1907V8.04862C0 7.56875 0.187301 7.10854 0.520699 6.76922C0.854097 6.4299 1.30628 6.23928 1.77778 6.23928H4.44444ZM8.78578 0.330868L11.7716 3.36875C11.9383 3.53851 12.0321 3.76874 12.0321 4.00881C12.0321 4.24888 11.9383 4.47911 11.7716 4.64886C11.6048 4.81862 11.3785 4.91398 11.1427 4.91398C10.9068 4.91398 10.6806 4.81862 10.5138 4.64886L8.88889 2.99422V11.6673C8.88889 11.9072 8.79524 12.1373 8.62854 12.307C8.46184 12.4767 8.23575 12.572 8 12.572C7.76425 12.572 7.53816 12.4767 7.37146 12.307C7.20476 12.1373 7.11111 11.9072 7.11111 11.6673V2.99422L5.48622 4.64886C5.40364 4.73292 5.30559 4.79959 5.19769 4.84508C5.08978 4.89057 4.97413 4.91398 4.85733 4.91398C4.74054 4.91398 4.62489 4.89057 4.51698 4.84508C4.40908 4.79959 4.31103 4.73292 4.22844 4.64886C4.14586 4.56481 4.08035 4.46502 4.03565 4.3552C3.99096 4.24538 3.96795 4.12768 3.96795 4.00881C3.96795 3.88994 3.99096 3.77223 4.03565 3.66241C4.08035 3.55259 4.14586 3.45281 4.22844 3.36875L7.21511 0.330868C7.42346 0.119007 7.70593 0 8.00044 0C8.29496 0 8.57743 0.119007 8.78578 0.330868Z" fill="#222324"/>
</svg>
