<svg width="17" height="18" viewBox="0 0 17 18" fill="none" xmlns="http://www.w3.org/2000/svg">
<path d="M4.94444 6.23928V8.04862H2.27778V16.1907H14.7222V8.04862H12.0556V6.23928H14.7222C15.1937 6.23928 15.6459 6.4299 15.9793 6.76922C16.3127 7.10854 16.5 7.56875 16.5 8.04862V16.1907C16.5 16.6705 16.3127 17.1307 15.9793 17.4701C15.6459 17.8094 15.1937 18 14.7222 18H2.27778C1.80628 18 1.3541 17.8094 1.0207 17.4701C0.687301 17.1307 0.5 16.6705 0.5 16.1907V8.04862C0.5 7.56875 0.687301 7.10854 1.0207 6.76922C1.3541 6.4299 1.80628 6.23928 2.27778 6.23928H4.94444ZM9.28578 0.330868L12.2716 3.36875C12.4383 3.53851 12.5321 3.76874 12.5321 4.00881C12.5321 4.24888 12.4383 4.47911 12.2716 4.64886C12.1048 4.81862 11.8785 4.91398 11.6427 4.91398C11.4068 4.91398 11.1806 4.81862 11.0138 4.64886L9.38889 2.99422V11.6673C9.38889 11.9072 9.29524 12.1373 9.12854 12.307C8.96184 12.4767 8.73575 12.572 8.5 12.572C8.26425 12.572 8.03816 12.4767 7.87146 12.307C7.70476 12.1373 7.61111 11.9072 7.61111 11.6673V2.99422L5.98622 4.64886C5.90364 4.73292 5.80559 4.79959 5.69769 4.84508C5.58978 4.89057 5.47413 4.91398 5.35733 4.91398C5.24054 4.91398 5.12489 4.89057 5.01698 4.84508C4.90908 4.79959 4.81103 4.73292 4.72844 4.64886C4.64586 4.56481 4.58035 4.46502 4.53565 4.3552C4.49096 4.24538 4.46795 4.12768 4.46795 4.00881C4.46795 3.88994 4.49096 3.77223 4.53565 3.66241C4.58035 3.55259 4.64586 3.45281 4.72844 3.36875L7.71511 0.330868C7.92346 0.119007 8.20593 0 8.50044 0C8.79496 0 9.07743 0.119007 9.28578 0.330868Z" fill="#FFFEFD"/>
</svg>
