<svg width="22" height="22" viewBox="0 0 22 22" fill="none" xmlns="http://www.w3.org/2000/svg">
<g clip-path="url(#clip0_1490_2144)">
<path d="M13.0625 16.5H17.875V17.5312C17.875 18.1694 17.6215 18.7815 17.1702 19.2327C16.719 19.684 16.1069 19.9375 15.4688 19.9375C14.8306 19.9375 14.2185 19.684 13.7673 19.2327C13.316 18.7815 13.0625 18.1694 13.0625 17.5312V16.5Z" stroke="#FFFEFD" stroke-width="2" stroke-linecap="round" stroke-linejoin="round"/>
<path d="M4.125 14.4375H8.9375V15.4688C8.9375 16.1069 8.68398 16.719 8.23273 17.1702C7.78147 17.6215 7.16943 17.875 6.53125 17.875C5.89307 17.875 5.28103 17.6215 4.82977 17.1702C4.37852 16.719 4.125 16.1069 4.125 15.4688V14.4375Z" stroke="#FFFEFD" stroke-width="2" stroke-linecap="round" stroke-linejoin="round"/>
<path d="M4.36051 11.6875C2.10895 8.9375 4.4241 2.0625 6.53129 2.0625C8.63848 2.0625 10.9536 8.9375 8.70207 11.6875H4.36051Z" stroke="#FFFEFD" stroke-width="2" stroke-linecap="round" stroke-linejoin="round"/>
<path d="M13.298 13.75C11.0464 11 13.3616 4.125 15.4688 4.125C17.576 4.125 19.8911 11 17.6396 13.75H13.298Z" stroke="#FFFEFD" stroke-width="2" stroke-linecap="round" stroke-linejoin="round"/>
</g>
<defs>
<clipPath id="clip0_1490_2144">
<rect width="22" height="22" fill="white"/>
</clipPath>
</defs>
</svg>
