<svg width="121" height="69" viewBox="0 0 121 69" fill="none" xmlns="http://www.w3.org/2000/svg">
<rect x="1.73053" y="30.83" width="112.018" height="38.0185" rx="19.0092" transform="rotate(-15 1.73053 30.83)" fill="white" fill-opacity="0.85"/>
<rect x="1.73053" y="30.83" width="112.018" height="38.0185" rx="19.0092" transform="rotate(-15 1.73053 30.83)" stroke="white" stroke-width="1.98154"/>
<path d="M27.2392 48.8511L24.7027 39.3851L30.8692 37.7328L31.2642 39.2068L26.9233 40.3699L27.6009 42.8987L31.0763 41.9675L31.4604 43.4009L27.985 44.3321L29.0648 48.362L27.2392 48.8511ZM37.3477 46.3165C36.6986 46.4904 36.0728 46.4987 35.4702 46.3413C34.8742 46.1724 34.3517 45.8631 33.9026 45.4134C33.4602 44.9522 33.146 44.3745 32.9599 43.6803C32.7691 42.9681 32.7512 42.3062 32.9062 41.6946C33.0677 41.0715 33.3701 40.5412 33.8133 40.1036C34.2541 39.6569 34.799 39.3467 35.4481 39.1727C36.1062 38.9964 36.7333 38.9926 37.3293 39.1615C37.9319 39.3189 38.4544 39.6282 38.8968 40.0894C39.3459 40.5391 39.6646 41.1156 39.853 41.8188C40.0415 42.522 40.0549 43.1851 39.8933 43.8082C39.7383 44.4198 39.4404 44.9489 38.9997 45.3955C38.5565 45.8332 38.0059 46.1401 37.3477 46.3165ZM36.9238 44.7343C37.2303 44.6522 37.4815 44.5076 37.6772 44.3005C37.882 44.091 38.0121 43.8194 38.0676 43.4857C38.1321 43.1495 38.1052 42.7606 37.9869 42.3188C37.8685 41.8771 37.6985 41.5313 37.477 41.2815C37.2621 41.0202 37.0135 40.85 36.7315 40.771C36.456 40.6806 36.1695 40.6752 35.872 40.7549C35.5835 40.8322 35.3381 40.9801 35.1358 41.1986C34.931 41.4081 34.7964 41.6809 34.7318 42.017C34.6739 42.3417 34.7041 42.725 34.8225 43.1667C34.9409 43.6085 35.1075 43.96 35.3225 44.2213C35.5464 44.4801 35.7949 44.6503 36.068 44.7317C36.35 44.8107 36.6353 44.8116 36.9238 44.7343ZM44.6549 44.3585C44.105 44.5059 43.6015 44.52 43.1444 44.4009C42.6939 44.2704 42.3058 44.012 41.9801 43.6258C41.652 43.2306 41.3998 42.704 41.2234 42.0459L40.1617 38.0836L41.9873 37.5945L42.9983 41.3674C43.1456 41.9173 43.3695 42.3018 43.6697 42.5209C43.979 42.7376 44.3725 42.7819 44.8504 42.6539C45.1569 42.5717 45.4092 42.4316 45.6074 42.2336C45.8031 42.0265 45.9336 41.7742 45.9988 41.4765C46.0705 41.1674 46.0545 40.819 45.9506 40.4314L44.9759 36.7937L46.788 36.3081L48.6142 43.1237L47.0185 43.5513L46.5726 42.4823C46.4782 42.9231 46.2685 43.3126 45.9437 43.6509C45.6164 43.9801 45.1868 44.216 44.6549 44.3585ZM50.1316 42.7171L48.3054 35.9015L49.9146 35.4703L50.347 36.543C50.4529 36.1088 50.6638 35.7238 50.9796 35.3879C51.3044 35.0496 51.7328 34.8092 52.2647 34.6667C52.8327 34.5145 53.3419 34.5037 53.7924 34.6342C54.2428 34.7648 54.6276 35.0288 54.9468 35.4264C55.2749 35.8217 55.5271 36.3483 55.7035 37.0064L56.7579 40.9416L54.9458 41.4272L53.9385 37.6678C53.7936 37.1269 53.5652 36.7436 53.2535 36.5179C52.9509 36.2898 52.5606 36.2397 52.0828 36.3678C51.7763 36.4499 51.5206 36.5957 51.3159 36.8052C51.1201 37.0122 50.9909 37.2691 50.9281 37.5758C50.8629 37.8735 50.8811 38.2116 50.9825 38.5903L51.9572 42.2279L50.1316 42.7171ZM61.28 39.9038C60.658 40.0705 60.0579 40.067 59.48 39.8934C58.911 39.7173 58.4143 39.3962 57.9899 38.9302C57.5655 38.4642 57.2627 37.8931 57.0815 37.2169C56.8955 36.5228 56.871 35.8723 57.0079 35.2655C57.1515 34.6473 57.4301 34.1185 57.8438 33.6791C58.2642 33.2283 58.7853 32.9195 59.4074 32.7528C59.8942 32.6224 60.3466 32.5978 60.7645 32.6791C61.1825 32.7603 61.5488 32.9376 61.8636 33.2107L60.8454 29.4108L62.671 28.9216L65.2799 38.6582L63.6571 39.093L63.2043 38.2142C63.1198 38.4398 62.9968 38.666 62.8353 38.8928C62.6829 39.1173 62.4802 39.3165 62.2273 39.4906C61.9744 39.6646 61.6587 39.8024 61.28 39.9038ZM61.2852 38.1922C61.6458 38.0956 61.9396 37.9299 62.1666 37.6951C62.4001 37.449 62.5537 37.1566 62.6272 36.818C62.7008 36.4794 62.6856 36.1163 62.5818 35.7287C62.4779 35.341 62.3095 35.019 62.0765 34.7625C61.8435 34.5061 61.5655 34.3342 61.2426 34.2468C60.9262 34.1479 60.5877 34.1469 60.2271 34.2435C59.8845 34.3353 59.5965 34.5043 59.3629 34.7504C59.1269 34.9876 58.9676 35.2767 58.8851 35.6177C58.8115 35.9562 58.8255 36.3148 58.9269 36.6935C59.0332 37.0901 59.2028 37.4167 59.4358 37.6731C59.6778 37.9272 59.957 38.1036 60.2733 38.2024C60.5963 38.2898 60.9336 38.2864 61.2852 38.1922Z" fill="#3E65C8"/>
<path d="M91.735 22.2596C91.8576 22.3303 91.965 22.4245 92.0512 22.5367C92.1374 22.649 92.2006 22.7771 92.2372 22.9138C92.2739 23.0505 92.2832 23.1931 92.2647 23.3334C92.2462 23.4737 92.2002 23.609 92.1294 23.7315L86.7989 32.9642C86.7282 33.0868 86.634 33.1943 86.5217 33.2805C86.4095 33.3667 86.2814 33.4299 86.1446 33.4665C86.0079 33.5031 85.8654 33.5125 85.7251 33.494C85.5848 33.4755 85.4495 33.4295 85.3269 33.3586L81.3701 31.0741C81.1226 30.9313 80.942 30.6959 80.868 30.4199C80.7941 30.1438 80.8328 29.8497 80.9757 29.6022C81.1186 29.3547 81.3539 29.1741 81.63 29.1002C81.906 29.0262 82.2001 29.0649 82.4476 29.2078L85.4717 30.9549L90.263 22.654C90.3337 22.5314 90.4279 22.424 90.5402 22.3378C90.6524 22.2516 90.7805 22.1884 90.9173 22.1517C91.054 22.1151 91.1965 22.1058 91.3368 22.1243C91.4772 22.1428 91.6124 22.1888 91.735 22.2596ZM100.354 24.0836C101.071 26.7582 100.978 29.5853 100.088 32.2073C99.1982 34.8292 97.5506 37.1284 95.3539 38.8141C93.1572 40.4997 90.5099 41.496 87.7469 41.6771C84.9839 41.8582 82.2292 41.2159 79.8312 39.8315C77.4333 38.447 75.4997 36.3825 74.275 33.8991C73.0504 31.4158 72.5896 28.625 72.951 25.8797C73.3124 23.1345 74.4798 20.5581 76.3055 18.4763C78.1312 16.3945 80.5332 14.9008 83.2078 14.1841C86.7941 13.2272 90.6136 13.7321 93.8282 15.5881C97.0427 17.444 99.3897 20.4993 100.354 24.0836ZM98.2737 24.6411C97.6673 22.378 96.4035 20.3455 94.642 18.8007C92.8804 17.2559 90.7004 16.2681 88.3775 15.9623C86.0546 15.6565 83.6932 16.0464 81.5918 17.0826C79.4905 18.1189 77.7437 19.755 76.5722 21.784C75.4007 23.8131 74.8572 26.144 75.0105 28.4819C75.1637 30.8198 76.0068 33.0598 77.4331 34.9186C78.8594 36.7774 80.8048 38.1715 83.0234 38.9246C85.242 39.6777 87.6341 39.756 89.8973 39.1496C92.93 38.3333 95.5151 36.3473 97.0855 33.6274C98.6558 30.9075 99.0832 27.6757 98.2737 24.6411Z" fill="#3E65C8"/>
</svg>
