<svg width="15" height="16" viewBox="0 0 15 16" fill="none" xmlns="http://www.w3.org/2000/svg">
<path d="M0 14.96V5.92057C0 5.65434 0.0614285 5.40232 0.184286 5.16451C0.307143 4.9267 0.476428 4.73084 0.692143 4.57693L6.46179 0.335912C6.76393 0.111971 7.10893 0 7.49679 0C7.88464 0 8.23178 0.111971 8.53821 0.335912L14.3079 4.57589C14.5243 4.7298 14.6936 4.92601 14.8157 5.16451C14.9386 5.40232 15 5.65434 15 5.92057V14.96C15 15.2387 14.8932 15.4817 14.6796 15.689C14.4661 15.8963 14.2157 16 13.9286 16H10.3029C10.0571 16 9.85143 15.9196 9.68571 15.7587C9.52 15.5972 9.43714 15.3975 9.43714 15.1597V10.2001C9.43714 9.96226 9.35429 9.76293 9.18857 9.60208C9.02214 9.44054 8.81643 9.35977 8.57143 9.35977H6.42857C6.18357 9.35977 5.97821 9.44054 5.8125 9.60208C5.64607 9.76293 5.56286 9.96226 5.56286 10.2001V15.1607C5.56286 15.3985 5.48 15.5979 5.31429 15.7587C5.14857 15.9196 4.94321 16 4.69821 16H1.07143C0.784286 16 0.533928 15.8963 0.320357 15.689C0.106785 15.4817 0 15.2387 0 14.96Z" fill="#686E78"/>
</svg>
