<svg width="16" height="16" viewBox="0 0 16 16" fill="none" xmlns="http://www.w3.org/2000/svg">
<g clip-path="url(#clip0_1909_2973)">
<path fill-rule="evenodd" clip-rule="evenodd" d="M10.0951 0.279545C8.52183 -0.14765 6.85559 -0.0839814 5.31949 0.462027C3.78339 1.00803 2.45075 2.01032 1.50002 3.33468V1.74961C1.50002 1.55069 1.421 1.35991 1.28035 1.21926C1.13969 1.0786 0.948923 0.999577 0.750009 0.999577C0.551094 0.999577 0.360326 1.0786 0.219672 1.21926C0.0790185 1.35991 0 1.55069 0 1.74961L0 5.9998H4.25005C4.44896 5.9998 4.63973 5.92077 4.78039 5.78012C4.92104 5.63946 5.00006 5.44868 5.00006 5.24976C5.00006 5.05084 4.92104 4.86007 4.78039 4.71941C4.63973 4.57875 4.44896 4.49973 4.25005 4.49973H2.52303C3.30637 3.27416 4.47811 2.34675 5.8508 1.86585C7.2235 1.38494 8.71781 1.37835 10.0947 1.84711C11.4716 2.31587 12.6515 3.23291 13.4456 4.45151C14.2397 5.67011 14.6022 7.11985 14.4751 8.56882C14.3479 10.0178 13.7385 11.3822 12.7443 12.4439C11.75 13.5056 10.4285 14.2031 8.99098 14.4249C7.5535 14.6466 6.08317 14.3799 4.81521 13.6672C3.54726 12.9546 2.55494 11.8373 1.99702 10.494C1.91781 10.3147 1.77157 10.1736 1.58962 10.1008C1.40766 10.028 1.20444 10.0293 1.02344 10.1045C0.84244 10.1796 0.698043 10.3226 0.621149 10.5029C0.544256 10.6832 0.540974 10.8864 0.612007 11.069C1.1332 12.3236 1.96529 13.4248 3.02983 14.2688C4.09437 15.1128 5.3563 15.6718 6.69666 15.8931C8.03702 16.1144 9.41166 15.9908 10.691 15.5338C11.9703 15.0768 13.1122 14.3015 14.0091 13.2811C14.9059 12.2606 15.5281 11.0286 15.817 9.70112C16.1059 8.37364 16.052 6.99446 15.6604 5.69357C15.2689 4.39268 14.5525 3.21294 13.5788 2.26556C12.6051 1.31817 11.4062 0.635347 10.0951 0.279545Z" fill="#333D37"/>
</g>
<defs>
<clipPath id="clip0_1909_2973">
<rect width="16" height="16" fill="white"/>
</clipPath>
</defs>
</svg>
