<svg width="26" height="28" viewBox="0 0 26 28" fill="none" xmlns="http://www.w3.org/2000/svg">
<rect x="1" y="6.2002" width="17" height="18" rx="1.26667" stroke="#FFFEFD" stroke-width="2"/>
<path d="M20.1707 2.78912C20.1971 1.30766 18.2274 0.772504 17.5005 2.06359L16.0369 4.66297C15.9471 4.82244 15.7349 4.86182 15.5938 4.74518L13.295 2.84402C12.1532 1.89972 10.5068 3.10597 11.0629 4.47931L12.1826 7.2443C12.2513 7.41393 12.1498 7.6044 11.9707 7.64195L9.05101 8.25387C7.60082 8.55781 7.51736 10.5971 8.93784 11.0186L11.7977 11.8671C11.9732 11.9191 12.0588 12.1173 11.9765 12.2807L10.6345 14.945C9.96797 16.2683 11.5103 17.605 12.7255 16.7572L15.172 15.0503C15.3221 14.9456 15.5304 15.0021 15.6068 15.1684L16.8531 17.8787C17.4721 19.2249 19.4789 18.8525 19.5737 17.3739L19.7645 14.3969C19.7762 14.2142 19.9503 14.0867 20.128 14.1306L23.0241 14.846C24.4625 15.2014 25.4225 13.4002 24.3256 12.4042L22.1171 10.3989C21.9816 10.2758 21.9904 10.0602 22.1355 9.94865L24.5005 8.13052C25.6752 7.22747 24.8656 5.35389 23.4029 5.5905L20.4581 6.06689C20.2774 6.09611 20.1143 5.95475 20.1176 5.77176L20.1707 2.78912Z" fill="#FFFEFD" stroke="#333D37" stroke-width="1.13333"/>
</svg>
