<svg width="159" height="44" viewBox="0 0 159 44" fill="none" xmlns="http://www.w3.org/2000/svg">
<rect width="159" height="44" rx="22" fill="#333D37"/>
<rect x="21" y="13.2002" width="17" height="18" rx="1.26667" stroke="#FFFEFD" stroke-width="2"/>
<path d="M40.1707 9.78908C40.1971 8.30762 38.2274 7.77246 37.5005 9.06354L36.0368 11.6629C35.9471 11.8224 35.7348 11.8618 35.5938 11.7451L33.295 9.84397C32.1532 8.89968 30.5067 10.1059 31.0629 11.4793L32.1826 14.2443C32.2513 14.4139 32.1498 14.6044 31.9707 14.6419L29.051 15.2538C27.6008 15.5578 27.5174 17.5971 28.9378 18.0185L31.7977 18.867C31.9732 18.9191 32.0588 19.1172 31.9765 19.2807L30.6345 21.9449C29.968 23.2682 31.5103 24.605 32.7255 23.7572L35.172 22.0502C35.3221 21.9455 35.5304 22.0021 35.6068 22.1684L36.8531 24.8787C37.4721 26.2249 39.4789 25.8525 39.5737 24.3738L39.7645 21.3968C39.7762 21.2142 39.9503 21.0866 40.128 21.1305L43.0241 21.846C44.4625 22.2014 45.4225 20.4002 44.3256 19.4042L42.1171 17.3988C41.9816 17.2758 41.9904 17.0601 42.1355 16.9486L44.5005 15.1305C45.6752 14.2274 44.8656 12.3538 43.4029 12.5905L40.4581 13.0668C40.2774 13.0961 40.1143 12.9547 40.1176 12.7717L40.1707 9.78908Z" fill="#FFFEFD" stroke="#333D37" stroke-width="1.13333"/>
<path d="M56.8539 27.692C56.0325 27.692 55.3125 27.548 54.6939 27.26C54.0752 26.9613 53.5952 26.5453 53.2539 26.012C52.9125 25.4787 52.7419 24.8547 52.7419 24.14H54.4219C54.4325 24.5453 54.5285 24.9187 54.7099 25.26C54.9019 25.5907 55.1739 25.8573 55.5259 26.06C55.8885 26.252 56.3312 26.348 56.8539 26.348C57.3019 26.348 57.6859 26.2733 58.0059 26.124C58.3365 25.9747 58.5872 25.772 58.7579 25.516C58.9285 25.2493 59.0139 24.9453 59.0139 24.604C59.0139 24.2093 58.9232 23.884 58.7419 23.628C58.5605 23.372 58.3152 23.164 58.0059 23.004C57.7072 22.8333 57.3552 22.684 56.9499 22.556C56.5552 22.428 56.1392 22.2893 55.7019 22.14C54.8165 21.852 54.1552 21.4787 53.7179 21.02C53.2912 20.5613 53.0779 19.964 53.0779 19.228C53.0779 18.5987 53.2272 18.0547 53.5259 17.596C53.8245 17.1267 54.2405 16.764 54.7739 16.508C55.3179 16.2413 55.9579 16.108 56.6939 16.108C57.4192 16.108 58.0539 16.2413 58.5979 16.508C59.1419 16.7747 59.5685 17.1427 59.8779 17.612C60.1872 18.0813 60.3419 18.6307 60.3419 19.26H58.6459C58.6459 18.972 58.5712 18.6893 58.4219 18.412C58.2725 18.1347 58.0485 17.9107 57.7499 17.74C57.4512 17.5587 57.0832 17.468 56.6459 17.468C56.2832 17.4573 55.9579 17.516 55.6699 17.644C55.3819 17.772 55.1579 17.9587 54.9979 18.204C54.8379 18.4493 54.7579 18.7427 54.7579 19.084C54.7579 19.4253 54.8272 19.7027 54.9659 19.916C55.1152 20.1187 55.3285 20.2947 55.6059 20.444C55.8832 20.5933 56.2032 20.732 56.5659 20.86C56.9392 20.9773 57.3499 21.1107 57.7979 21.26C58.3525 21.4413 58.8432 21.6653 59.2699 21.932C59.7072 22.188 60.0485 22.524 60.2939 22.94C60.5499 23.3453 60.6779 23.868 60.6779 24.508C60.6779 25.0627 60.5339 25.58 60.2459 26.06C59.9579 26.54 59.5312 26.9347 58.9659 27.244C58.4005 27.5427 57.6965 27.692 56.8539 27.692ZM65.5085 27.5C64.9965 27.5 64.5538 27.42 64.1805 27.26C63.8072 27.1 63.5192 26.8333 63.3165 26.46C63.1138 26.0867 63.0125 25.58 63.0125 24.94V20.796H61.6205V19.436H63.0125L63.2045 17.42H64.6125V19.436H66.9005V20.796H64.6125V24.956C64.6125 25.4147 64.7085 25.7293 64.9005 25.9C65.0925 26.06 65.4232 26.14 65.8925 26.14H66.8205V27.5H65.5085ZM68.4569 27.5V19.436H70.0569V27.5H68.4569ZM69.2729 17.916C68.9635 17.916 68.7075 17.82 68.5049 17.628C68.3129 17.436 68.2169 17.1907 68.2169 16.892C68.2169 16.604 68.3129 16.3693 68.5049 16.188C68.7075 15.996 68.9635 15.9 69.2729 15.9C69.5715 15.9 69.8222 15.996 70.0249 16.188C70.2275 16.3693 70.3289 16.604 70.3289 16.892C70.3289 17.1907 70.2275 17.436 70.0249 17.628C69.8222 17.82 69.5715 17.916 69.2729 17.916ZM75.7529 27.692C74.9742 27.692 74.2809 27.516 73.6729 27.164C73.0649 26.8013 72.5849 26.3053 72.2329 25.676C71.8915 25.0467 71.7209 24.316 71.7209 23.484C71.7209 22.6413 71.8915 21.9053 72.2329 21.276C72.5849 20.636 73.0649 20.14 73.6729 19.788C74.2809 19.4253 74.9742 19.244 75.7529 19.244C76.7342 19.244 77.5555 19.5 78.2169 20.012C78.8782 20.524 79.2995 21.2173 79.4809 22.092H77.8169C77.7102 21.6227 77.4649 21.26 77.0809 21.004C76.7075 20.748 76.2595 20.62 75.7369 20.62C75.3102 20.62 74.9155 20.732 74.5529 20.956C74.1902 21.1693 73.8969 21.4893 73.6729 21.916C73.4595 22.332 73.3529 22.8493 73.3529 23.468C73.3529 23.9267 73.4169 24.3373 73.5449 24.7C73.6729 25.052 73.8435 25.3507 74.0569 25.596C74.2809 25.8413 74.5369 26.028 74.8249 26.156C75.1129 26.2733 75.4169 26.332 75.7369 26.332C76.0889 26.332 76.4035 26.2787 76.6809 26.172C76.9689 26.0547 77.2089 25.884 77.4009 25.66C77.6035 25.436 77.7422 25.1693 77.8169 24.86H79.4809C79.2995 25.7133 78.8782 26.4013 78.2169 26.924C77.5555 27.436 76.7342 27.692 75.7529 27.692ZM86.105 27.5L82.393 23.084L85.753 19.436H87.689L83.689 23.708V22.508L88.121 27.5H86.105ZM81.033 27.5V15.98H82.633V27.5H81.033ZM92.1891 27.692C91.4211 27.692 90.7385 27.516 90.1411 27.164C89.5438 26.812 89.0745 26.3213 88.7331 25.692C88.4025 25.0627 88.2371 24.332 88.2371 23.5C88.2371 22.6467 88.4025 21.9053 88.7331 21.276C89.0745 20.636 89.5438 20.14 90.1411 19.788C90.7385 19.4253 91.4318 19.244 92.2211 19.244C93.0105 19.244 93.6878 19.42 94.2531 19.772C94.8185 20.124 95.2558 20.5933 95.5651 21.18C95.8745 21.756 96.0291 22.396 96.0291 23.1C96.0291 23.2067 96.0238 23.324 96.0131 23.452C96.0131 23.5693 96.0078 23.7027 95.9971 23.852H89.4051V22.716H94.4291C94.3971 22.044 94.1731 21.5213 93.7571 21.148C93.3411 20.764 92.8238 20.572 92.2051 20.572C91.7678 20.572 91.3678 20.6733 91.0051 20.876C90.6425 21.068 90.3491 21.356 90.1251 21.74C89.9118 22.1133 89.8051 22.588 89.8051 23.164V23.612C89.8051 24.2093 89.9118 24.716 90.1251 25.132C90.3491 25.5373 90.6425 25.8467 91.0051 26.06C91.3678 26.2627 91.7625 26.364 92.1891 26.364C92.7011 26.364 93.1225 26.252 93.4531 26.028C93.7838 25.804 94.0291 25.5 94.1891 25.116H95.7891C95.6505 25.6067 95.4158 26.0493 95.0851 26.444C94.7545 26.828 94.3438 27.132 93.8531 27.356C93.3731 27.58 92.8185 27.692 92.1891 27.692ZM97.4868 27.5V19.436H98.9268L99.0708 20.956C99.2521 20.5933 99.4868 20.2893 99.7748 20.044C100.063 19.788 100.399 19.5907 100.783 19.452C101.177 19.3133 101.625 19.244 102.127 19.244V20.94H101.551C101.22 20.94 100.905 20.9827 100.607 21.068C100.308 21.1427 100.041 21.276 99.8068 21.468C99.5828 21.66 99.4068 21.9213 99.2788 22.252C99.1508 22.5827 99.0868 22.9933 99.0868 23.484V27.5H97.4868ZM107.676 27.692C107.239 27.692 106.839 27.628 106.476 27.5C106.124 27.3827 105.815 27.2173 105.548 27.004C105.281 26.7907 105.057 26.5453 104.876 26.268L104.716 27.5H103.276V15.98H104.876V20.7C105.132 20.2947 105.489 19.9533 105.948 19.676C106.417 19.388 106.993 19.244 107.676 19.244C108.444 19.244 109.121 19.4307 109.708 19.804C110.295 20.1667 110.748 20.668 111.068 21.308C111.399 21.9373 111.564 22.6627 111.564 23.484C111.564 24.284 111.399 25.004 111.068 25.644C110.748 26.284 110.295 26.7853 109.708 27.148C109.121 27.5107 108.444 27.692 107.676 27.692ZM107.42 26.3C107.911 26.3 108.343 26.1827 108.716 25.948C109.1 25.7133 109.399 25.3827 109.612 24.956C109.836 24.5293 109.948 24.0333 109.948 23.468C109.948 22.9027 109.836 22.412 109.612 21.996C109.399 21.5693 109.1 21.2387 108.716 21.004C108.343 20.7587 107.911 20.636 107.42 20.636C106.919 20.636 106.476 20.7587 106.092 21.004C105.719 21.2387 105.425 21.5693 105.212 21.996C104.999 22.412 104.892 22.9027 104.892 23.468C104.892 24.0333 104.999 24.5293 105.212 24.956C105.425 25.3827 105.719 25.7133 106.092 25.948C106.476 26.1827 106.919 26.3 107.42 26.3ZM116.792 27.692C116.035 27.692 115.352 27.516 114.744 27.164C114.147 26.812 113.672 26.3213 113.32 25.692C112.979 25.052 112.808 24.316 112.808 23.484C112.808 22.6307 112.984 21.8893 113.336 21.26C113.688 20.62 114.168 20.124 114.776 19.772C115.384 19.42 116.067 19.244 116.824 19.244C117.592 19.244 118.275 19.42 118.872 19.772C119.47 20.124 119.939 20.6147 120.28 21.244C120.632 21.8733 120.808 22.6147 120.808 23.468C120.808 24.3213 120.632 25.0627 120.28 25.692C119.939 26.3213 119.464 26.812 118.856 27.164C118.248 27.516 117.56 27.692 116.792 27.692ZM116.792 26.316C117.23 26.316 117.624 26.2093 117.976 25.996C118.339 25.7827 118.627 25.468 118.84 25.052C119.064 24.6253 119.176 24.0973 119.176 23.468C119.176 22.8387 119.07 22.316 118.856 21.9C118.643 21.4733 118.355 21.1533 117.992 20.94C117.64 20.7267 117.251 20.62 116.824 20.62C116.398 20.62 116.003 20.7267 115.64 20.94C115.278 21.1533 114.984 21.4733 114.76 21.9C114.547 22.316 114.44 22.8387 114.44 23.468C114.44 24.0973 114.547 24.6253 114.76 25.052C114.984 25.468 115.272 25.7827 115.624 25.996C115.987 26.2093 116.376 26.316 116.792 26.316ZM126.051 27.692C125.293 27.692 124.611 27.516 124.003 27.164C123.405 26.812 122.931 26.3213 122.579 25.692C122.237 25.052 122.067 24.316 122.067 23.484C122.067 22.6307 122.243 21.8893 122.595 21.26C122.947 20.62 123.427 20.124 124.035 19.772C124.643 19.42 125.325 19.244 126.083 19.244C126.851 19.244 127.533 19.42 128.131 19.772C128.728 20.124 129.197 20.6147 129.539 21.244C129.891 21.8733 130.067 22.6147 130.067 23.468C130.067 24.3213 129.891 25.0627 129.539 25.692C129.197 26.3213 128.723 26.812 128.115 27.164C127.507 27.516 126.819 27.692 126.051 27.692ZM126.051 26.316C126.488 26.316 126.883 26.2093 127.235 25.996C127.597 25.7827 127.885 25.468 128.099 25.052C128.323 24.6253 128.435 24.0973 128.435 23.468C128.435 22.8387 128.328 22.316 128.115 21.9C127.901 21.4733 127.613 21.1533 127.251 20.94C126.899 20.7267 126.509 20.62 126.083 20.62C125.656 20.62 125.261 20.7267 124.899 20.94C124.536 21.1533 124.243 21.4733 124.019 21.9C123.805 22.316 123.699 22.8387 123.699 23.468C123.699 24.0973 123.805 24.6253 124.019 25.052C124.243 25.468 124.531 25.7827 124.883 25.996C125.245 26.2093 125.635 26.316 126.051 26.316ZM136.701 27.5L132.989 23.084L136.349 19.436H138.285L134.285 23.708V22.508L138.717 27.5H136.701ZM131.629 27.5V15.98H133.229V27.5H131.629Z" fill="#FFFEFD"/>
</svg>
