<svg width="12" height="12" viewBox="0 0 12 12" fill="none" xmlns="http://www.w3.org/2000/svg">
<path id="Vector" fill-rule="evenodd" clip-rule="evenodd" d="M0.286805 0.305288C0.474333 0.117817 0.728641 0.0125018 0.993805 0.0125018C1.25897 0.0125018 1.51328 0.117817 1.7008 0.305288L5.9938 4.59829L10.2868 0.305288C10.3791 0.209778 10.4894 0.133596 10.6114 0.0811869C10.7334 0.0287779 10.8646 0.00119157 10.9974 3.77571e-05C11.1302 -0.00111606 11.2619 0.0241854 11.3848 0.0744663C11.5077 0.124747 11.6193 0.199 11.7132 0.292893C11.8071 0.386786 11.8813 0.498438 11.9316 0.621334C11.9819 0.744231 12.0072 0.87591 12.0061 1.00869C12.0049 1.14147 11.9773 1.27269 11.9249 1.39469C11.8725 1.5167 11.7963 1.62704 11.7008 1.71929L7.4078 6.01229L11.7008 10.3053C11.883 10.4939 11.9838 10.7465 11.9815 11.0087C11.9792 11.2709 11.874 11.5217 11.6886 11.7071C11.5032 11.8925 11.2524 11.9977 10.9902 12C10.728 12.0022 10.4754 11.9014 10.2868 11.7193L5.9938 7.42629L1.7008 11.7193C1.5122 11.9014 1.2596 12.0022 0.997404 12C0.735207 11.9977 0.484395 11.8925 0.298986 11.7071C0.113578 11.5217 0.00840911 11.2709 0.0061307 11.0087C0.00385228 10.7465 0.104647 10.4939 0.286805 10.3053L4.57981 6.01229L0.286805 1.71929C0.0993341 1.53176 -0.00598145 1.27745 -0.00598145 1.01229C-0.00598145 0.747124 0.0993341 0.492816 0.286805 0.305288Z" fill="#222324"/>
</svg>
