<svg width="393" height="691" viewBox="0 0 393 691" fill="none" xmlns="http://www.w3.org/2000/svg">
<path d="M-39.5615 102.263C-37.9565 92.6332 -25.4831 83.685 -18.8554 77.575C-1.10139 61.2081 19.2266 45.1481 42.3074 37.198C70.0297 27.6492 102.049 2.09071 131.025 2.00044C160.364 1.90905 215.795 14.4088 251.874 18.6982C261.597 19.8541 271.331 21.5352 280.399 25.2285C317.568 40.3667 328.181 55.2736 339.5 88.5002C345.625 106.481 345.24 140.1 346 159C346.69 176.166 326.325 188.541 323.672 205.635C319.642 231.61 310.022 258.468 299.382 282.407C289.155 305.417 270.366 324.374 253.988 343.092C238.429 360.874 218.701 374.618 198.081 386.097C175.137 398.87 152.793 412.086 131.025 426.872C111.974 439.813 88.021 458.666 78.0654 480.071C74.3669 488.023 73.3708 495.634 73.6852 504.281C74.1346 516.64 85.0932 524.208 93.0375 532.314C116.038 555.784 145.722 571.87 178.411 575.956C205.92 579.395 239.252 584.297 266.571 578.027C299.508 570.468 330.682 557.142 363.89 550.631C371.192 549.199 391.121 539.653 394.79 532.314" stroke="#89AFEF" stroke-opacity="0.5" stroke-width="3" stroke-linecap="round" stroke-dasharray="10 10"/>
<path d="M-40 136.717C-18.2763 136.717 3.63106 136.145 25.3684 135.549C39.9246 135.15 40.2413 119.06 51.6974 114.019C81.4629 100.922 112.521 122.314 132.759 142.553C156.447 166.241 172.706 199.857 173.55 233.602C174.315 264.218 145.32 285.094 122.254 300.138C104.557 311.679 85.3233 320.568 67.7801 332.433C53.9981 341.754 40.2031 351.638 27.4436 362.328C14.3877 373.267 1.48463 385.319 -7.05639 400.265C-20.2153 423.294 -23.6579 445.893 -23.6579 472.184C-23.6579 483.611 -25.6242 496.417 -20.0263 506.813C-12.3287 521.109 -2.47714 533.438 8.24812 545.593C33.653 574.386 65.9 599.174 102.15 612.713C133.924 624.58 168.887 627.363 202.408 630.482C211.543 631.331 220.49 631.649 229.645 631.649C239.077 631.649 248.695 650.288 252.342 657.913C257.78 669.283 264.443 679.159 276.726 683.658C291.569 689.096 305.766 688.846 321.342 688.846C331.993 688.846 343.277 689.854 353.832 688.068C364.06 686.337 374.657 682.274 384.181 678.276C403.208 670.289 420.735 654.995 442.092 654.995" stroke="#89AFEF" stroke-opacity="0.5" stroke-width="3" stroke-linecap="round" stroke-dasharray="10 10"/>
</svg>
