<?xml version="1.0" encoding="UTF-8"?><svg id="Layer_1" xmlns="http://www.w3.org/2000/svg" viewBox="0 0 300 360"><defs><style>.cls-1{fill:#231f20;}</style></defs><path class="cls-1" d="M115.92,0c.32,0,.66.01,1.03.05,3.9.34,3.74,2.42,6.37,4.09.99.63,2.3.97,3.36,1.73.76.55,1.56,1.88,2.49,2.06.1.02.19.03.29.03.9,0,1.68-.8,2.55-1.04.96-.27,1.83-.37,2.66-.37,2.45,0,4.43.9,6.65.9.26,0,.53-.01.8-.04,2.06-.21,2.43-1.56,3.81-2.69,1.78-1.47,5.37-3.24,7.79-3.24.08,0,.16,0,.23,0,.87.04,5.44,1.66,6.4,2.1,1.94.89,3.01,2.67,5.37,2.85.08,0,.18,0,.3,0,1.27,0,4.4-.36,5.47-.49,1.64-.2,2.45-.86,4.12-.86.3,0,.62.02.98.07,2.91.39,5.81,3.64,8.29,4.15.44.09.89.12,1.35.12,1.58,0,3.28-.41,4.92-.41.59,0,1.17.05,1.74.2,1.12.29,4.42,2.82,5.34,3.71.84.82,2.21,3.2,2.87,3.63.41.27.92.35,1.47.35.87,0,1.85-.21,2.71-.21.07,0,.14,0,.2,0,1.23.05,3.97.24,5.02.63,2.4.91,3.3,3.43,5.21,4.71,2.73-1.04,5.54-1.91,8.27-2.93,1.45-.54,3.73-2.04,5.28-2.04.13,0,.26.01.38.03.86.17,1.71.86,2.7.99.33.05.67.06,1.01.06.55,0,1.1-.04,1.65-.04.47,0,.95.03,1.43.13,4.93,1.02,10.21,7,11.91,11.56.85,2.27,2.51,9.1,2.51,11.37,0,2.4-1.06,5.12-1.17,7.08-.06,1.1.45,1.67.56,2.56.29,2.5-.57,5.13-.82,7.62-.25,2.4-.28,2.89-.78,5.16-.68,3.03-.08,5.63-.4,8.06-.15,1.14-1.11,2.72-1.44,3.96-3.29,12.21,2.58,21.4,10.5,30.11,1.59,3.41-.21,4.37-2.6,4.37-.99,0-2.08-.16-3.08-.39-1.18-.26-2.35-1.06-3.6-1.06-.35,0-.71.06-1.07.22-.49.21-3.76,3.48-4.15,4.05-.95,1.36-.95,2.87-1.99,4.23-1.06,1.39-2.53,2.46-4.19,2.46-.52,0-1.06-.11-1.61-.34-.77-.33-1.28-1.2-2.13-1.26-.12,0-.23-.01-.34-.01-2.51,0-4.24,1.9-6.77,1.9-.83,0-1.74-.2-2.79-.74-1.62-.83-.41-4.56-1.53-4.56-.04,0-.08,0-.13.01-.96.21-2.69,6.08-2.96,7.23-.4,1.72-.8,3.58-.59,5.37.19,1.61,1.61,2.25,2.54,3.4,2.63,3.24,7.11,11.34,6.44,15.48-.27,1.66-1.76,3.82-1.92,5.15-.19,1.62-.18,5.73,0,7.36.38,3.37,3.74,5,5.94,7.07,5.62,5.27,9.71,10.89,15.27,16.12,1.31,1.23,2.72,2.52,3.4,4.23.49,4.5,4.7,11.87,4.15,16.07-.24,1.87-1.34,3.37-1.59,5.48-.67,5.76-1.19,9.82-2.66,15.44-1.33,5.06-4.48,9.73-8.55,12.95-.52.41-1.91,1.04-2.12,1.28-.43.48-.38,3.7-.26,4.51,1.23,8.34,3.82,16.64,5.27,24.99,1.25,7.19,2.04,16.07,2.36,23.39.27,6.28-.48,13.06-.02,19.26.17,2.32.45,2.98,1.01,2.98.59,0,1.51-.74,2.94-1.03.52-.11.95-.15,1.32-.15,1.41,0,1.94.64,3.38.86.36.06.74.08,1.14.08,1.05,0,2.2-.14,3.24-.14.44,0,.86.02,1.24.1.84.16,1.36,1.02,2.07,1.32,1.33.57,3.21.63,4.45,1.77.94,1.73,4.56,4.24,5.1,5.93.33,1.04.28,8.69.06,9.99-.29,1.75-2.33,5.28-4.43,5.28-.27,0-.53-.06-.8-.18-1.42-.67-.83-3.54-1.91-4.6h0c-.51,0-1,4.68-3.98,5.06-.3.04-.58.07-.85.07-.76,0-1.36-.24-1.68-1.16-.22-.62.17-1.44-.52-1.44-.01,0-.02,0-.04,0-2.34.09-5.93,3.82-8.23,3.96-.04,0-.09,0-.13,0-.65,0-1.26-.29-1.98-.29-.03,0-.07,0-.1,0-5.56.22-11.91,1.77-17.81,2-.63.02-1.26.04-1.89.04-3.49,0-7.02-.32-10.46-.32-.4,0-.8,0-1.2.01-3.18.08-3.75,4.9-4.93,7.24-2.04,4.06-7.95,10-12.48,11-1.33.29-3.05.17-4.38.43-2.66.53-4.91,1.48-7.8,1.68-1.24.09-2.69.12-4.15.12-1.71,0-3.44-.05-4.9-.12-9.64-.48-15.5-1.55-23.03-7.93-7.54-6.39-6.8-10.43-8.42-19.3-.46-2.54-3.51-3.06-5.76-3.29-.47-.05-.88-.07-1.24-.07-2.84,0-2.61,1.33-5.29,2.23-2.78.93-5.53,1.17-8.43,1.21-.35,0-.68,0-.99,0-.27,0-.53,0-.78,0-2.54,0-4.25.07-7.1,1.56-1.22.64-1.75,2.99-3.62,3.17-.08,0-.15.01-.22.01-2.16,0-2.18-3.29-3.8-3.29-.03,0-.07,0-.11,0-1.6.14-3.25,3.2-4.57,4.18-1.22.91-2.43,1.17-3.64,1.17-1.75,0-3.51-.56-5.28-.56-.88,0-1.76.14-2.65.55-1.01.47-1.51,1.48-2.59,1.65-2.33-.22-4.68-.29-7.02-.29-4.37,0-8.76.24-13.12.24-2.06,0-4.11-.05-6.15-.21-6.61-.52-7.28-3.3-11.93-5.6-1.39-.68-3.65-.87-4.87-1.64-2.68-1.68-7.33-10.32-8.63-13.43-1.3-3.11-2.33-8.79-3.76-11.23-.57-.97-2.81-2.08-3.74-3.33-2.42-3.26-3.07-6.15-2.51-10.15.22-1.62,1.6-3.73,1.62-4.83.02-1.04-.69-2.55-.8-3.69-1.23-12.83,2.37-23.2,8.62-34.09,2.28-3.97,5.7-7.28,7.73-11.22,1.25-2.44,1.98-5.16,3.11-7.64.98-2.16,2.4-4.16,3.29-6.32,2.37-5.78,3.6-13.18,5.6-19.29.74-2.26,2.01-4.56,2.76-6.85,3.02-9.24,5.24-18.75,8.62-27.87.95-2.56,2.13-5.06,3.18-7.57.34-1.98-1.74-3.69-2.71-5.36-2.16-3.7-3.33-8.72-1.61-12.82.87-2.06,2.88-3.72,3.87-5.75.39-.8.5-1.75.87-2.52,1.61-3.31,4.52-7.63,4.09-11.31-.46-3.92-2.94-7.32-2.76-11.66.12-2.99,1.92-5.08,2.89-7.6.44-1.14.68-2.52,1.07-3.74.13-.41,1.21-2.12.43-2.12h-8.76c-.62,0-2.2-1.11-2.47-1.77-.78-1.92,1.44-5.29,2.62-6.85,2.04-2.69,6.07-5.58,7.68-8.16,2.59-4.14,5.55-11.04,5.61-15.91.03-2.53.2-7.64,0-9.89-.11-1.15-.74-2.11-.86-3.38-.3-3.16.56-6.81.29-10.19-.33-4.21-2.92-8.04-4.38-11.75-.62-1.58-.35-10.81-.02-12.74.63-3.7,3.77-7.18,6.09-10.03,1.66-2.03,3.24-2.25,4.67-3.53.53-.48.78-1.33,1.27-1.84,2.14-2.24,4.91-1.07,7.35-1.98,1.34-.5,2.72-2.08,4.05-2.74,3.1-1.54,6.13-1.28,9.35-1.68C112.49.62,113.8,0,115.92,0M115.92-10c-2.39,0-4.19.41-5.5.7-.53.12-.91.21-1.24.25-.59.07-1.27.12-2,.17-2.75.19-6.53.46-10.58,2.48-1.37.68-2.45,1.5-3.28,2.16-2.43.12-6.99.53-10.88,4.6-.52.54-.93,1.08-1.26,1.56-1.32.78-3.27,2.04-5.19,4.4-.21.26-.43.52-.65.79-2.76,3.34-6.53,7.91-7.55,13.88-.02.12-1.43,12.98.56,18.07.58,1.49,1.23,2.84,1.86,4.15.83,1.73,1.77,3.68,1.85,4.73.07.88-.04,2.17-.15,3.54-.17,2.04-.36,4.34-.13,6.82.16,1.73.6,3.07.89,3.93.06,1.57,0,4.72-.03,6.33-.01.73-.03,1.39-.03,1.94-.03,2.02-1.76,6.99-4.05,10.67-.38.5-1.62,1.67-2.44,2.44-1.56,1.47-3.33,3.13-4.77,5.04-4.62,6.1-5.93,11.7-3.9,16.67,1.17,2.87,3.81,5.39,6.79,6.8-.36,1.26-.62,2.67-.68,4.23-.18,4.44,1.08,8.01,2.01,10.61.29.81.58,1.63.72,2.21-.3.93-1.23,2.68-1.81,3.77-.42.78-.85,1.59-1.25,2.41-.51,1.04-.81,2-.99,2.65-.17.22-.4.51-.58.74-1.02,1.28-2.41,3.03-3.4,5.38-2.75,6.54-1.93,14.66,2.19,21.73.12.2.23.39.35.57-.53,1.24-1.06,2.51-1.56,3.85-2.13,5.74-3.8,11.54-5.41,17.15-1.11,3.84-2.15,7.48-3.33,11.09-.22.68-.62,1.57-1.04,2.52-.56,1.28-1.2,2.73-1.73,4.33-.94,2.86-1.69,5.83-2.41,8.71-.93,3.69-1.81,7.17-2.93,9.9-.24.58-.71,1.4-1.2,2.28-.61,1.08-1.31,2.31-1.95,3.72-.64,1.41-1.15,2.79-1.59,4-.45,1.21-.87,2.36-1.3,3.19-.67,1.29-1.84,2.82-3.08,4.43-1.42,1.85-3.04,3.95-4.44,6.39-10.42,18.17-10.76,30.93-9.9,40.02.08.79.21,1.5.36,2.13-.45,1.13-.92,2.5-1.13,4.07-.92,6.66.48,12.21,4.39,17.48,1.11,1.49,2.41,2.58,3.45,3.37.29.91.62,2.09.85,2.92.59,2.1,1.2,4.27,2,6.19.06.14,5.96,13.89,12.53,18.03,1.99,1.25,3.99,1.76,5.45,2.13.19.05.43.11.61.16.63.34,1.16.74,1.91,1.3,2.44,1.82,6.13,4.58,13.37,5.15,2.1.17,4.37.25,6.93.25,2.32,0,4.61-.06,6.82-.13,2.18-.06,4.24-.12,6.29-.12,2.37,0,4.3.08,6.1.24l1.25.12,1.24-.2c2.09-.33,3.69-1.14,4.84-1.91,1.06.17,2.49.39,4.11.39,3.2,0,6.14-.86,8.74-2.55,1.2.35,2.35.48,3.37.48.4,0,.8-.02,1.2-.06,4.37-.43,7.05-2.89,8.52-4.67.28-.02.65-.02,1.22-.02h.36s.42,0,.42,0c.35,0,.72,0,1.11,0,3.06-.03,7.13-.26,11.49-1.72.1-.04.21-.07.31-.11,1.02,6.03,2.78,11.92,10.76,18.68,10.26,8.7,19.21,9.8,29,10.29,1.73.09,3.65.13,5.39.13s3.44-.05,4.83-.14c2.82-.19,5.1-.81,6.94-1.31.75-.2,1.41-.38,2-.51.18-.02.52-.03.78-.05,1.02-.05,2.41-.12,3.91-.45,8.6-1.89,16.44-10.65,19.26-16.27.28-.56.52-1.11.73-1.65.4.02.8.04,1.2.05,1.84.08,3.74.17,5.72.17.8,0,1.55-.01,2.29-.04,3.53-.14,6.93-.64,10.23-1.12,2.43-.36,4.74-.7,6.76-.83.62.12,1.49.25,2.52.25.25,0,.51,0,.76-.02,2.36-.15,4.41-.97,6.14-1.9,1.16.36,2.4.56,3.7.56.87,0,1.63-.08,2.12-.15.87-.11,1.71-.3,2.5-.56.95.24,1.92.36,2.91.36,8.2,0,13.38-8.13,14.3-13.62.2-1.18.77-11.03-.39-14.68-1.06-3.33-3.4-5.58-5.27-7.39-.27-.26-.64-.62-.89-.88l-.48-.89-1.24-1.13c-2.37-2.16-4.97-3-6.62-3.44-1.06-.77-2.69-1.7-4.83-2.1-.95-.18-1.95-.26-3.05-.26-.84,0-1.59.05-2.25.09-.17.01-.34.02-.51.03-.12-.04-.25-.09-.39-.14.02-.87.05-1.76.08-2.66.09-3.12.19-6.35.05-9.61-.38-8.77-1.29-17.76-2.49-24.67-.71-4.1-1.66-8.1-2.58-11.97-.87-3.69-1.71-7.21-2.31-10.65,5.03-4.51,8.67-10.43,10.36-16.85,1.6-6.08,2.19-10.56,2.9-16.64.06-.17.17-.47.26-.7.42-1.1,1.06-2.76,1.33-4.83.63-4.82-1.12-9.64-2.67-13.91-.54-1.49-1.35-3.73-1.46-4.53l-.15-1.35-.5-1.25c-1.47-3.72-4.02-6.11-5.7-7.7l-.14-.14c-2.43-2.29-4.61-4.74-6.93-7.34-2.55-2.87-5.19-5.83-8.36-8.8-.86-.81-1.7-1.47-2.44-2.05-.14-.11-.31-.24-.47-.37-.02-.9-.01-1.96.01-2.73.02-.05.05-.1.07-.15.63-1.34,1.48-3.18,1.84-5.4,1.05-6.55-2.56-14.05-5.41-18.75.18-.06.35-.13.51-.19,1.59.59,3.23.89,4.91.89,4.62,0,9.04-2.33,12.14-6.4.96-1.25,1.57-2.47,1.99-3.48,1.38.24,2.71.37,3.95.37,6.71,0,9.99-3.57,11.35-5.7,1.36-2.14,3.22-6.66.32-12.89l-.64-1.38-1.02-1.13c-7.81-8.59-10-14-8.29-20.59.06-.14.16-.37.23-.55.53-1.21,1.24-2.86,1.51-4.89.24-1.78.2-3.39.17-4.68-.02-1.04-.05-1.93.08-2.5.58-2.58.69-3.53.93-5.9l.04-.42c.05-.46.17-1.11.29-1.8.37-2.05.88-4.85.52-7.98-.07-.63-.19-1.2-.31-1.69.03-.14.06-.28.09-.4.38-1.65.9-3.92.9-6.41,0-4.19-2.24-12.41-3.14-14.85-2.72-7.28-10.38-16.01-19.25-17.85-1.09-.23-2.22-.34-3.47-.34-.25,0-.5,0-.74.01-.7-.3-1.63-.64-2.73-.85-.74-.14-1.51-.21-2.27-.21-3.4,0-6.23,1.4-8.11,2.33-.25.13-.59.29-.75.36-.67.25-1.36.49-2.06.74-1.14-.94-2.56-1.86-4.31-2.52-.74-.28-2.7-1.02-7.93-1.26-.28-.33-.58-.66-.9-.97-.05-.05-5.38-5.09-9.82-6.23-1.34-.35-2.73-.51-4.23-.51s-2.71.16-3.73.28c-.08.01-.17.02-.26.03-.14-.09-.27-.18-.4-.26-2.1-1.4-4.99-3.32-8.85-3.83-.78-.1-1.55-.16-2.29-.16-2.48,0-4.31.58-5.3.89-.07.02-.14.05-.21.07-.92.11-1.79.2-2.49.27-.77-.56-1.78-1.23-3.05-1.82-.06-.03-6.64-2.84-10.09-3.01-.24-.01-.48-.02-.73-.02-5.87,0-11.65,3.47-14.14,5.51-.03.03-.06.05-.1.08-1.28-.26-2.9-.53-4.81-.53-1.18,0-2.36.11-3.52.32-.89-.51-1.69-.87-2.29-1.13-.02,0-.03-.02-.05-.02-.03-.03-.06-.07-.09-.1-1.44-1.61-4.44-4.96-10.88-5.52-.64-.06-1.28-.08-1.9-.08h0Z"/></svg>