<?xml version="1.0" encoding="UTF-8"?><svg id="Layer_1" xmlns="http://www.w3.org/2000/svg" viewBox="0 0 300 360"><defs><style>.cls-1{fill:none;stroke:#231f20;stroke-miterlimit:10;stroke-width:.25px;}</style></defs><path class="cls-1" d="M177.3,359.88c-9.64-.48-15.5-1.55-23.03-7.93-7.54-6.39-6.8-10.43-8.42-19.3-.46-2.54-3.51-3.06-5.76-3.29-4.19-.41-3.51,1.15-6.53,2.17-2.78.93-5.53,1.17-8.43,1.21-3.63.04-5.41-.25-8.87,1.56-1.22.64-1.75,2.99-3.62,3.17-2.43.24-2.35-3.42-4.13-3.27-1.6.14-3.25,3.2-4.57,4.18-3.86,2.87-7.64-.67-11.56,1.16-1.01.47-1.51,1.48-2.59,1.65-8.74-.81-17.6.43-26.29-.26-6.61-.52-7.28-3.3-11.93-5.6-1.39-.68-3.65-.87-4.87-1.64-2.68-1.68-7.33-10.32-8.63-13.43s-2.33-8.79-3.76-11.23c-.57-.97-2.81-2.08-3.74-3.33-2.42-3.26-3.07-6.15-2.51-10.15.22-1.62,1.6-3.73,1.62-4.83.02-1.04-.69-2.55-.8-3.69-1.23-12.83,2.37-23.2,8.62-34.09,2.28-3.97,5.7-7.28,7.73-11.22,1.25-2.44,1.98-5.16,3.11-7.64.98-2.16,2.4-4.16,3.29-6.32,2.37-5.78,3.6-13.18,5.6-19.29.74-2.26,2.01-4.56,2.76-6.85,3.02-9.24,5.24-18.75,8.62-27.87.95-2.56,2.13-5.06,3.18-7.57.34-1.98-1.74-3.69-2.71-5.36-2.16-3.7-3.33-8.72-1.61-12.82.87-2.06,2.88-3.72,3.87-5.75.39-.8.5-1.75.87-2.52,1.61-3.31,4.52-7.63,4.09-11.31-.46-3.92-2.94-7.32-2.76-11.66.12-2.99,1.92-5.08,2.89-7.6.44-1.14.68-2.52,1.07-3.74.13-.41,1.21-2.12.43-2.12h-8.76c-.62,0-2.2-1.11-2.47-1.77-.78-1.92,1.44-5.29,2.62-6.85,2.04-2.69,6.07-5.58,7.68-8.16,2.59-4.14,5.55-11.04,5.61-15.91.03-2.53.2-7.64,0-9.89-.11-1.15-.74-2.11-.86-3.38-.3-3.16.56-6.81.29-10.19-.33-4.21-2.92-8.04-4.38-11.75-.62-1.58-.35-10.81-.02-12.74.63-3.7,3.77-7.18,6.09-10.03,1.66-2.03,3.24-2.25,4.67-3.53.53-.48.78-1.33,1.27-1.84,2.14-2.24,4.91-1.07,7.35-1.98,1.34-.5,2.72-2.08,4.05-2.74,3.1-1.54,6.13-1.28,9.35-1.68,2.4-.3,3.77-1.07,6.54-.83,3.9.34,3.74,2.42,6.37,4.09.99.63,2.3.97,3.36,1.73.76.55,1.56,1.88,2.49,2.06,1.03.2,1.87-.74,2.83-1.02,4.15-1.18,6.78.84,10.1.49,2.06-.21,2.43-1.56,3.81-2.69,1.84-1.51,5.61-3.35,8.02-3.23.87.04,5.44,1.66,6.4,2.1,1.94.89,3.01,2.67,5.37,2.85.98.08,4.6-.34,5.76-.48,1.93-.23,2.71-1.11,5.1-.79,2.91.39,5.81,3.64,8.29,4.15s5.42-.75,8-.09c1.12.29,4.42,2.82,5.34,3.71.84.82,2.21,3.2,2.87,3.63,1.12.73,2.95.09,4.38.15,1.23.05,3.97.24,5.02.63,2.4.91,3.3,3.43,5.21,4.71,2.73-1.04,5.54-1.91,8.27-2.93,1.58-.59,4.12-2.3,5.67-2,.86.17,1.71.86,2.7.99,1.34.18,2.71-.14,4.09.15,4.93,1.02,10.21,7,11.91,11.56.85,2.27,2.51,9.1,2.51,11.37,0,2.4-1.06,5.12-1.17,7.08-.06,1.1.45,1.67.56,2.56.29,2.5-.57,5.13-.82,7.62s-.28,2.89-.78,5.16c-.68,3.03-.08,5.63-.4,8.06-.15,1.14-1.11,2.72-1.44,3.96-3.29,12.21,2.58,21.4,10.5,30.11,2.24,4.81-2.26,4.75-5.68,3.98-1.52-.34-3.02-1.56-4.67-.84-.49.21-3.76,3.48-4.15,4.05-.95,1.36-.95,2.87-1.99,4.23-1.39,1.83-3.5,3.1-5.8,2.11-.77-.33-1.28-1.2-2.13-1.26-3.54-.24-5.49,3.4-9.91,1.15-1.68-.86-.31-4.84-1.66-4.55-.96.21-2.69,6.08-2.96,7.23-.4,1.72-.8,3.58-.59,5.37.19,1.61,1.61,2.25,2.54,3.4,2.63,3.24,7.11,11.34,6.44,15.48-.27,1.66-1.76,3.82-1.92,5.15-.19,1.62-.18,5.73,0,7.36.38,3.37,3.74,5,5.94,7.07,5.62,5.27,9.71,10.89,15.27,16.12,1.31,1.23,2.72,2.52,3.4,4.23.49,4.5,4.7,11.87,4.15,16.07-.24,1.87-1.34,3.37-1.59,5.48-.67,5.76-1.19,9.82-2.66,15.44-1.33,5.06-4.48,9.73-8.55,12.95-.52.41-1.91,1.04-2.12,1.28-.43.48-.38,3.7-.26,4.51,1.23,8.34,3.82,16.64,5.27,24.99,1.25,7.19,2.04,16.07,2.36,23.39.27,6.28-.48,13.06-.02,19.26.35,4.78,1.16,2.52,3.95,1.95,2.51-.51,2.88.43,4.7.71,1.71.26,3.98-.27,5.62.03.84.16,1.36,1.02,2.07,1.32,1.33.57,3.21.63,4.45,1.77.94,1.73,4.56,4.24,5.1,5.93.33,1.04.28,8.69.06,9.99-.33,1.97-2.88,6.2-5.23,5.09-1.42-.67-.83-3.54-1.91-4.6-.51,0-1,4.68-3.98,5.06-1.17.15-2.09.15-2.53-1.09-.22-.63.18-1.46-.56-1.44-2.34.09-5.93,3.82-8.23,3.96-.73.05-1.4-.32-2.21-.28-5.56.22-11.91,1.77-17.81,2-4.5.18-9.12-.38-13.55-.27-3.18.08-3.75,4.9-4.93,7.24-2.04,4.06-7.95,10-12.48,11-1.33.29-3.05.17-4.38.43-2.66.53-4.91,1.48-7.8,1.68-2.7.18-6.33.13-9.05,0Z"/></svg>