<svg width="100" height="100" viewBox="0 0 100 100" fill="none" xmlns="http://www.w3.org/2000/svg">
<rect width="100" height="100" fill="none"/>
<path d="M30.0728 49.345C30.9055 49.7783 31.7937 50.9235 28.685 52.0377C24.7991 53.4304 22.8561 74.8792 24.7066 74.5078C26.557 74.1364 29.7027 73.3007 31.0906 75.2506C32.2008 76.8105 36.5494 82.4002 38.5848 85L61.3452 83.6072C64.1209 81.9668 69.6907 77.999 69.7647 75.2506C69.8387 72.5022 69.7955 69.8342 69.7647 68.8438C70.9983 70.0199 73.8172 71.6665 75.2235 68.8438C76.6298 66.0211 75.8095 62.8394 75.2235 61.6014C75.3777 56.5564 75.094 46.4294 72.7254 46.2809C70.3568 46.1323 69.7647 43.7429 69.7647 42.5668C70.5666 42.1025 72.1148 40.9883 71.8927 40.2455C71.6706 39.5027 69.518 38.8837 68.4694 38.667L67.3591 34.303L69.7647 31.2389C68.1918 30.4961 65.0276 28.7876 64.9536 27.8962C64.8795 27.0049 64.1825 23.9965 63.8433 22.6037L59.5873 25.1107L56.7191 19.7253L54.036 22.6037L52.3706 23.2537C51.8463 19.6944 50.2611 12.8914 48.1146 14.1542C45.9681 15.417 45.4931 14.6804 45.524 14.1542C46.6034 16.816 48.2996 22.3623 46.4492 23.2537C44.5988 24.145 42.5941 24.8631 41.8231 25.1107C41.8539 23.7489 41.5825 21.0252 40.2502 21.0252C38.5848 21.0252 38.4923 24.4607 37.012 25.1107C35.5316 25.7607 37.1045 27.3391 32.4784 26.2249C27.8523 25.1107 31.4607 25.1107 30.0728 25.1107C28.9626 25.1107 29.6102 29.1962 30.0728 31.2389C29.9186 32.0746 28.87 34.1544 25.9093 35.7886C22.9486 37.4228 26.5262 38.3885 28.685 38.667V41.9168L24.7066 42.5668L28.685 47.0237C28.3458 47.7974 28.1484 49.345 30.0728 49.345Z" stroke="white" stroke-width="2" stroke-linejoin="round"/>
</svg>
