<?xml version="1.0" encoding="UTF-8"?><svg id="Layer_1" xmlns="http://www.w3.org/2000/svg" viewBox="0 0 300 360"><defs><style>.cls-1{fill:none;stroke:#231f20;stroke-miterlimit:10;stroke-width:.25px;}</style></defs><path class="cls-1" d="M47.43,46.4c3.09.88,6.46.31,9.65.44,4.74.2,9.36.95,14.06,1.37,11.07.98,22.24,1.12,33.36,2.27,4.32.45,8.61,1.48,12.94,1.81,4.88.37,9.91.44,14.75.66,4.37.2,4.45,1.21,7.9,3.01,4.54,2.38,12.1,5.46,17.26,4.93,1.36-.14,2.46-.82,3.72-1.05,3.54-.65,6.85-.8,10.33-2.16,1.48-.58,3.03-1.83,4.63-1.9,3.81-.19,7.84.34,11.62.47,9.25.31,18.35.04,27.62-.09,8.06-.11,17.66-.65,25.64-.02,1.12.09,2.45.67,3.41.7.8.02,1.88-.4,2.71-.42,1.52-.04,3.3.56,4.76.64,1.89.1,3.89-.42,5.91-.23s4.66,1.04,7.01,1.39c5.48.81,11.5,1.4,17.06,1.57,2.5.08,5.15-.09,7.7.22,1.5.18,2.35.52,3.52,1.47,1.33,1.07,5.93,6.68,6.33,8.2.47,1.79.11,3.77.71,5.54v2.95c-.77,1.88-.13,4.73-.85,6.53-.24.58-3.71,3.01-4.48,3.47-5.53,3.32-11.04,5.42-16.91,7.83-5.45,2.23-9.05,5.89-15.38,6.63-1.77.21-4.71-1.13-5.05,1.75-.21,1.79.72,2.78.11,4.66-.8,2.45-2.5,3.75-3.33,5.52-.54,1.13-.23,2.21-.69,3.17-.38.79-1.54,1.52-2.1,2.66-.52,1.06-1.94,4.23-2.23,5.26-.57,2.02-.79,4.67-1.5,6.67-1.45,4.04-2.66.9-4.02-.1-.71-.52-1.75-.5-2.51-.89-.72-.37-1.59-1.58-2.46-1.64-.42-.03-2.27.89-2.67,1.17-.97.7-.9,1.62-2.3,1.78-1.03.12-1.82-.22-2.72-.24-2.52-.05-7.49-.67-9.52-.43-2.52.3-2.63.03-4.79-.03-2-.05-4.36.73-6.8.46-2.06-.22-4.51-2.52-5.68-2.52-2.14,0-1.02,5.56-1.02,6.94,0,1.47-.17,2.88-.22,4.31-.36,10.48,1.08,21.93,2.04,32.46.25,2.76,1.01,5.29.9,8.17-.08,2.12-.81,4.24-.69,6.37.09,1.6.78,3.36.91,4.99.23,2.84,0,5.81,0,8.61-.01,4.07.89,3.93,1.72,7.16.51,1.98.3,4.13.71,6.1.47,2.25,1.77,6,2.46,8.44,4.1,14.41,8.72,26.02,15.28,39.43,1.27,2.6,3.29,5.08,4.44,7.36.63,1.25.65,2.42,1.54,3.68,1.91,2.71,2.95,2.69,4.16,6.51.6,1.89-.31,3.49-.35,5.33-.02.9.36,1.92.2,2.68-.24,1.13-1.41.97-2.17,1.48-1.98,1.33-.02,5.04-1.78,5.28-1.37.19-1.78-2.12-3.05-1.49-.97.48-1.9,5.45-2.85,6.69-1.65,2.16-4.61,1.07-6.8.92-4.79-.32-9.35-.44-14.05-1.61-3.24-.8-6.23-2.13-9.58-2.68-10.88-1.77-20.98-.33-31.73-.02-2.48.07-4.68-.52-7.04-.46-6.98.18-16.74,1.56-23.8,2.52-3.97.54-7.66,2.03-11.48,2.82-5.47,1.12-10.38.57-15.29,4s-5.62,6.08-12.29,6.77c-3.35.34-6.84.64-10.21.68-.38,0-1.01-.15-1.24.23h-5.45c-2.16-.74-2.42-3.32-2.51-5.33-.13-2.98,1.28-5.93-1.82-7.94-2.57-1.67-3.01,1.95-5.29.75-1.5-.78-1.65-3.12-1.48-4.6s2.35-8.42,2.98-9.96c.56-1.38,1.68-2.72,2.11-4.25.27-.98.21-2.12.56-3.08s1.6-2,2.24-2.98c1.31-2.02,2.89-5.13,4.02-7.33,5.41-10.49,9.83-21.38,13.85-32.46.76-2.1,2.14-4.5,2.76-6.54.69-2.27.75-5.26,1.35-7.73s2.62-7.02,2.58-9.22c-.02-.86-.42-2.03-.47-2.95-.34-6.39.91-13.83,1.86-20.18,1.97-13.08,5.03-26.71,4.95-39.99-.05-8.37-1.21-15.52.52-24,.37-1.82,1.94-3.2.1-4.31-1.56-.94-6.25-2.88-7.99-2.92-2.85-.07-6.45,2.76-9.54,2.97-2.19.15-3.75-1.27-5.67-1.32-2.86-.07-6.81.72-9.76.86-4.67.23-3.73-2-4.87-5.34-.42-1.24-2.43-6.44-3.29-6.93-1.88-1.07-7.28,1.4-10.5.29-3.77-1.31-8.05-4.88-11.34-7.05-2.33-1.54-5.27-2.82-7.34-4.69-5.06-4.58-6.18-11.61-14.39-11.69-1.62-.02-4.54.22-6.13.47-1.03.16-5.06,2.11-6.89,2.64-1.62.47-3.15,1.54-4.9.5C.95,88,.57,80.95,0,78.64c.03-.45-.04-.92,0-1.36.19-2.31.87-6.64,1.42-8.9,1.07-4.38,4.31-7.54,6.33-11.37.54-1.02.8-2.42,1.36-3.41,3.29-5.8,15.26-3.52,20.74-3.54,1.79,0,4.34-.03,6.09-.27,3.47-.47,5.21-2.97,8.54-3.38h2.95Z"/></svg>