<?xml version="1.0" encoding="UTF-8"?><svg id="Layer_1" xmlns="http://www.w3.org/2000/svg" viewBox="0 0 300 360"><defs><style>.cls-1{fill:none;stroke:#231f20;stroke-miterlimit:10;stroke-width:.25px;}</style></defs><path class="cls-1" d="M117.47,118.63l7.61.67c21.08,2.19,42.56,3.55,63.45,7.55,2.34.45,8.99,1.5,10.41,3.12.92,1.05.75,3.05.66,4.41-.45,6.83-4.25,15.22-4.41,21.7-.21,8.68,12.21,2.97,14.56,10.68v3.39c-.57,2.05-.37,4.33-.83,6.46-.57,2.64-2.45,6.27-4.4,8.13s-4.71,2.38-6.22,4.61c-3.17,14.83-10.66,27.17-19.24,39.35-1.64,2.33-4.82,7.03-6.87,8.71-2.77,2.27-7.1,2.93-10.45,3.93-1.23-.04-2.49.06-3.72,0-7.35-.37-15.09-1.3-22.48-2.03-2.48-.24-5.49.58-7.72-.73-.85-.5-1.45-1.54-2.28-2.12-2.79-1.99-4.76-2.1-6.57-5.28-1.74-3.05-3-7.06-4.61-10.3-3.77-7.6-8.61-14.39-10.33-22.86-.95-4.66-.78-9.27-1.49-13.76-1.04-6.62-7.11-3.95-10.25-8.36-2.1-2.96-2.29-12.12-1.88-15.74.3-2.68,3.92-8.12,6.68-8.57,3.64-.6,11.56,5.46,12.27-2.6s-1.87-17.24-.31-25.74c.57-3.14,1.84-4.22,5.03-4.61h3.38Z"/></svg>