<?xml version="1.0" encoding="UTF-8"?><svg id="Layer_1" xmlns="http://www.w3.org/2000/svg" viewBox="0 0 300 360"><defs><style>.cls-1{fill:none;stroke:#231f20;stroke-miterlimit:10;stroke-width:.25px;}</style></defs><path class="cls-1" d="M300,204.35c.02,1.25.06,2.62,0,3.86-.14,2.78-.37,5.65-.42,8.46-.08,4.04,1.03,7.41-2.88,9.8-7.52,4.6-23.48,2.27-32.5,2.53-3.11.09-5.62.25-8.79.21-4.83-.05-9.44,1.02-14.2.88-11.41-.35-22.95-1.17-34.36-1.3-3.03-.04-6.21.69-9.26.66-3.42-.03-7.98-.19-11.39-.43-2.79-.19-4.22-.68-4.77-3.6-.67-3.54-.74-9.35-.72-13.03,0-.69.7-5.81.67-6.44-.11-2.72-1.15-5.45.2-8.15,2.31-4.61,9.93-2.68,14.08-2.89,2.47-.13,5.06-.76,7.53-1.07,1.89-.24,3.93.23,5.68-.98,1.42-.99,2.96-4.14,1.84-5.67-1.32-1.8-6.63,0-7.32-3.64-.85-4.46,6.24-3.3,7.62-5.93.86-1.64-1.27-3.14-1.67-4.72-.44-1.76.19-3.34,2.05-3.86,1.03-.29,3.95-1.93,4.89-3.32,1.49-2.19-.66-3.04,2.59-6.64,3.43-1.95,6.48.58,10.14-1.89,2.44-1.64.53-4.99-.83-6.76-.69-.9-2.58-2.41-2.73-3.52-.07-.51-.15-1.15-.22-1.46-.03-.11.22-1.37.19-1.92-.17-2.61-1.83-4.79,1.22-6.72,2.43-1.53,5.1-1.1,7.69-1.1,3.97,0,14.15-.97,17.24.16,3.34,1.23,2.08,3.96,2.21,6.59.04.9.45,2.15.44,2.99-.03,2.43-3.02,4.34-2.77,7.26.09,1.08.87,2.58,1.84,3.11,2.88,1.58,5.48-2.3,8.23-.28,3.18,2.34.06,6.6,1.63,9.09,1.11,1.76,3.26.93,4.93,1.08,2.37.22,4.12,2.16,3.75,4.59-.49,3.2-7.5,3.84-5.44,8.25.52,1.12,1.69,1.91,2.33,2.82,2.7,3.86-1.85,11.04,5.6,11.78,3.4.34,8.97.18,12.47.01,4.28-.2,10.58-2.28,12.41,3.26.76,2.32.76,5.51.8,7.89Z"/><path class="cls-1" d="M0,205.42c.11-1.97.53-6.46,1.34-8.21,2.08-4.47,8.15-2.41,11.99-2.73l6.66-.43c2.88-.37,6.23-.28,9.03-.96,2.6-.63,4.09-2.42,4.07-5.15-.02-4.89-4.95-2.96-7.63-4.82s-2.42-5.79.53-7.19c2.25-1.07,6.24-.05,7.42-2.67,1.77-3.94-6.16-8.02-1.91-12.42,2.81-2.92,6.66,1.3,9.32-.35,4.27-2.66-3.91-8.68.43-12.44,4-3.46,8.02,5.08,12.47,3.01,2.08-.97,1.55-5.25,1.06-7.07-.53-1.97-2.15-2.58-2.99-4.3l-.22-.75c.57-2.69-1.52-7.45.1-9.66,1.91-2.62,9.67-1.96,12.69-2.14.83-.05,5.15-.79,5.45-.61.38.24,2.4-.03,2.4-.03,1.89-.12,3.74.32,5.58.64-.01.35,2.37,2.08,2.51,2.88s-.67,3.66-.78,4.74c-.12,1.15.14,2.44-.05,3.59-.31,1.84-2.26,3.08-2.5,5.22-.43,3.78,1.78,8.03,6.06,5.62.97-.54,1.6-1.52,2.4-2.11,2.96-2.18,5.87,1.21,5.7,4.19-.16,2.79-4.2,4.63-2.25,7.38s5.84,1.2,7.37,2.94.47,7.06,2.21,9.8c1.88,2.96,4.73,1.35,7.45,2,3.64.87,4.23,6.3,1.09,8.08-2.83,1.61-7.99-.08-6.27,5.45,1.95,6.24,6.46,5.03,11.55,4.97,3.57-.04,12.44-.49,15.31,1.04,4.79,2.54,2.57,8.78,2.42,12.79-.07,1.75.37,3.54.23,5.38-.15,2.05-1.44,4.23-1.31,6.01.08,1.19,1.09,2.47,1.46,3.7,1.04,3.55.81,8.26-3.05,9.92-3.41,1.47-10.02,1.21-13.75,1.27-9.18.15-18.33.77-27.51.88-12.16.14-24.21-.36-36.32-.66-4.86-.12-7.92.9-12.37,1.3h-2.58c-.22-.36-.82-.21-1.18-.22-6.39-.07-12.76.07-19.13-.43-1.37-.11-2.92-.59-4.29-.65-2.25-.09-4.81.88-6.85-.46-2.69-1.76-1.97-7.55-2.72-10.37L0,212.5c.09-2.35-.13-4.73,0-7.08Z"/></svg>