<?xml version="1.0" encoding="UTF-8"?><svg id="Layer_1" xmlns="http://www.w3.org/2000/svg" viewBox="0 0 300 360"><defs><style>.cls-1{fill:none;stroke:#231f20;stroke-miterlimit:10;stroke-width:.25px;}</style></defs><path class="cls-1" d="M156.35,359.79c-4.09.3-9.84.2-13.97,0-20.93-1.03-40.32-9.7-56.85-22.21-22.95-17.39-38.36-44.3-48.49-70.91-16.86-44.3-21.08-96.31,9.65-135.65,1.21-1.54,6.05-6.6,6.22-8.02.24-2.02-2.62-3.4-3.92-4.63-20.21-19.1-5.26-37.01,14.46-47.09,9.58-4.9,17.6-6.57,27.81-9.21,5.89-1.52,11.82-3.86,17.92-4.39s9.83-1.48,15.76-2.63c3.57-.69,6.52.4,8.01-3.76,1.3-3.64,2-9.22,2.55-13.14.55-3.91,2.03-13.33.82-16.69-1.31-3.65-7.05-3.2-9.61-5.84-3.6-3.7-2.27-7.35,1.73-9.79,10.28-6.25,24.69-7.34,36.06-3.75,5.66,1.79,15.52,5.88,9.75,13.29-2.21,2.83-6.19,2.66-6.61,6.38-.61,5.38.5,10.71,1.19,15.97.49,3.68.92,13.15,3.97,15.4,2.35,1.74,11.15,1.91,14.53,2.38,21.82,3.06,59.6,10.97,72.77,30.2,7.66,11.2,3.49,22.79-5.93,31.2-1.35,1.2-5.21,3.4-5.14,5.37.06,1.78,4.91,6.8,6.22,8.51,1.72,2.25,3.54,4.74,4.68,7.34,3.08,7.05,7.03,13.65,9.8,20.85s2.74,13.31,4.12,20.65c.48,2.57,1.71,4.68,1.91,7.41,2.51,34.09-10.55,71.38-26.19,101.09-9.69,18.4-25.62,40.74-43.2,52.17-3.95,2.57-10.7,7.34-14.69,9.09-7.3,3.21-14.19,6.75-22.05,8.35-4,.81-9.28,1.79-13.24,2.08Z"/></svg>