<?xml version="1.0" encoding="UTF-8"?><svg id="Layer_1" xmlns="http://www.w3.org/2000/svg" viewBox="0 0 300 360"><defs><style>.cls-1{fill:none;stroke:#231f20;stroke-miterlimit:10;stroke-width:.25px;}</style></defs><path class="cls-1" d="M300.06,178.67v1.16c-.38.24-.23.88-.24,1.27-.24,22.43-5.83,42.88-15.37,62.99-.92,1.95-2.41,5.69-3.4,7.24-26.26,41.35-70.36,74.04-121.01,75.26l-6.35.47h-6.47c-.24-.38-.88-.23-1.27-.24-18.85-.2-35.3-3.19-52.61-10.5-12.64-5.34-25.16-12.39-36.04-20.83-7.26-5.64-14.6-13.5-20.84-20.31C18.12,255.12,3.27,221.84.87,194.73c-.42-4.7-.04-9.05-.46-13.87-.12-1.37.13-2.95-.46-4.27v-2.54c.74-1.4.35-3.01.46-4.5.79-9.92,2.24-19.72,4.92-29.29,1.35-4.84,3.23-9.42,4.84-14.11,1.32-3.85,4-7.4,5.5-11.37,1.94-5.14,2.84-8.2,5.59-13.13,1.9-3.41,4.17-8.15,6.44-11.13,5.46-7.2,13.11-14.54,19.87-20.58,5.18-4.63,10.92-8.41,15.96-13.16,3.92-3.7,4.77-2.88,9.17-4.93s9.5-6.04,14-7.5c3.75-1.22,7.7-2.12,11.46-3.34,1.5-.49,2.93-1.37,4.44-1.8,3.36-.96,7.01-.96,10.41-1.84,3.97-1.02,6.01-2.28,10.51-2.66,16.92-1.43,38.35-3.42,54.83.89,1.22.32,2.73,1.2,3.72,1.36,3.72.62,7.29.74,11.03,1.69,28.43,7.25,57.4,26.49,75.73,49.1,19.96,24.61,30.93,58.73,30.98,90.38l.24.56Z"/></svg>