<?xml version="1.0" encoding="UTF-8"?><svg id="Layer_1" xmlns="http://www.w3.org/2000/svg" viewBox="0 0 300 360"><defs><style>.cls-1{fill:none;stroke:#231f20;stroke-miterlimit:10;stroke-width:.25px;}</style></defs><path class="cls-1" d="M177.24,57.23l2.51.45c3.81,1.8,8.38,1.89,12.22,3.23,2.19.77,2.76,2.47,2.92,4.66.2,2.67.07,5.38.28,8.14.19,2.58-1.19,3.01-1.48,4.86-.78,4.99,5.4,10.29,6.97,15.04,1.04,3.16-.63,4.31-.92,7.16-.34,3.38,3,9.29,3.91,13.03,1.38,5.61-.24,10.67.21,16.21.16,1.98,1.17,3.79,1.61,5.7.62,2.67.46,5.65,1.45,8.21.85,2.19,2.52,3.79,3.21,6.17s.37,4.7,2.87,6.24c2.71,1.66,4.65,1.01,5.68,4.8.84,3.09,1.31,6.3,1.72,9.45.55,4.21,3.94,6.45,6.62,9.24,1.81,1.89,3.27,4.03,4.96,5.94,2.32,2.64,5.02,3.28,6.83,6.83.96,1.87.82,3.28,1.38,5.1.78,2.55,3.3,6.84,4.8,9.13,1.27,1.94,2.66,2.86,2.85,5.43.24,3.25-.69,5.69.58,8.94.91,2.33,2.6,3.85,4.75,5.04,3.13,1.73,6.34.39,9.63.58,3.5.2,3.13,2.37,3.38,5.03.05.56.24,1.24.27,1.8.17,3.21-.54,5.68.04,9.07.92,5.36,3.71,7.3,3.27,13.56-.27,3.85-1.86,4.28-3.47,7.15-1.3,2.31-1.86,5.23-3.57,7.33-1.29,1.59-5.51,4.51-7.53,4.75-2.23.26-4.4-1.09-6.26-.33-.79.32-1.67,1.11-2.48,1.52-2.04,1.04-3.44.95-5.55,1.35-3.18.59-6.86,1.36-10.11,1.21-1.2-.06-2.62-.69-3.72-.71-.67,0-1.54.25-2.21.29-2.34.11-4.18-1.06-6.48-.83-2.14.21-3.11,2-4.55,3.31-3.13,2.85-6.96,4.75-10.27,7.25-1.03.78-1.82,1.77-2.95,2.43-1.66.96-3.1,1.09-4.81,1.67-1.85.63-2.15,1.52-3.57,2.5-2.12,1.47-4.99,1.23-7.46,1.78-.75.17-1.48.48-2.23.67-.99.24-2.15.29-3.08.65-1.5.58-2.6,2.69-4.23,3.5-3.49,1.73-9.9-.77-13.82-.99-3.42-.19-7.12.34-10.63.14-2.39-.14-4.39-.74-6.9-.7-2.11.03-4.6-.14-6.61,0-5.39.38-10.46,1.71-16,1.38-1.79-.11-3.59-.61-5.37-.69-2.8-.14-6.85.74-9.43.05-.65-.17-1.3-.63-1.92-.84-1.69-.57-4.2-.28-6.04-.3-7.52-.07-14.94,1.83-22.48,2.2l-4.07.69c-.5-.02-1.02.03-1.52,0-1.63-.11-3.36-.6-5.03-.7-4.83-.28-14.9,1.87-17.18-3.79-.89-2.2-1.82-4.91-2.62-7.18-1.15-3.26-2.5-9.3-2.2-12.7.13-1.49,1.12-3.01-.68-4.01s-3.75-.62-5.32-2.27c-1.83-1.92-4.28-9.13-4.33-11.79s.54-4.5,1.06-6.95c.27-1.3-.07-2.07-.11-3.27s.12-2.47,0-3.58c-.3-2.57-2.67-4.28-3.39-6.82-.81-2.82-.62-9.75.58-12.45,1.01-2.27,4.58-5.29,6.74-6.51,2.27-1.28,5.12-1.58,4.92-4.87s-1.56-8.5-.87-11.78c.56-2.67,2.53-7.18,2.24-9.74-.08-.7-.42-1.5-.52-2.24-.22-1.54-.25-3.68-.16-5.23.13-2.2,1.11-4.72.63-6.83-.24-1.04-.83-2.08-1.11-3.17-.24-.94-.3-1.97-.55-2.9-.28-1.08-.86-2.07-1.18-3.1-.88-2.83-.15-8.63.6-11.56,1.42-5.58,2.6-9.07,1.74-15.06-.54-3.77-2.56-5.56-1.01-9.61,1.72-4.51,3.16-5.41,2.97-10.84-.13-3.67-.38-7.35-.14-11.03.13-1.97.75-2.81,1.18-4.48.54-2.11-.53-3.55-.5-5.46.02-1.1.67-2.06.8-3.07.26-1.99-1.24-6.07-1.58-8.29-.52-3.38-.3-7.03-.45-10.45-.1-2.18-.67-3.61.2-5.86.64-1.64,1.64-1.96,2.76-3.03,1.24-1.19,3.01-3.66,4.36-4.34,1.57-.79,3.34-.41,4.87-1.07,2.09-.89,1.9-3.14,4.86-3.56,1.71-.24,3.6-.23,5.35-.45,2.48-.31,4.97-.94,7.47-1.09,2.76-.16,5.52.29,8.28.14s5.39-.61,8.13-.7c11.54-.4,23.19-.28,34.63-1.65,1.34-.16,2.81-.48,4.13-.56,4-.24,8.19.41,12.29.29,1.24-.04,2.61-.39,3.86-.29,1.63.13,3.3,1.23,4.96,1.38s5.11,0,6.76-.13c2.46-.19,3.5-1.89,5.83-2.31,3.55-.65,8.9-.53,12.58-.59h.97Z"/></svg>