<?xml version="1.0" encoding="UTF-8"?><svg id="Layer_1" xmlns="http://www.w3.org/2000/svg" viewBox="0 0 300 360"><defs><style>.cls-1{fill:none;stroke:#231f20;stroke-miterlimit:10;stroke-width:.25px;}</style></defs><path class="cls-1" d="M259.94,228.12v2.19c-.21.13-.13.49-.13.71-.03,3.31-.21,6.62-.13,9.94l.26,2.9c-.01.43.02.86,0,1.29-.2,4.62-.88,9.36-1.16,14-.06,1.04.11,2.22,0,3.23-.13,1.22-.81,2.47-.91,3.87-.15,2.08.5,3.84.4,5.82-.09,1.6-.5,3.27-.53,4.89-.03,2.06.4,4.16.52,6.2.34,5.68.09,11.39-.28,17.03-.12,1.76-.68,3.05-.88,4.65-.17,1.43-.3,3.31-.39,4.77-.13,2.19.27,6.53-.8,8.24-1.98,3.16-4.08,1.15-6.64.75-1.5-.23-3.73-.33-5.28-.4-3.86-.17-8.3.95-12.1.35-.92-.15-1.81-.53-2.75-.61-3.28-.28-6.31.7-9.55.51-.51-.03-1.01-.28-1.55-.27-.73.01-1.54.39-2.32.4-2.58.06-5.18-.12-7.75-.26-3.52-.2-6.98.21-10.59.13-5.62-.13-11.17.02-16.78.13s-11.15-.06-16.53.39c-1.21.1-2.51.49-3.74.52-2.32.05-4.45-.76-6.72-.91-3.71-.24-7.53-.07-11.24-.12-4.3-.06-8.58,0-12.91.12-.84.02-1.86.24-2.7.27-3.2.12-6.45-.48-9.69-.27-1.53.1-2.99.67-4.51.78s-2.92-.21-4.39-.13c-1.8.09-3.61.56-5.41.66-3.34.17-6.63-.32-9.94-.4-4.73-.11-9.65.53-14.34.27-1.94-.11-3.8-.78-5.68-.91-2.96-.2-6.17.09-9.17,0-6.64-.2-13.23-1.5-19.87-1.56-.88,0-2.89.43-3.49-.26-.49-.56.26-3.06.32-3.93.17-2.43.16-5.42,0-7.87-.14-2.13-.64-3.8-.52-6.07.14-2.68.45-5.29.52-8,.15-5.85.12-11.78.27-17.67s-.28-11.91.13-17.81c.19-2.77.77-5.46.64-8.26-.18-4.04-.02-8.06.14-12.13.23-6.08,1.14-11.79,1.42-17.81.2-4.29-.82-8.48-.25-12.89.14-1.07.55-2.18.63-3.24.12-1.55-.33-3.04-.27-4.53.04-.93.34-1.89.4-2.83.29-4.67.04-9.67,0-14.32-.05-5.87-1.06-11.75-.79-17.56.11-2.28.66-4.56.78-6.83.33-6.2.13-13.28-.26-19.48-.09-1.5-.44-3.01-.52-4.51-.23-4.57.13-9.25.14-13.81,0-5.74-.18-11.43-.13-17.16.02-2.66-.58-4.99-.66-7.48s.29-5.01.27-7.5c-.01-2.06.16-3.54.26-5.54.26-5.38-.76-10.48-1.41-15.77-.31-2.48-.64-4.83-.4-7.34.13-1.4.5-2.53.39-4.01-.07-.94-.41-1.89-.52-2.84-.24-2.08-.56-6.51,1.3-7.86s7.51-1.32,10-1.36c2.23-.03,4.81.29,6.97.13,2.41-.18,4.03-.75,6.71-.66s6.55.07,9.1.58c1.38.28,2.7.85,4.1,1.06,5.37.81,10.86.2,16.24.42,1.27.05,2.69.52,4,.65,3.68.35,7.42.03,11.1.26,2.63.17,4.27.76,7.1.51,3.36-.29,6.41-.62,9.81-.77,4.42-.2,9.46-.69,13.81-.39,3.28.23,6.08.51,9.43.52,3.53.01,7.03.13,10.58.26,2.03.07,4.01-.29,5.94-.27,1.49.01,3.08.54,4.52.65,3.4.26,6.92-.49,10.32-.52,7.2-.06,14.48.12,21.7-.25,2.91-.15,5.85-.65,8.77-.78,9-.41,17.96.19,26.99-.51,1.26-.1,2.46-.46,3.74-.38,1.01.06,2.1.46,3.1.52,2.61.14,7.32-1.04,9.37.83.42.39.82,1.06.97,1.61.19,2.96,1.28,6.27.95,9.22-.12,1.1-.79,2.19-.89,3.37-.11,1.3.28,2.68.26,4.01-.03,1.97-.33,3.87-.27,5.94.19,6.02.17,12.02.39,18.06.19,4.98.65,9.99.78,14.97.19,7.68-.39,15.33-.27,22.97.04,2.72.69,6.18.53,8.66-.35,5.39-1.57,10.53-1.3,16,.2,4.02,1.2,8.17,1.04,12.25-.23,5.69.48,10.26,1.05,15.86.26,2.52.27,3.42.11,5.95-.3,5.01-.13,9.97,0,14.96.05,1.8.55,3.63.65,5.42.34,5.89,0,12.4-.01,18.32,0,2.71.31,5.42.39,8.07Z"/></svg>