<?xml version="1.0" encoding="UTF-8"?><svg id="Layer_1" xmlns="http://www.w3.org/2000/svg" viewBox="0 0 300 360"><defs><style>.cls-1{fill:none;stroke:#231f20;stroke-miterlimit:10;stroke-width:.25px;}</style></defs><path class="cls-1" d="M160.7,322.47c-2.49.11-5.4.08-7.91,0-15.31-.51-34.34-3.77-47.57-11.88-19.43-11.91-22.88-37.59-20.28-58.47,3.04-24.36,14.97-46.48,24.22-68.74,1.48-3.57,3.03-7.13,4.55-10.67.46-1.06.68-2.35,1.23-3.39.62-1.17,1.65-2.17,2.22-3.45s.88-2.9,1.39-4.28c1.03-2.74,2.51-5.41,3.68-8.11,4.36-10.1,7.68-21.24,9.2-32.14.96-6.85.01-13.69.18-20.56.25-10.01.79-20.77,0-30.75-.18-2.19-.74-1.82-1.94-3.13-1.69-1.85-2.78-3.34-2.13-6.02.3-1.23,1.81-1.73,1.82-2.49.01-.9-1.82-4.23-2.51-4.94-1.84-1.87-5.4-1.72-7.47-3.42-1.62-1.34-2.09-3.52-.28-4.91,1.07-.82,7.1-3.15,8.45-3.33,3.65-.49,7.83-.2,11.43-.8,1.52-.25,2.87-1.15,4.36-1.31,11.36-1.18,21.26-4.14,32.54-.36,3.9,1.31,8.43,3.38,10.4,7.2,3.13,6.07-2.56,12.68-7.78,15.2-.99.48-3.42,1.16-4.09,1.73-.74.63-.64,2.06-1.16,3.02-.64,1.19-2.12,1.83-2.35,3.17-.55,3.15.28,7.42-.07,10.68.79,10.01,1.14,19.95.89,29.99-.18,7.15,1.65,10.06,3.51,16.5,2.27,7.86,4.48,15.18,7.7,22.74,4.39,10.31,9.14,20.55,13.11,31.06,1.45,3.84,2.13,7.24,3.24,11.09,1.36,4.69,3.3,9.46,4.82,14.14,8.8,27.04,18.91,60.26,4.4,87.09-5.84,10.8-15.86,21.41-27.74,25.37-2.09.7-2.17.37-4.18.3-2.47-.09-6.69.63-8.97,1.61-1.77.76-2.48,1.93-4.6,2.11-.73.07-1.61.12-2.31.15Z"/></svg>