<?xml version="1.0" encoding="UTF-8"?><svg id="Layer_1" xmlns="http://www.w3.org/2000/svg" viewBox="0 0 300 360"><defs><style>.cls-1{fill:none;stroke:#231f20;stroke-miterlimit:10;stroke-width:.25px;}</style></defs><path class="cls-1" d="M94.43-.03c1.2.51,2.27,1.1,3.23,2,3.72,3.45,7.01,8.5,10.68,12.26,12,12.29,28.79,19.85,45.31,23.96,10.15,2.52,20.95,4.36,31.37,1.95,7.54-1.74,22.1-5.64,26.86-11.9,1.36-1.78,2.14-4.79,2.35-7,.17-1.78-.83-4.91,2.08-3.41,5.24,2.71,8.69,9.7,10.23,15.16.8,2.81,1.71,7.05,2.28,9.97,1.2,6.14.89,14.25.99,20.62.1,6.23.5,12.45.69,18.69.33,10.9-.41,22.39.2,33.21.37,6.43,1.62,13.33,2.24,19.82,3.01,31.94,5.18,64.39,5.8,96.45.25,13.06.05,26.14.21,39.22,0,.38-.14.99.23,1.22v12.25c-.37.23-.22.85-.23,1.22-.12,11.45-.45,22.9-1.56,34.31-.15,1.55-.51,6.08-1,7.24-.67,1.6-2.06,1.37-3.31,2.04-.88.47-1.84,1.55-2.75,2.15-2.47,1.62-3.19,1.74-5.53,3.83-1.96,1.75-2.87,1.36-4.94,2.19-3.67,1.46-7.72,4.45-11.7,5.67-2.18.67-4.61.97-6.85,1.61-17.34,4.94-31.08,9.62-49.33,11.7-11.07,1.26-26.48,2.52-37.41,1.11-2.77-.36-5.65-1.79-8.3-2.17-3.26-.47-1.89,1.67-3.17,3.4-.5.68-1.11.81-1.78,1.22-1.86-.14-3.96.19-5.79,0-1.55-.16-3.48-.96-5.08-1.27-8.1-1.57-16,.57-24.2-.07-1.45-.11-2.76-.13-3.24-1.66s-.39-6.13-.43-8.03c-.31-15.02-.78-30.16-1.11-45.23-.71-33.02-1.2-66.14.43-99.13,1.31-26.43,2.61-52.89,3.79-79.31,1.13-25.39,3.89-49.86,6.46-75.07.22-2.12.21-4.33.45-6.46.59-5.27,1.9-10.82,2.22-16.04.2-3.28-.1-6.96.25-10.22.24-2.2,1.21-2.64,2.16-4.3,2.53-4.47,4.33-8.91,9.4-11.09,2.22-.95,4.68-1.2,6.9-2.12h.89Z"/><path class="cls-1" d="M90.98,92.2c-.73.17-.59,3.65-.57,4.35.39,16.76.83,33.57.89,50.33.07,20.45.92,40.86,1.58,61.26.08,2.39-.28,5.31-.01,7.59.07.61.24,1.31,1,1.23.84-.09,1.12-1.57,1.35-2.24,4.54-13.39,6.02-26.81,6.8-40.88,1.46-26.39.23-53.43-9.19-78.36-.23-.6-1.16-3.44-1.84-3.28Z"/><path class="cls-1" d="M208.66,132.08c-.06-.04-.57-.04-.64,0-.29.18-1.39,5.82-1.51,6.62-.89,5.93-1.93,13.62-2.29,19.54-.23,3.82.25,7.74.23,11.59-.05,7.22-.92,11.16.9,18.46,2.39,9.63,5.16,19.09,7.26,28.82.94,4.33,1.51,9.41,2.71,13.55.13.43.19,1.02.7,1.19.25-3.25-.48-6.47-.66-9.69-.7-11.93-1.17-23.94-1.57-35.85-.47-14.04-1.35-27.49-3.14-41.42-.2-1.57-1.44-12.48-1.99-12.83Z"/></svg>