<?xml version="1.0" encoding="UTF-8"?><svg id="Layer_1" xmlns="http://www.w3.org/2000/svg" viewBox="0 0 300 360"><defs><style>.cls-1{fill:none;stroke:#231f20;stroke-miterlimit:10;stroke-width:.25px;}</style></defs><path class="cls-1" d="M136.53,88.59c3.73.07,9.38,1.21,12.93,2.51,2.8,1.02,5.06,2.8,8.2,2.15,1.33-.28,2.66-.95,3.99-1.33,10.73-3.07,22.71-.42,32.17,5.07,5.82,3.38,12.12,7.29,17.41,11.41,2.55,1.99,3.44,3.17,6.73,4.21,4.74,1.49,8.27,1.21,12.93,1.85,2.43.33,1.62,1.84,2.74,2.87.39.36,1.59.77,2.11,1.14,1.17.85,1.22,3.18,1.65,4.56,2.04,6.5,7.78,8.81,12.83,12.44,8,5.74,15.94,16.24,18.5,25.83,1.51,5.64,1.43,12.69-.74,18.17-.74,1.86-3.31,5.11-3.32,6.87,0,1.49,1.51,3.87,2.07,5.32,1.9,4.92,2.05,8.32-.13,13.18-2.69,6-7.09,13.6-12.39,17.6-3.97,2.99-8.49,5.87-12.6,8.68-3.05,2.08-6.76,4.76-9.47,7.23-2.18,1.98-3.22,3.7-4.46,6.33-.36.76-.79,2.59-1.42,3.01-2.81,1.86-8.32,2.68-11.67,3.7-5.46,1.66-13.32,4.73-18.16,7.7-2.13,1.31-3.83,3.05-6.25,4.39-7.56,4.16-19.21,8.37-27.87,7.91-4.79-.25-6.92-1.79-11.07-3.11-3.38-1.07-5.54.11-8.77.69-8.31,1.51-15.9,1.07-23.97-1.36-2.91-.87-5.69-2.25-8.6-3.07-2.27-.64-3.36-.9-5.59-1.8-10.32-4.17-20.05-7.47-27.85-15.89-.62-.67-1.16-1.56-1.77-2.22-3.07-3.3-7.8-5.07-12.05-6.28-2.29-.65-7.26-1.41-9.01-2.67s-.14-4.21,0-6.04c.28-3.93-3.07-9.54-5.55-12.49-2.2-2.63-4.81-4.99-6.93-7.7-4.78-6.1-8.23-17.5-9.77-25.1-.99-4.9-1.76-9.07-.41-14,1.28-4.65,2.96-7.33,6.24-10.75,1.56-1.63,3.53-1.87,3.24-4.56-.49-4.5-1.56-7.42.28-12.01,2.18-5.42,6.15-11.31,11.21-14.35,6.87-4.13,14.64-3.36,19.82-10.47,1.5-2.05,2.87-4.97,3.5-7.43.32-1.23.45-3.85,1.25-4.66,2.08-2.11,8.24-.53,11.01-.51,6.83.05,9.89-3.79,14.96-7.37,6.25-4.41,10.5-6.69,18.17-7.98,4.61-.77,10.69-1.64,15.27-1.65.2,0,.4,0,.59,0Z"/></svg>