<?xml version="1.0" encoding="UTF-8"?><svg id="Layer_1" xmlns="http://www.w3.org/2000/svg" viewBox="0 0 300 360"><defs><style>.cls-1{fill:none;stroke:#231f20;stroke-miterlimit:10;stroke-width:.25px;}</style></defs><path class="cls-1" d="M138.45,330.41c-1.06-.13-4.53-2.09-5.26-2.9-.56-.62-1.18-2.68-1.92-3.01-.35,1.28-3.42,5.19-4.52,5.35-2.48.37-1.76-4.27-2.8-4.51-6.5,5.7-16.06,3.31-20.06-4.13-1.02-1.91-.96-3.61-1.17-5.72-.25-.25-3.45,1.88-4.21,2.12-4.25,1.3-11.47.37-14.12-3.61-1.32-1.99-.95-3.59-1.35-5.82-1.05.36-1.83,1.48-2.97,1.67-.82.14-4.8.13-5.46-.14-2.01-.81-7.04-7.24-7.04-9.27v-4.5c0-.07-.26-.42-.56-.29-.63.27-1.62,1.29-2.61,1.61-3.97,1.31-7.35-.02-10.04-3.02-1.04-1.17-4.79-6.54-4.79-7.87v-4.5c0-.72-2.05.11-2.66.15-4.48.33-8.64-1.22-10.67-5.39-1.81-3.73-.56-3.46-.19-6.61.31-2.67-1.1-1.51-2.87-1.87-2.33-.47-6.19-4.56-7.01-6.77-1.24-3.3-.41-4.12-.22-7.1.17-2.72-.97-1.52-2.88-1.89-8.3-1.62-12.66-10.82-6.55-17.38.52-.56,2.09-1.16,1.84-2.09-.11-.39-2.14-.73-2.8-1.15-3.04-1.96-4.3-5.2-3.96-8.72.07-.76.92-4.41,1.2-4.99.45-.95,3.01-2.54,2.74-3.42-.04-.14-1.94-1.21-2.38-1.57-1.56-1.31-3.41-3.37-3.9-5.39-.33-1.36-.4-5.72-.18-7.11.14-.88.69-1.18,1.11-1.84-3.73-.15-9.04-4.35-9.54-8.04-.69-5.04.67-7.87,4.78-10.64.6-.4,2.97-1.47,3.05-1.75.23-.79-1.98-2.35-2.52-3.06-3.18-4.15-1.82-10.71,2.27-13.76.6-.45,3.54-1.79,3.62-2.02.34-.99-.9-1.53-1.35-2.26-2.35-3.83-.99-8.01,1.66-11.2.96-1.15,2.42-2.76,3.93-2.97.06-.68-.7-.98-1.08-1.59-3.1-5.04-3.58-12.75,2.11-16.08.91-.53,4.19-1.3,4.3-1.63s-1.52-3.2-1.76-4.11c-1.93-7.25,4.13-14.45,11.62-13.73-.29-1.01-1.26-1.63-1.74-2.62-.94-1.92-1.34-4.66-1.05-6.78.69-5.02,8.31-9.74,13.2-8.04,0-3.41-.51-5.49,1.7-8.29,2.46-3.13,6.22-4.46,10.12-3.8-2.11-7.09,1.99-12.78,9.27-13.23-.91-7.06,2.72-14.52,10.83-13.19.94.15,3.11,2.14,2.95-.39-.17-2.68-.96-3.28.24-6.29,1.8-4.48,6.61-5.58,11.04-4.74,1.54.29,4.06,2.72,4.31,2.67.84-.15,1.3-2.7,1.65-3.43,2.18-4.45,8.02-6.2,12.5-4.21,1.12.5,1.61,1.44,2.41,1.81,1.77.82,1.29-.47,1.94-1.57,2.51-4.22,7.88-4.79,12.11-2.91,1.51.67,2.87,2.96,4.31,3.04s2.85-2.55,4.76-3.14c1.5-.46,5.33-.39,6.73.33,1.07.55,2.08,2.89,3.12,2.79.72-.07,2.12-2.54,3.14-3.07,1.57-.83,5.8-.79,7.49-.24,1.32.43,2.55,2.2,3.45,2.2,1.16,0,1.46-1.23,2.14-1.83,3-2.65,8.1-1.26,10.86,1.18,2.78-.06,5.47.36,8.17.97.51.51.45,7.33.35,8.51-.26,2.75-1.12,2.84-3.78,2.97-2.46.12-4.44-.28-4.66-3.1-1.31.4-1.94,1.86-3.23,2.54s-4.74.81-6.14.5c-1.22-.28-1.95-2.3-3.12-1.89-.28.1-.92,1.6-1.31,2.08-3.57,4.51-10.93,3.67-13.22-1.54-.78-.19-.72.9-1.11,1.55-1.17,1.96-1.94,2.98-4.37,3.22-1.27.13-3.66.13-4.87-.19-1.45-.37-3.35-2.6-3.84-2.62-1.03-.03-1.73,1.83-2.96,2.39-2.87,1.3-7.24,1.73-10.13.28-1.12-.56-1.74-2.03-2.94-1.85-.97.15-1.08,2.14-1.72,3.09-2.01,3-7.03,4.7-10.44,3.45-.97-.35-4.16-2.85-4.57-2.57-.28.19-1.04,3.5-1.57,4.2-.84,1.12-4.48,3.5-5.9,3.67-.82.1-2.85.1-3.65-.02-.75-.12-1.36-.78-2.01-.83-1.43-.1-.64.94-.74,1.74-.43,3.55-1.55,5.81-4.31,8.09-.81.67-4.1,2.31-4.21,2.53-.52,1.03.17,2.2.15,3.23-.03,1.59-.85,4.86-1.64,6.26-.65,1.15-4.01,4.02-5.26,4.02h-5.49c.19,1.51.77,2.46.57,4.09-.36,2.94-4.33,8.29-7.46,8.29h-4.36c.15,4.17.28,8.2-2.82,11.39-2.24,2.31-5.29,2.99-8.44,2.68.13,1.49,1.17,2.63,1.56,4.21.96,3.94-.52,9.21-3.83,11.66-.72.53-3.47,1.63-3.6,2.04-.44,1.34,1.94,3.37,2.2,5.03.31,1.97.18,6.23-.68,8.01-1.43,2.98-3.34,3.24-5.69,4.71s1.14,3.02,1.75,4.83c1.43,4.2.82,10.05-3.62,12.15-.56.27-2.32.54-2.44.95,3.62,6.79.36,15.54-7.6,16.72.67,1.27,2.17,1.66,3.09,2.67,1.2,1.32,2.56,5.29,2.56,7.03,0,1.6-1.3,3.42-.87,5.2,9.54-.21,12,12.65,5.35,18.14.65.99,1.82,1.17,2.67,1.83,3.64,2.84,5.57,10.89,2.54,14.63-.44.54-3.07,2.27-2.68,2.8,2.54.75,5.62,4.61,5.91,7.18.27,2.39-.35,4.85,0,7.17h4.08c3.78,0,7.66,7.49,7.74,10.84.03,1.14-1.26,4.21-.73,4.93,2.46.57,5.73,1.09,7.76,2.65,1.17.9,3.42,3.37,3.62,4.81.24,1.7-.68,3.84,1.57,4.05,3.46.33,5.08-.53,8.49,1.36,1.13.63,4.49,3.66,5.11,4.73,1.11,1.9.79,4,1.24,5.8.6,2.41,5.15,1.44,7.32,1.96,4.11.99,7.49,4.1,8.3,8.3.13.68-.13,2.16.33,2.48,1.78.21,3.33-.3,5.19-.12,3.6.35,7.24,2.68,9.3,5.61.52.73,1.54,3.88,1.75,3.93,1.45.36,3.99-2.03,5.65-2.48,4.16-1.12,10.59.22,13.44,3.59.42.49,1.46,2.44,1.71,2.52,1,.32.93-.98,1.28-1.49,1.91-2.8,3.66-.49,4.33,1.78.19.65.11,3.57,1,2.64.72-.76,1.13-1.62,2.13-2.31.92-.62,2.89-1.39,3.97-1.65,5.38-1.28,9.97,4.47,10.19,9.48.63-.31.62-.99,1.32-1.35.88-.46,1.88-.16,2.61-.48.58-.26,1.52-2.15,2.25-2.82,3.07-2.83,6.62-1.64,9.97-.11,1.41-2.81,3.56-3.91,6.71-3.33,1.12.21,1.43,1.1,2.45,1.06.54-1.19,1.09-4.28,1.87-5.03,2.25-2.15,3.55,2.14,4.46,1.93.3-.07.71-1.81,1.03-2.34,2.84-4.67,10.12-3.19,13.84-.43.68.51.97,1.71,2.15,1.65.54-4.71,4.83-9.94,9.71-10.4,1.13-.11,3.09-.11,4.21,0,1.58.16,2.6,1.07,4.08,1.12-.46-4.73,2.52-8.11,6.75-9.7,3.36-1.27,4.56-1.03,7.88,0,.54.17,2.35,1.7,2.18-.19-.23-2.56-.52-3.84.57-6.33,2.11-4.82,7.7-8.24,12.99-7.69-.37-1.97-2.92-2.94-3.71-4.86-1.46-3.52,1.58-8.32,4.58-10.17.3-.19,2.51-1.28,2.66-1.28h4.08c-.03-.99-.95-1.69-1.26-2.53-2.45-6.61,6.41-14.36,12.8-13.5-1.49-4.15-.96-8.13,1.83-11.54.79-.96,3.35-3.29,4.43-3.72.79-.32,1.65.02,2.18-.64-.76-1.69-2.43-3.54-2.75-5.41-.78-4.6.93-7.87,4.57-10.48,2.13-1.53,4.07-.7,3.5-4.07-.13-.75-.7-1.09-.82-1.71-.42-2.21.97-7.95,2.23-9.84.64-.96,2.07-1.34,2.79-2.24-1.7-2.09-4.09-5.06-3.92-7.89.12-2.01,1.32-5.48,2.42-7.15.38-.58,1.88-1.46,1.83-1.83-.15-1.02-1.48-1.29-2.12-1.84-1.55-1.31-3.38-6.04-3.41-8.06,0-.7.96-5.01,1.23-5.65.25-.59,2.01-2.18,2.6-2.76.41-.41,1.04-.23.85-.96-2.43-1.12-4.9-3.77-5.54-6.42-.35-1.42-.73-5.86-.1-6.97.26-.45,2.25-1.72,1.7-2.37-.06-.07-1.15-.16-1.67-.45-3.01-1.66-5.79-6.67-5.63-10.06.07-1.37,2.3-5.63,2.23-5.94-.52-.63-1.38-.35-2.18-.64-1.28-.47-3.48-1.93-4.24-3.07-1.31-1.96-2.2-6.34-1.68-8.61.23-1,2.82-3.07,2.18-3.84-4.01.11-7.43-3.48-8.95-6.94-.98-2.25-1.19-3.81.02-6.08.62-1.16,2.04-1.56,2.47-2.74h-7.17c-.99,0-3.68-2.4-4.22-3.38-1.7-3.1-.38-4.68-.42-7.88-6.51,1.29-12.46-1.93-11.81-9.14.12-1.34,1.35-2.28-.43-2.94-1.67-.62-3.69-.2-5.29-1.18-.74-.45-3.84-3.58-3.84-4.31v-5.2c-1.46.58-2.41,1.32-4.09,1.4-3.4.18-6.37-.66-7.87-3.94-.27-.59-.71-2.94-1.16-3.08-.65-.2-2.37,1.4-3.29,1.73-4.07,1.47-6.62-.33-9.06-3.43-3.92-4.98,1.78-14.2,8.1-12.88,1.98.42,5.25,2.65,6.23,4.45.81,1.49.09,2.69,2.08,2.04.61-.2,1.05-.68,1.66-.87,4.35-1.32,9.56,2.05,10.17,6.57.1.76-.06,1.52.02,2.23.23,2.23,1.84-.57,2.81-.87.52-.16,2.88-.41,3.52-.42,4.95-.08,8.85,3.9,8.6,8.89-.04.74-.72,2.87-.46,3.24,3.47.55,6.25.53,8.55,3.55s1.65,4.81,1.86,8.27c.31.45,3.17.22,4.11.39,2.59.47,5.86,3.76,6.33,6.33.28,1.53-.32,4.29,0,5.06.1.25,1.58,2.01,1.83,2.12.98.41,2.63.16,3.82.68,3.23,1.43,5.14,5.48,4.91,8.9-.13,1.96-.85,3.08-1.48,4.72-.7,1.83,2.2,1.19,3.28,1.34,5.66.77,8.49,8.7,6.36,13.63-.35.81-1.51,1.91-1.3,2.67.4,1.43,3.22,2.57,4.39,3.5,2.41,1.93,4.07,4.95,3.63,8.14-.25,1.85-2.6,4.5-2.17,5.88.17.54,2.46,1.69,3.19,2.44,2.62,2.72,3.59,7.49,2.3,11.03-.49,1.35-3.21,3.23-3.24,3.98-.03.84,1.55,1.12,2.29,1.64,3.56,2.48,3.96,6.74,3.56,10.78-.31,3.12-2.85,4.17-4.48,6.43.53,1.17,2,1.13,2.78,1.74.39.31,1.95,2.6,2.22,3.13,1.97,3.94,1.94,7.88-1.07,11.21-.76.84-3.3,2.4-3.39,3.1-.14,1.03.8,1.62,1.19,2.47,1.26,2.76.18,8.39-1.03,11.16-.46,1.06-2.53,2.83-2.61,3.55-.09.85,1.46,3.37,1.62,4.74.24,2.02-.23,5.62-.84,7.6-1.12,3.65-4.11,6.29-7.88,6.89.57,2.09,1.95,3.18,2.21,5.52.54,4.87-1.51,10.55-6.43,12.34-.99.36-3.44.21-3.82.98-.31.63.78,1.92.93,2.73.75,4.05-3.75,11.86-7.74,13.22-2.22.76-4.29.12-6.54.07.32,4.38.92,10.77-4.34,12.4-1.33.41-2.52.06-3.78.59-.37,2.85,1.07,5.08.8,7.97-.72,7.8-7.26,14.43-15.29,10.52-.72-.35-2.59-2.05-3.12-1.93-.83.18.41,1.81.55,2.26.6,1.91.78,5.65-.13,7.45-1.95,3.85-7.57,5.94-11.68,5.49-1-.11-3.37-1.25-4.09-.72-.38.27-.68,3.05-.97,3.82-2.51,6.61-10.3,10.03-16.54,6.14-.62-.39-2.8-2.45-3.15-2.42-.7.06-1.41,2.83-1.78,3.51-2.1,3.96-5.45,6.02-10.01,5.41-1.8-.24-3.12-1.48-4.78-1.93-.57.18-.4,1.31-.67,1.88-.36.77-1.91,3.03-2.78,3.11-1.16.11-3.85-3.6-4.74-4.44-.83,1.06-1.49,2.78-2.68,3.5-2,1.2-5.65.89-6.86-1.28-.47-.85-.24-2.02-1.2-2.48-.94-.23-1.9,1.89-3.1,2.16-.9.2-3.16.14-4.16.06-.81-.06-1.5-.57-2.25-.57-1.13,0-2.24.92-3.66.88-2.08-.07-2.62-1.64-4.19-2.54-.38.08-1.65,2.19-2.13,2.67-1.32,1.34-4.35,2.8-6.2,2.94-.42.03-1.01.05-1.41,0Z"/><path class="cls-1" d="M192.11,33.98c2.88-.47,7.55,3.07,8.43,5.78.51,1.56.72,4.55,0,6.05-.52,1.1-3.48,4.1-4.63,4.37-.87.2-4.88.18-5.72-.07-1.07-.32-4.05-3.24-4.41-4.31-1.11-3.22-.13-7.8,2.6-9.9.66-.51,2.97-1.79,3.72-1.92Z"/></svg>