<?xml version="1.0" encoding="UTF-8"?><svg id="Layer_1" xmlns="http://www.w3.org/2000/svg" viewBox="0 0 300 360"><defs><style>.cls-1{fill:none;stroke:#231f20;stroke-miterlimit:10;stroke-width:.25px;}</style></defs><path class="cls-1" d="M221.86,197.74v2.08l-.28,3.11c.13,6.97-.16,13.97-.55,20.92-.95,17.07-2.55,35.42-8.62,51.5-2.3,6.08-4.54,12.21-7.7,17.93-2.31,4.18-4.96,7.68-7.75,11.5-1.43,1.96-2.02,3.08-3.9,4.82-10.24,9.49-22.18,17.01-36.23,19.3l-6.83.57c-1.66-.04-3.33.05-4.98,0-10.85-.35-16.68-2.8-25.74-8.39-13.39-8.27-20.32-19.3-26.25-33.59-7.35-17.73-11.41-33.5-13.09-52.71-1.24-14.12-2.33-28.89-1.52-43.08.05-.79.19-1.8.32-2.59,2.63-16.59,6.08-30.16,14.75-44.67,6.18-10.35,13.48-18,22.04-26.3,9.45-9.16,17.55-15.48,22.97-28,4.52-10.45,4.64-18.43,4.59-29.63-.04-8.73-1.13-18.35-.14-27.01.22-1.9.81-2.77,2.84-2.98,1.92-.2,3.17.59,4.84.7,3.52.21,5.21-1.16,9.03.39.71.29,2.57,1.08,3.14,1.43.91.56.95,2.1,1.06,3.1.93,8.36.75,16.82.42,25.22-.13,3.22-.54,6.31-.42,9.55.26,7.23,1.22,12.99,4.31,19.51,6.47,13.66,16.65,25.43,25.88,37.28,4.42,5.67,9.2,11.26,12.89,17.44,5.85,9.77,10.48,19.67,13.06,30.85,1.62,7.04,1.74,14.58,1.87,21.75Z"/></svg>