<?xml version="1.0" encoding="UTF-8"?><svg id="Layer_1" xmlns="http://www.w3.org/2000/svg" viewBox="0 0 300 360"><defs><style>.cls-1{fill:none;stroke:#231f20;stroke-miterlimit:10;stroke-width:.25px;}</style></defs><path class="cls-1" d="M74.09,184.3c-1.03-1.21-3.58-2.51-4.89-3.75-6.78-6.4-5.29-12.93-1.07-20.38,2.1-3.72,6.05-5.99,6.5-10.39.6-5.88.05-6.82,3.69-11.99,2.29-3.25,12.46-13.39,15.89-14.66,2-.74,4.27-.55,6.24-1.39s4.05-3.47,6.21-4.64c3.64-1.99,5.52-1.5,7.83-5.83,2.54-4.76,1.49-6.88,7.19-10.09,2.92-1.65,16.6-5.67,20.39-6.54,9.32-2.13,20.85-3.04,30.42-4.14,11.19-1.29,21.85-11.47,33.27-9.15,1.35.27,4.14,2.79,4.9,3.95,2.56,3.92.21,11.15-.18,15.46-.43,4.76-1.76,17.1-.08,20.97,1.95,4.5,10.93,9.25,14.14,13.59,5.9,7.96,3.19,16.56,5,25.15.96,4.54,5.58,4.83,5.87,12.22.38,9.79-1.05,18.65-4.43,27.77-2.78,7.49-5.28,11.77-13.28,14.45-3.33,1.12-10.16.54-12.05,2.82-2.02,2.43-1.76,7.05-2.79,10.07-.7,2.05-2.14,3.05-2.9,4.74-1.07,2.37-1.64,9.68-.69,12.09.62,1.57,2.35,3.09,2.97,4.67.97,2.49.29,5.23,1.12,7.73,1.37,4.16,4.05,4.46.29,9.34-7.88,10.21-20.58,10.23-32.32,11.08-20.59,1.49-53.09,4.94-70.68-7.72-2.63-1.89-6.72-5.24-7.1-8.57-.93-8.16-.08-16.42,1.89-24.24.96-3.78-.18-4.98-.3-8.31s1.43-7.28.33-10.38c-.82-2.31-8.23-1.99-10.51-2.35-4.89-.77-10.72-3.68-13.12-8.18-.47-.88-2.81-7.6-3.02-8.63-.98-4.84,2.24-5.03,4.65-7.85,1.74-2.03,2.57-4.63.65-6.9Z"/></svg>