<?xml version="1.0" encoding="UTF-8"?><svg id="Layer_1" xmlns="http://www.w3.org/2000/svg" viewBox="0 0 300 360"><defs><style>.cls-1{fill:none;stroke:#231f20;stroke-miterlimit:10;stroke-width:.25px;}</style></defs><path class="cls-1" d="M278.18,142.13c1.56.63,6.58,1.58,7.14,3.32.39,1.21-.41,1.34-.98,1.95-.32.34-.49.73-.91,1.03-.81.59-2.18.57-2.47,1.51.11.57,3.54.94,4.28,1.26.59.26,1.86,1.39,2.02,2.01.24.93-.66,2.23-1.46,2.71-.55.33-3.14.93-2.91,1.65.13.41,2.67.55,3.21.68,1.15.26,2.87,1.5,2.75,2.8-.2,2.21-2.95,2.71-4.23,3.81-1.46,1.25,2.5,1.89,3.3,2.25,1.07.48,2.31,2.1,1.97,3.3-.14.49-1.17,1.69-1.61,1.99-.38.27-2.24.87-1.87,1.46.25.4,2,.35,2.49.43,2.25.36,4.63,1.31,3.52,4.04-.79,1.93-4.28,2.69-4.75,3.7-.21.46,0,.67.43.82,1.46.5,3.85.02,5.05,1.18s1.91,2.41.48,3.82c-.62.61-3.63,1.51-3.53,1.99.12.58,3.32.85,4.06,1.21.29.14,1.45,1.23,1.67,1.51.77.95-.29,2.42-1.03,3.11-.52.48-2.74,1.6-2.49,2.34.18.53,3.61.33,4.19.94,1.15,1.32,2.77,1.91,1.45,3.9-1,1.51-3.47,1.57-4,2.37-.31.46-.03.58.39.73.93.33,2.07.34,3.04.7.89.34,1.92,1.12,2.54,1.83v1.38c-.42,1.43-.73,1.9-1.99,2.65-1.83,1.09-3.89,1.89-5.72,3.02-.92.13-2.44-1.18-3.34-1.63-.99-.49-3.41-1.6-4.39-1.11-1.12.56-2.42,1.88-3.71,2.52-.66.33-2.86,1.28-3.48,1.17-2.29-.43-5.21-2.13-7.44-2.54-.95-.17-1.22-.07-2.04.33-1.54.75-3.19,1.93-4.7,2.78-3.68,1.05-6.46-4.81-10.04-3.24-1.23.54-4.44,3.14-5.59,3.08-.63-.03-.87-.53-1.29-.77-1.18-.66-5.08-3.31-5.97-3.45-1.39-.22-4.16,1.55-5.58,2.11-.91.36-2.07.97-3.01.66-1.62-.54-3.74-2.28-5.35-2.96-1.46-.62-2.24.38-3.62.86-1.15.4-2.48.56-3.61.96-.47.16-1.51.82-1.81.83-.69.04-1.18-.74-1.68-1.08-.76-.53-3.17-1.58-4.06-1.76-2.77-.56-6.2,2.57-8.73,3.34-1.23.37-2.19-.88-3.21-1.52-.93-.59-2.26-1.43-3.22-1.9-.52-.25-1.08-.55-1.68-.53-1.28.03-3.84,1.99-5.11,2.66-.7.37-1.45.63-2.11,1.08-.98.18-1.1-.36-1.77-.71-.8-.43-3.64-.97-4.62-1.06-2.21-.21-4.98,1.03-7.22,1.34-.84.27-.57,1.71-1.5,1.71-.36,0-1.09-.72-1.6-.91-1.9-.73-4.33-1.21-6.3-1.85-.48.16-.99.06-1.47.17-1.87.43-5.74,1.7-7.51,2.47-.31.13-.46.47-.88.52-.49.05-1.54-.7-2.09-.95-1.08-.48-4.74-2.25-5.66-2.25-.66,0-1.5.65-2.15.91-.87.35-1.76.67-2.66.94-.62.18-2.88.85-3.36.81-.57-.05-1.08-.74-1.61-1.03-.94-.52-4.25-1.98-5.23-2.22-.3-.07-1.36-.24-1.62-.23-.43.01-1.02.59-1.45.77-1.27.54-2.68.8-3.91,1.49-.68.38-1.28,1.27-2.04.99-.38-.14-.63-.63-1.32-.9-1.2-.46-6.06-2.1-7.05-2.03-1.71.12-4.95,2.64-6.54,2.71-.47.02-1.44-.26-1.93-.4-1.79-.51-3.68-1.58-5.39-2.09-1.23-.36-1.4.27-2.4.67-1.33.53-4.59,1.82-5.85,2.05-3.21.58-5.84-2.18-8.5-3.01-.67-.21-.81-.11-1.39.2-1.42.75-3.16,2.09-4.63,2.99-.39.24-.58.64-1.09.72-.9.13-.92-.32-1.51-.56-2.5-1-5.27-.94-7.75-2.06-1.61.81-4.11,1.01-5.63,1.72-.69.32-.97,1.16-1.75,1.28-1.99-.78-4.04-1.39-6-2.25-.97-.42-1.29-.99-2.39-.86-2.4.29-5.44,2.03-7.75,1.45-.89-.23-2.18-.97-3.02-1.41-1.78-.93-2.8-2.37-4.94-1.34-1.8.86-4.11,3.34-6.07,3.32s-5.51-3.03-7.52-3.81c-1.15-.45-1.85.18-2.79.74-.72.42-1.69,1.03-2.35,1.52-.9.66-1.3,1.81-2.55,1.14-1.77-.95-3.74-2.69-5.65-3.49-1.06-.45-1.43-.38-2.41.19-.82.47-3.58,2.52-3.93,3.27-.31.67-.21,1.44-.98,1.85h-.69c-1.06-.7-1.43-1.73-.27-2.56,1.23-.88,2.64-1.67,3.8-2.71.43-.39,1.67-1.27.81-1.77-.51-.3-1.89-.43-2.61-.72-1.12-.44-3.14-1.71-1.94-3.06,1.54-1.73,3.43-1.29,5.21-2,.24-.09.5-.32.53-.58.07-.86-4.37-3.33-4.39-4.68-.02-.74,1.56-2.47,2.14-2.98s3.02-1.95,2.93-2.71c-.08-.65-4.54-2.37-4.38-4.55s5.07-4.45,5.08-5.42c0-.79-2.52-1.76-3.13-2.22-.75-.56-2.21-2.33-1.48-3.26.32-.4,1.02-.44,1.15-.58.11-.11.11-.4.46-.71.7-.62,3.56-1.53,3.71-2.12.05-.19-.02-.25-.12-.39-.47-.7-1.73-1.46-2.37-2.21-1.28-1.5-1.79-2.86-.07-4.23,1.05-.83,2.75-1.39,3.67-2.15,1.2-.99-1.25-1.6-1.89-1.98-.84-.5-2.59-2.28-1.65-3.21.1-.1,1.43-.88,1.64-.99.45-.22,2.83-.89,2.87-1.04.03-.12.03-.48-.03-.58-.06-.1-1.76-.68-2.18-.94-.87-.54-2.04-1.57-1.32-2.68.49-.76,1-.37,1.03-.42.05-.07-.1-.34.09-.57.67-.8,3.76-1.37,4.07-1.89.41-.7-1.11-1.31-1.63-1.52-1.31-.53-3.4-.52-3.23-2.46.08-.9,1.55-1.73,2.36-1.94,1.2-.31,2.65-.41,3.91-.66.97-.19,1.61-.76,2.57-.26.3.16.47.45.78.61.98.52,3.68,1.52,4.74,1.51.97,0,6.39-1.33,7.23-1.78.75-.4.92-1.11,2.03-.42.34.21.39.51.61.68.54.41,5.07,1.8,5.79,1.81.84,0,2-.36,2.91-.43,1.42-.1,2.86.07,4.28-.16.91-.15,1.4-.92,2.22-.81.71.09,1.2,1.26,1.67,1.8.75.84,2.69,2.92,3.76,3.04s4.73-1.45,5.81-2.08c.13-.08.31,0,.32-.02.19-.25-.07-.61.64-.68,1.12-.11,4.9.95,6.23,1.27,1.59.38,1.35.41,3.05.4,1.34,0,2.68.26,4.03.15.87-.07,2.16-.75,2.83-.21,1.61,1.31,3.06,3.25,4.65,4.63,1.54,1.05,2.98-.12,4.3-.97,1.05-.67,2.18-1.9,3.02-2.38,1.22-.7,3.22-.83,4.57-1.39.89-.37,1.34-1.13,2.42-.69,1.13.63,4.61,3.16,5.73,3.15,1.76,0,3.28-1.72,4.65-2.67.69-.48,1.38-.8,2.09-1.23.18-.11.25-.37.5-.47,1.18-.48,1.21.29,1.98.82.91.62,4.35,2.29,5.38,2.38,1.7.16,4.4-.81,5.99-1.5.77-.34.84-.57,1.38-.97.77-.58,1.42.17,2.23.5,2.17.87,4.57,1.64,6.88,1.97,1.32-.84,3.34-1.52,4.56-2.38.74-.51.95-1.66,2.08-1.07.27.14.46.5.71.67,1.03.73,4.88,2.43,6.09,2.5,1.11.06,5.12-1.1,6.02-1.75.46-.33.51-.76,1.19-.76.75,0,.83.44,1.38.71.97.48,3.14,1.17,4.27,1.55,1.99.67,2.43.41,4.4-.11,1.34-.35,3.44-.96,4.62-1.62.49-.27.5-.68,1.27-.68s1.02.49,1.59.78c2.61,1.35,5.17,3.1,8.13,1.61,1.46-.73,2.95-1.97,4.35-2.86,1.22-.43,1.24.39,1.8.96s4.37,2.72,5.07,2.83c1.15.18,3.24-1.06,4.31-1.63.52-.28,2.55-1.66,2.88-1.67.59-.01,1.25.86,1.84,1.19.72.4,4.13,1.88,4.82,1.97.37.05.67.03,1.03-.06.77-.17,2.96-1.22,3.79-1.61.59-.28.98-.83,1.68-.83.63,0,1.06.5,1.64.73,1.05.42,4.29,1.52,5.29,1.51,1.41-.02,4.36-1.55,5.41-2.5.58-.52,1.01-1.61,1.81-1.66.37-.02,2.31.86,2.79,1.08,2.18,1.01,2.8,2.01,5.5,1.53.86-.15,3.03-1.13,3.78-1.62s1.11-1.42,2.27-1.07c.31.09.68.5,1.01.65,1.15.54,4.73,1.26,5.95,1.05.61-.1,3.33-1.52,3.89-1.93.66-.48,1.19-1.64,1.96-1.64.41,0,2.79,1.11,3.35,1.37,1.58.73,2.97,2.12,4.8,1.25,1.2-.57,3.57-2.92,4.63-2.99.6-.04,1.6.53,2.28.7,3.72.94,6.29,1.71,9.33-1.15.8-.75,1.16-1.7,2.42-1.94h1.11Z"/></svg>