<?xml version="1.0" encoding="UTF-8"?><svg id="Layer_1" xmlns="http://www.w3.org/2000/svg" viewBox="0 0 300 360"><defs><style>.cls-1{fill:none;stroke:#231f20;stroke-miterlimit:10;stroke-width:.25px;}</style></defs><path class="cls-1" d="M187.3,24.27c.2.32.74.2,1.08.2,2.66.03,5.86-.25,8.43,0,2.59.25,4.85,1.19,7.84,1.19,3.67,0,8.76-1.25,12.16-1.01,4.27.3,8.06.44,12.33.39,12.84-.13,25.02.17,37.83.6,6.35.21,12.69.11,19.03.38,2.19.09,6.43.34,8.26,1.34s1.29,3.27,1.43,5.04c1.41,17.77-.04,35.23,2.13,53.14.69,5.73.1,12.36.21,18.21.09,4.79.53,9,.99,13.71.5,5.17-.66,10.56-.39,16.07.58,11.76-.04,23.66,0,35.48,0,2.94.63,5.92.55,8.82-.04,1.34-.79,2.79-.92,4.14-.33,3.42,1.12,6.03,1.35,9.19.3,4.24.14,9.22.21,13.51.02,1.7-.2,3.57.19,5.2v7.06l-.4,3.23c.29,9.87-.62,19.73-.78,29.6-.22,13.44.09,26.96.21,40.38.07,8.25-.96,16.49-1.01,24.71-.02,3.17,2.57,4.86,1.03,9.05-.28.78-.9,1.38-1.16,2.17-.54,1.7-.2,3.31-1.34,4.93-.87,1.23-1.77,1.46-3.18,1.72-4.82.87-11.39.56-16.4.65-14.04.25-28.23.25-42.33,1.18-3.33.22-7.58.77-10.79.58-13.82-.83-27.89-.32-41.76-.2-17.68.16-35.43.74-53.12.61-.98,0-2.2-.36-3.23.19h-10c-1.3,0-2.62,0-3.92,0-11.35-.09-22.85-.67-34.2-.2-4.19.18-8.79-.61-13.14-.77-14.96-.56-29.94-.25-44.89-.59-3.84-.09-8.13-.16-11.96-.39-3.01-.18-3.94-.48-4.4-3.64-.87-5.88-.15-12.67-.19-18.63-.05-7.04-1.1-15.03-.59-21.94.16-2.2.96-4.32.99-6.66s-.81-5.18-.57-7.44c.55-5.33.52-12.67-.02-18.05-.19-1.91-1.02-3.8-1.17-5.69-.35-4.3,0-8.94-.2-13.32-.97-20.55-.17-41.29-1.38-61.74-.27-4.5.05-10.89.2-15.5.33-9.64.02-19-.19-28.62-.17-7.66.91-14.79.98-22.35.12-12.67-1.09-25.54-.41-38.22.16-2.93.81-6.1.99-9.01.42-7.06-.33-14.29.2-21.36.13-1.71.65-3.41.78-5.1.16-2.19-.78-7.69,2.27-8.11.77-.11,2.09-.18,2.91-.22,17.55-.83,34.97-1.64,52.55-1.36,18.2-.58,36.46-1.22,54.67-1.58,7.47-.15,15.15-.67,22.56-.39,1.6.06,3.42.75,5.08.8,3.7.11,8.11-.43,11.96-.41,6.15.03,13.22.92,19.22.41,1.48-.13,2.62-.95,3.96-1.13,1.16-.16,2.65-.2,3.77-.25h5.68Z"/></svg>