<?xml version="1.0" encoding="UTF-8"?><svg id="Layer_1" xmlns="http://www.w3.org/2000/svg" viewBox="0 0 300 360"><defs><style>.cls-1{fill:none;stroke:#231f20;stroke-miterlimit:10;stroke-width:.25px;}</style></defs><path class="cls-1" d="M133.45,263.99h-1.87c-6.17-1.86-12.27-4.02-18.3-6.28-23.38-8.76-49.12-18.53-69.09-33.58-13.16-9.92-26.74-20.69-38.88-31.79-2-1.83-4.6-4.14-5.3-6.79v-1.4c.63-1.72,1.35-3.74,2.2-5.36,2.72-5.2,8.58-2.59,12.82-1,1.69.64,3.09,1.6,4.69,2.33,4.36,1.99,8.84,2.82,13.41,4.07,7.27,1.99,14.94,5.19,22.01,7.95,13.97,5.44,28.05,12.15,39.9,21.42,11,8.6,22.23,17.32,32.56,26.72,1.23,1.12,3.1,2.89,4.13,4.14,1.22,1.48,1.8,3.33,3.28,4.68,3.02,2.73,6.44,2.13,4.64,7.75-.95,2.95-3.14,6.14-6.2,7.14Z"/><path class="cls-1" d="M300,198.02c.01.2.01.42,0,.62-.32,5.39-5.87,8.7-9.66,11.63-15.46,11.92-32.27,22.26-50.55,29.34-8.54,3.31-18.17,6.75-27.07,8.82-3.09.72-6.27.85-9.21,1.56-2.31.55-4.56,1.75-6.99,2.37-3.8.97-8,1.77-11.86,2.5-3.09.58-8.62,1.95-11.52,1.05-3.71-1.15-5.91-6.36-6.13-9.94-.25-4.15,1.35-3.99,3.98-6.17,2.82-2.33,5.53-5.16,8.59-7.17,2.94-1.93,6.01-3.78,8.99-5.68,2.81-1.79,5.91-3.27,8.71-5.02,1.61-1,3.07-2.41,4.65-3.31,1.08-.62,2.29-.99,3.37-1.62,4.6-2.69,8.57-5.32,13.58-7.48,5.43-2.34,10.96-3.76,16.38-5.78,1.64-.61,3.11-1.47,4.83-2.03,4.98-1.63,10.57-3.2,15.66-4.47,2.4-.6,4.7-.7,7.06-1.21,6.59-1.42,12.75-3.63,19.51-4.83,2.82-.5,9.18-1.66,11.78-1.26s5.74,5.54,5.89,8.07Z"/><path class="cls-1" d="M20.1,134.13c2.67-.21,6.02.95,8.54,1.82,19.21,6.6,36.9,14.72,54.34,25.08,9.75,5.79,19.86,12.03,28.91,18.83,2.77,2.08,4.49,2.91,3.69,6.77-.64,3.1-2.88,8.2-6.56,8.23-2.37.02-8.78-2.94-11.22-4.04-1.75-.8-3.4-1.9-5.15-2.66-1.99-.87-4.13-1.37-6.14-2.28-3.85-1.75-7.54-3.73-11.45-5.4-18.9-8.08-36.59-18.92-53.43-30.68-2.36-1.65-6.12-4.51-6.78-7.42-.82-3.67,1.18-7.93,5.23-8.25Z"/><path class="cls-1" d="M178.46,196.56c-.72-.72-1.33-1.96-1.32-2.99.04-1.95,1.7-2.85,3.19-3.69,4.28-2.45,8.82-4.36,13.16-6.65,4.71-2.48,9.15-5.87,13.84-8.47,12.71-7.05,26.51-11,40.34-15.21,2.03-.62,4.02-1.56,6.1-2.02,2.28-.5,7.03-1.16,9.06-.11,2.64,1.37,4.37,6.64,2.58,9.09-2.02,2.77-6.94,4.19-10,5.6-5.71,2.64-10.61,6.01-16.12,8.84-9.96,5.13-20.17,8.74-31.06,11.38-6.56,1.59-13.59,3.53-20.13,4.84-2.96.59-7.24,1.78-9.63-.61Z"/><path class="cls-1" d="M247.05,103.25c4.43-.5,7.73,2.57,7.38,7.06-.21,2.65-3.1,6.07-5.17,7.62-4,3.01-10.26,6.47-14.71,9.01-16.4,9.34-31.82,15.82-49.71,21.76-3.07,1.02-9.41,3.88-12.31,3.93-5.57.09-9.32-8.25-6.06-12.31,2.19-2.74,8.49-6.36,11.64-8.33,2.82-1.76,6.05-3.85,8.94-5.42,3.04-1.65,6.33-2.22,9.21-4.06,11.24-7.16,21.22-10.27,33.79-14.28,4.94-1.57,12-4.42,17.02-4.99Z"/><path class="cls-1" d="M16.91,103.46c-1.43-1.5-1.07-3.26-.37-5.02.84-2.13,2.02-2.59,4.28-2.39,2.41.21,6.24,1.07,8.71,1.59,3.81.79,7.65,2.05,11.49,2.71,2.46.43,4.96.5,7.42.85,11.5,1.61,23.89,6.64,34.55,11.18,5.54,2.36,11.57,4.92,16.96,7.53,1.7.82,6.02,2.88,7.28,3.95,2.79,2.37.24,8.17-3.51,7.56-14.49-3.21-29.36-5.78-43.66-9.71-11.83-3.25-23.83-9.74-35.14-14.64-2.04-.88-6.65-2.18-8.01-3.61Z"/></svg>