<?xml version="1.0" encoding="UTF-8"?><svg id="Layer_1" xmlns="http://www.w3.org/2000/svg" viewBox="0 0 300 360"><defs><style>.cls-1{fill:none;stroke:#231f20;stroke-miterlimit:10;stroke-width:.25px;}</style></defs><path class="cls-1" d="M200.01.12c1.94.6,2.81,3.23,3.45,5,3.43,9.55,3.38,25.51,3.34,35.78-.06,15.95-.97,31.98-1.5,47.95-.18,5.4.03,10.87-.34,16.22-.44,6.38-.45,12.82-.69,19.21-.08,2.2-.5,4.86-.35,7.02.15,2.31,1.24,1.99,2.17,3.46.77,1.21.53,6,.36,7.57-.41,3.91-2.22,7.02-1.32,11.1.66,3.02,1.4,6,1.98,9.06.63,3.39,1.42,7,1.64,10.43.4,6.04.68,12.12.58,18.18-.12,6.89-.58,13.81-.57,20.69.01,10.19-.46,20.33-.8,30.49-.25,7.53-.05,15.11-.11,22.66-.04,4.58.03,9.22-.6,13.78-.17,1.25-.65,2.68-.68,3.92-.04,1.6.37,3.34.35,5.07-.05,4.56-.14,9.11-.11,13.68.02,3.08-.47,6.14-.47,9.2,0,1.94.41,3.84.36,5.87-.13,4.63-.09,8.92.11,13.57.22,5.12.44,10.31.92,15.41.21,2.26,1.49,5.36-.27,7.15s-8.26,3.54-10.85,4.03c-3.81.73-7.5,1.68-11.29,2.51-4.38.96-9.05.75-13.5.63-1.21-.03-2.62.12-3.79,0-1.26-.14-2.59-.86-3.93-1.01-2.24-.25-4.49-.17-6.71-.64-1.41-.3-2.68-.94-4.05-1.36-1.9-.58-6.82-1.57-7.88-3.15-1.3-1.93-1-9.56-.82-12.06.12-1.72.49-3.46.57-5.18.06-1.3.06-2.53-1.4-2.97s-6.52-.28-7.73.73-.73,3.98-.35,5.4c.72,2.7,3.27,6.68-.77,7.74-6.2,1.64-13.89-.96-19.01-4.52-4.41-3.07-2.56-7.25-1.91-11.46.7-4.52.78-9.12,1.05-13.67.07-1.23.37-2.55.46-3.8.17-2.56-.06-5.54.24-8.04.16-1.34,1.36-2.4,1.49-3.8s-.6-2.77-.8-4.16c-.58-4.19.47-8.85.45-13.1-.02-2.9.33-5.24.46-8.04.09-2.08-.2-4.22-.12-6.34.17-4.71.26-9.41.34-14.15.1-5.89.28-11.82.34-17.7.06-5.18.27-10.38.12-15.53-.07-2.42.17-4.34.23-6.67.03-1.34-.21-2.68-.12-4.03.08-1.22.63-2.34.11-3.55-.45-1.03-3.37-3.36-4.36-4.38-.58-.59-1.03-1.32-1.66-1.9-1.09-1.01-2.52-1.9-3.68-2.88-3.72-3.11-7.95-6.57-10.79-10.48-2.64-3.63-6.79-10.17-7.09-14.65-.42-6.31,2.04-12.47,8.09-15.04.89-.38,1.94-.55,2.8-.99,1.28-.66,2.63-2.11,3.95-2.94,1.71-1.07,3.68-1.93,5.43-2.97,1.63-.97,3.09-2.18,4.72-3.1s3.51-1.48,5.14-2.34c1.08-.57,2.05-1.52,3.14-2.15,2.47-1.44,5.22-2.6,7.7-4.03,4.85-2.8,9.93-6.1,14.57-9.23,2.63-1.78,4.74-1.96,4.71-5.77-.02-1.96-.04-4.14-.24-6.09-.12-1.23-.6-2.49-.69-3.68-.14-1.8.38-3.63.35-5.53-.07-5.12-.43-10.28-.58-15.4-.07-2.3.3-7.34-.86-9.14-.9-1.4-1.64-1.46-1.97-3.43-.75-4.49,1.2-8.67,1.12-13.2-.03-1.87-.35-3.74-.11-5.62.29-2.23.7-3.75.68-6.11s-.11-4.83-.11-7.24c0-3.14-.43-5.28-.79-8.3-.66-5.5.07-9.62.77-14.95.33-2.49.41-4.76.59-7.23.11-1.45,1.31-5.7,2.09-6.88.36-.55.96-1.05,1.27-1.61.54-.98.36-2.35,1.59-2.78,2.06-.73,4.37,1.27,5.03,3.13.6,1.68.65,3.89.98,5.69.97,5.18,2.01,9.66,2.49,14.99,1.24,13.89,1.04,28.16,1.38,42.1.06,2.59-.1,5.48.25,8.03.12.85.49,1.83,1.51,1.77.7-.04,1.95-.52,2.8-.65,2.46-.37,4.98-.34,7.45-.59,2.6-.27,5.51-1.05,8.04-1.15,2.13-.09,3.94.88,4.74-1.7,1.08-3.46.74-6.56.83-10.09.1-3.88.35-7.84.35-11.72,0-1.38-.3-2.77-.24-4.15.04-.95.3-2.02.35-2.98.19-3.73-.13-8.09-.34-11.86-.13-2.37-.98-4.65-1.15-7.01-.14-1.92.37-3.78.23-5.75-.12-1.73-.87-3.37-1.02-5.08-.37-4.23,2.08-10.46,3.58-14.45,1.35-3.6,1.8-5.05,5.66-6.41l2.36-.69h.69Z"/></svg>