<?xml version="1.0" encoding="UTF-8"?><svg id="Layer_1" xmlns="http://www.w3.org/2000/svg" viewBox="0 0 300 360"><defs><style>.cls-1{fill:none;stroke:#231f20;stroke-miterlimit:10;stroke-width:.25px;}</style></defs><path class="cls-1" d="M157.04.81c3.8-.56,7.42.82,11.01,1.11,2.91.23,6.18-.22,9.1.27.91.15,1.71.77,2.5.83,1.13.08,4.35,0,5.05.17,3.27.83,6.95,1.25,10.29,2.11,2.42.63,5.44,2.38,7.69,3.06,5.2,1.57,11.13,3.64,16.14,5.91,3.86,1.75,7.05,4.38,10.74,6.35,2.34,1.26,4.3,1.68,6.56,3.36,15.79,11.78,28.31,23.86,39.39,40.29,6.23,9.24,9.85,16.29,13.47,26.78,1.17,3.4,3.15,6.45,4.2,9.58,1.71,5.06,2.88,11.03,4.18,16.22.86,3.43.13,7.47.39,10.92.06.84.19,2.32,1.07,2.65v17.92c-.79-.19-1.02,1.63-1.07,2.1-.72,6.81-.62,12.01-2.31,18.92-2.46,10.09-6.16,20.3-10.87,29.66-2.41,4.8-5.48,9.39-7.72,14.34-4.35,9.61-11.59,17.63-18.68,25.43-9.25,10.17-24.18,20.06-35.88,27.52-9.51,6.06-19.96,10.28-30.05,15.16-6.15,2.98-10.44,4.75-15.36,9.73-2.82,2.86-2.29,8.94-5.7,11.67-.93.74-2.39,1.23-3.16,2.08-.57.63-.71,1.45-1.23,2.08s-2.27,2-2.43,2.54c-.29.98.49,2.67.11,4.23-.23.96-1.39,2.1-1.91,3.05-3.33,6.11-4.45,12.87-6.08,19.56-.97,3.97-2.91,8.44-4,12.54-.85,3.23-.67,7.09-3.46,9.5-.56.48-1.76.5-1.79,1.66h-4.41c.19-.68-1.51-.87-1.93-.97-2.87-.64-5.05-.52-6.84-3.36l-.33-11.52c-.69-3.53-1.51-7.51-1.93-11.02-.28-2.28.64-2.79.84-4.41.39-3.16-.43-6.57-.57-9.65-.2-4.4-.32-10-2.25-14.02-.19-.39-.16-1.05-.35-1.31-.54-.74-4.97.28-6.07-.82-.53-.53-1.33-4.2-1.73-5.16-2.58-6.17-9.3-9.47-14.86-12.44-20.42-10.9-40.95-18.17-58.52-34.11-9.22-8.37-15.01-16.82-21.93-26.87-1.71-2.48-4.45-5.05-6.02-7.49-1.11-1.73-1.68-4.17-2.68-5.87-.57-.97-2.14-2.21-2.84-3.23-2.63-3.85-3.06-9.22-4.71-13.49-1.31-3.39-2.92-5.58-3.82-9.42-2.15-9.19-3.17-19.8-4.6-29.33-.08-.51.35-1.12-.54-.96v-18.48c.89.16.46-.45.54-.96,1.95-12.48,3.46-24.13,8.02-36.11,7.26-18.96,17.61-37.81,32.22-51.87,5.09-4.9,9.72-9.44,15.43-13.52,1.42-1.01,2.99-3.11,4.16-3.83,5.84-3.61,11.59-7.65,17.62-11.05,1.93-1.08,4.22-1.86,6.16-2.93,3.21-1.77,6.87-4.69,10.32-5.94,1.23-.45,2.6-.16,3.73-.41.78-.17,2.2-1.41,3.22-1.74,4.6-1.51,10.02-2.18,14.61-3.86,3.39-1.24,4.76-.53,7.78-1.31,3.55-.91,4.93-.3,8.08-.74,2.32-.32,4.71-.98,7.15-1.11s6.09.39,8.26,0c.51-.09,8.57,0,8.57,0Z"/></svg>