<?xml version="1.0" encoding="UTF-8"?><svg id="Layer_1" xmlns="http://www.w3.org/2000/svg" viewBox="0 0 300 360"><defs><style>.cls-1{fill:none;stroke:#231f20;stroke-miterlimit:10;stroke-width:.25px;}</style></defs><path class="cls-1" d="M122.84,28.89c2.83-.27,6.3.22,9.15.5,11.14,1.09,22.37,1.6,33.58,1.34,3.88-.09,13.52-1.02,16.45,1.66,2.2,2.02.99,5.99.2,8.47-1.15,3.6-3.47,3.98-6.92,4.14-2.1.09-4.59-.31-6.54-.14-1.75.15-1.18.93-1.26,2.34-.43,7.01,1.74,14.17,1.2,21.34,1.11,3.7.69,10.9,4.29,13.17.8.51,1.46.65,2.23,1.37,2.87,2.63,3.44,5.16,5.04,8.43.46.94,1.3,2.01,1.69,2.98s.83,2.88,1.17,4.03c1.55,5.21,1.76,8.48,1.69,13.91-.09,6.02-.24,12.04.27,18.02.39,4.55-.63,9.05-.67,13.6-.02,2.07.26,4.18.14,6.27-.16,2.77-1.05,6.29-.93,8.94s.31,5.45.14,8.14c-.1,1.51-.37,2.79-.4,4.4-.42,18.26.36,36.69-1.33,54.96-.19,2-.65,4-.8,6.01-.26,3.46-.23,6.94-.54,10.4-.59,6.74-1.24,13.53-1.73,20.28-.12,1.67.01,3.53-.14,5.2-.09,1.03-.53,2.13-.66,3.21-.83,6.84-1.52,13.69-2.42,20.52-.41,3.08-.68,6.75-1.22,9.72-.16.89-.57,1.83-.73,2.74-.19,1.1-.13,2.42-.36,3.51-.46,2.2-2.27,5.26-3.31,7.36-.77,1.55-1.72,2.39-2.47,3.66s-.74,1.76-1.82,2.98c-2.77,3.13-4.65,3.84-8.2,5.66-3.27,1.67-4.26,2.67-8.19,3.01-7.46.64-12.5-.09-18.44-4.75-1.93-1.51-2.15-2.92-3.61-4.52-1.85-2.02-3.63-3.76-4.54-6.53-1.29-3.94-2.95-8.6-3.57-12.7s-.86-8.35-1.36-12.51c-.09-.72-.51-1.52-.64-2.3-.46-2.84-.14-6.01-.55-8.79-.13-.87-.52-1.66-.65-2.55-.45-3-.29-5.97-.42-8.92-.06-1.41-.59-3.03-.67-4.53-.37-6.8,0-14.34.01-21.22s-.15-13.81-.01-20.67c.06-3.08.55-6.04.68-9.07.23-5.25-.09-10.73-.01-16.02.09-6.29.19-12.64.41-18.94.26-7.59,1.07-15.19,1.2-22.81.05-2.55.13-5.21-.31-7.7s-.14-2.65.04-4.98c.38-4.97,0-10.1.98-15.03.35-1.77,1.03-3.41,1.29-5.25.85-6.04,1.88-12.1,3.14-18.07.34-1.61.6-2.61,1.03-4.17,1.05-3.82,1.31-7.16,3.53-10.61,1.69-2.63,2.94-4.05,5.16-6.17,2.8-2.66,2.06-5.18,1.92-8.6-.21-5.13-.78-10.23-.93-15.34-.11-3.59.24-7.41.01-10.95-.02-.37-.15-1.59-.3-1.84-.59-1.01-4.16-.09-5.17-1.36-1.09-1.37-.12-3.44-2-4-2.65-.8-5.61-.06-8.17-1.82-2.39-1.65-1.92-5.32-.09-7.25.98-1.03,4.02-2.02,5.43-2.16Z"/></svg>