<?xml version="1.0" encoding="UTF-8"?><svg id="Layer_1" xmlns="http://www.w3.org/2000/svg" viewBox="0 0 300 360"><defs><style>.cls-1{fill:none;stroke:#231f20;stroke-miterlimit:10;stroke-width:.25px;}</style></defs><path class="cls-1" d="M239.92,90.43v4.52c-.35,1.41-.39,2.9-.68,4.33-1.26,6.22-4.91,13.8-8.51,19.01s-8.55,9.36-10.86,15.68c-2.32,6.36-.31,12.16-.38,18.69-.06,5.61-.91,11.48.97,16.9,2.35,6.77,3.76,11.33,4.33,18.67.63,8.15-1.27,16.38-3,24.32-1.09,5.01-3.63,10.8-5.67,15.56-3.87,9.03-8.49,17.09-14.08,25.23-9.13,13.3-18.07,21.56-31.94,29.77-1.86,1.1-7.15,2.98-6.54,5.68.24,1.07,2.29,4.14,3.17,4.9,2.4,2.09,4.66,3.48,6.35,6.43,1.41,2.47,2.12,7.68-.95,9.21-4.44,2.21-12.39,2.05-17.39,2.46l-8.35.98c-.85-.02-1.71.02-2.55,0-8.5-.24-17.01-1.48-25.31-3.48-.41-.1-.86,0-1.28-.1-1.33-.31-4.2-3.99-4.53-5.3-1.05-4.16,5.04-9.68,8.06-11.92,1.34-.99,4.26-1.91,3.64-3.91-.56-1.84-2.03-2.34-3.37-3.32-1.59-1.16-3.71-2.77-5.58-3.46-2.03-.74-3.51-.62-5.57-1.9-11.88-7.33-21.43-19.81-28-31.94-4.92-9.08-8.71-18.81-13.23-28.04-1.51-3.08-2.79-7.82-3.73-11.21-1.08-3.9-1.47-7.45-2.31-11.25s-2.21-7.63-2.5-11.85c-.4-5.81,3.34-22.48,7.07-26.93.26-.31.71-.48,1.07-.9,1.79-2.13,1.4-4.44,2.02-6.83.93-3.61,6.11-8.53,8.59-11.26,1.5-1.65,2.27-3.66,3.85-5.39,2.73-2.98,10.73-10.35,14.31-11.64,2.61-.94,5.49-1.1,8.15-2.07,1.87-.68,3.45-1.91,5.1-2.56,1.93-.76,3.93-.66,5.99-1.68.9-.44,3.69-2.46,4.28-3.19.98-1.23.78-6.29.89-7.96.25-4.12.99-9.3-.05-13.3-.61-2.36-2.15-4.34-3.52-6.31-.62-.89-2.62-3.91-3.22-4.45-.97-.87-5.75-.66-7.26-.8-2.63-.25-9.37-.89-11.44-2.12-1.39-.83-2.23-2.54-3.3-3.58-1.61-1.56-3.51-1.98-2.5-5.06.38-1.16,3.81-4.63,4.87-5.55s2.57-1.77,3.63-2.65c.95-.8,1.41-1.88,2.16-2.75,3.21-3.73,9.58-6.23,14.44-6.59,1.47-.11,3.05.09,4.53,0,6.12-.33,15.1-1.97,18.84,4.33,2.45,4.12,2.49,12.73,9.06,12.57.66-.02,2.06-.14,2.7-.25,2.31-.4,2.23-2.62,3.06-4.41,2.14-4.62,3.66-4.47,7.89-6.26,1.09-.46,2.96-1.09,3.35-2.15.76-2.05.01-2.72,2.06-4.43,4.53-3.8,12.01-3.13,17.69-3.34,3.25-.12,6.54-.6,9.8-.18,7.86,1,15.13,4.04,21.72,8.35,4.44,2.91,8.32,5.56,11.8,9.62,5.96,6.95,11.54,15.71,12.19,25.06ZM198.3,134.62c-.82-1.41,2.8-6.58,3.73-7.89,2.97-4.18,7.2-8.01,9.95-12.07,1.94-2.87,3.23-6.91,4.92-10.02,1.56-2.87,5.63-7.78,5.93-10.78.48-4.86-.14-8.17-2.67-12.27-2.86-4.63-6.44-8.39-10.83-11.58-9.98-7.25-19.28-7.96-31.21-8.68-5.02-.3-8.79-.08-9.7,5.62-.8,4.99-1.46,11.08-1.21,16.11.09,1.74.51,3.55.6,5.3.39,7.99-.12,16.18,1.98,23.96.57,2.09,1.91,7.24,3.05,8.75,2.13,2.8,6.43,3.3,9.11,5.44,3.88,3.1,6.26,4.89,10.82,7.07,1.12.53,2.68,1,3.68,1.63.74.47,2.09-.22,1.87-.59Z"/></svg>