<?xml version="1.0" encoding="UTF-8"?><svg id="Layer_1" xmlns="http://www.w3.org/2000/svg" viewBox="0 0 300 360"><defs><style>.cls-1{fill:none;stroke:#231f20;stroke-miterlimit:10;stroke-width:.25px;}</style></defs><path class="cls-1" d="M259.74,84.12c.08,1.24.03,2.71,0,3.97-.17,7.89-1.49,15.82-2.06,23.72-.09,1.18.1,2.47,0,3.64-.09.99-.57,2.05-.63,3.02-.09,1.47.31,3.17.15,4.75-.2,2.01-1.24,3.51-1.11,5.71.15,2.4.72,5.34-.05,7.73-.26.79-.99,1.58-1.26,2.39-.67,2,.25,3.92.49,5.92.5,4.16-.65,8.01-.45,12.03.51,10.53.03,20.88-.15,31.42-.22,13.03-.74,25.7-1.91,38.7-.17,1.91-.66,3.32-.43,5.35.25,2.19,1.37,4.18,1.54,6.39.4,5.36-.37,10.74-1.11,16.02-.29,2.07-.43,4.2-1.1,6.19-.95,2.81-6.14,9.79-9.14,10.21-.5.07-1-.02-1.53.06-1.62.24-1.89,1.34-2.9,2.34-.41.41-1.22.85-1.59,1.26-.42.47-.57,1.1-1.1,1.59-1.18,1.1-3.21,1.6-4.57,2.41-.84.5-1.58,1.34-2.44,1.84-1.75,1.02-6.3,3.1-8.21,3.69-1.39.43-2.8.37-4.17.74-2.67.72-5.77,2.68-8.43,3.3-2.81.66-5.71,1.31-8.54,1.93-19.61,4.29-41.47,4.82-61.49,4.32-5.87-.15-10.84-.47-16.66-1.11s-12.09-1.35-18.06-2.24c-2.47-.37-4.81-1.26-7.23-1.81-5.77-1.31-12.66-2.21-18.13-4.24-1.85-.69-4.5-2.31-6.38-2.5-.61-.06-1.26.05-1.88-.02-1.88-.22-1.82-1.68-3.12-2.74-2.51-2.05-6.16-3.44-8.72-5.88-.9-.86-1.67-2.53-2.47-3.56-.68-.88-1.56-1.59-2.19-2.41-1.18-1.52-3.75-8.01-3.9-9.9-.12-1.62.02-3.27-.16-4.91-.21-1.92-.79-3.78-.95-5.71-.27-3.3,0-7.76.34-11.08.12-1.14.79-2.21.92-3.21.35-2.66-.48-5.33-.78-7.92-.19-1.72-.15-3.53-.32-5.23s-.68-3.38-.79-5.08c-.31-4.55-.23-9.53-.32-14.11-.04-2.1.32-7.01-.24-8.64-.23-.67-.8-1.36-.99-2.03-.38-1.34-.9-6.3-.83-7.73.28-6.06-.25-11.01-.63-16.98-.15-2.4-.76-6.13-.47-8.39.09-.69.48-1.27.48-2.08,0-1.09-.42-2.4-.49-3.49-.17-2.5-.39-5.11-.48-7.61-.07-1.69.49-3.86.33-5.25-.08-.69-.57-1.31-.75-1.94-.32-1.13-.29-3.34-.2-4.55s.66-2.73.64-3.8c-.02-.74-.57-1.67-.75-2.43-.72-2.96-.06-5.39-.2-8.21-.07-1.35-.68-2.79-.8-4.12-.14-1.58.12-3.32,0-4.91-.1-1.26-.49-2.55-.61-3.83-.52-5.22-.42-10.75-.49-16.01-.04-3.47.06-7.48,1.02-10.86.75-2.63,2.55-3.83,4.85-5.14,2.69-1.53,10.04-3.25,13.28-3.85,2.71-.5,5.46-.64,8.18-1.02,8.48-1.2,16.49-2.27,25.08-2.35,10.24-.1,20.4-1.02,30.62-.31,16.2-.88,32.36-.41,48.54.14,6,.21,11.69-.73,17.61-.48,3.03.13,6.17.53,9.19.8,7.67.69,15.25,1.88,22.84,2.7,6.1.65,12.13,1.47,18.22,2.08,3.7.37,10.6,2.87,13.96,4.6,1.19.61,3.9,2.01,4.61,3,1,1.39,1.41,4.05,1.52,5.7Z"/></svg>