<?xml version="1.0" encoding="UTF-8"?><svg id="Layer_1" xmlns="http://www.w3.org/2000/svg" viewBox="0 0 300 360"><defs><style>.cls-1{fill:none;stroke:#231f20;stroke-miterlimit:10;stroke-width:.25px;}</style></defs><path class="cls-1" d="M167.12,359.87c-1.23-.07-2.58-.35-3.85-.46-1.04-.09-3.55.08-4.3-.52-.93-.75-.49-3.81-.92-5.06-.48-1.42-2.02-1.03-3.17-1.09-6.65-.35-13.32-.12-19.98-.35-1.96-.07-6.84.39-7.36-2.17-.33-1.62.14-3.98-.05-5.7-.22-1.99-1.97-.77-3.17-.65-2.33.24-3.2-.65-5.18-.99-3.21-.55-5.96-.39-9.07-1.73-.55-.24-1.01-.63-1.58-.83-.99-.34-3.67-.35-3.94-1.57s.66-2.83-1.35-2.88c-1.78-.05-4.04.5-5.85.56-.78.02-2.1-.04-2.88-.12-1.34-.14-1.58-1.2-1.66-2.36-.21-2.79-.11-5.51-.11-8.27,0-2.17-1.96-1.19-3.4-1.32-.66-.06-1.75-.34-1.89-1.1-.19-1.03.54-3.34.83-4.44,1.28-4.87,3.3-9.78,4.5-14.57.5-1.97.19-3.82.28-5.81.07-1.51.24-3.17.35-4.71.15-2.1.78-4.92.43-6.98-.29-1.72-2.32-1.45-3.59-2.04-1.66-.77-.74-2.28-.53-3.64.63-4.1,1.85-9.01,2.92-13.06.52-1.99,1.43-4.14,1.78-6.15.15-.88.06-1.75.16-2.6.38-3.43,1.51-6.76,1.6-10.36.03-1.09-.45-1.18-.83-1.93s-.5-1.8-1.35-2.21-2.18-.11-2.15-1.58c1.1-4,2-8.07,3.1-12.07.44-1.59,1.26-3.38,1.46-4.98.59-4.82,1.87-9.36,2.41-14.14.09-.79.02-1.68.13-2.51.18-1.4,1.19-3.17-.79-3.72-1.16-.33-3.1.37-3.01-1.45.07-1.3,1.32-4.4,1.8-5.8.99-2.94,2.17-5.83,2.85-8.88.74-3.35.95-7.02,1.58-10.37.2-1.05.61-2.03.83-3.08.84-4.03.51-8.17,1.24-12.21.77-4.3,2.19-9.7,3.44-13.91.41-1.36,1.13-2.61,1.41-3.99.48-2.4.7-5,1.18-7.42-1.91-5.59-1.82-11.62-1.11-17.46.18-1.46.76-2.34.67-3.92-.05-.9-.39-1.19.05-2.13.21-.44.63-.75.81-1.14.59-1.29-.06-5.88-.17-7.53-.46-6.55-.61-13.11-1.03-19.66-.32-5.11-.64-10.8-1.4-15.84-.33-2.2-2.14-1.77-3.92-2.29-2.11-.61-6.18-3.24-7.68-4.85-.72-.77-.69-1.33-.29-2.25,1.4-3.21,3.95-6.59,5.71-9.69,3.57-6.27,6.04-12.59,9.15-19.01,1.42-2.93,3.49-6.23,5.26-8.99,1.58-2.47,3.25-2.57,5.52-3.78s3.61-4.66,6.24-5.71c2.41-.96,1.58,1.33,3.5,1.55,2.51.29,7.01-1.42,9.59-2.01,1.85-.43,3.68-.59,5.56-1.1,1.6-.43,3.09-1.08,4.66-1.54,3.23-.95,5.52-1.36,8.69-2.8,8.02-3.63,15.58-8.08,24.67-8.42,1.68-.06,2.97.45,4.6.58,2.69.22,4.8.03,7.4,1.1.96.39,1.8.99,2.72,1.42,3.67,1.69,6.81,2.53,8.81,6.47,1.51,2.96,3.08,7.34,3.52,10.62.85,6.36.92,12.7,1.26,19.08.09,1.71.45,3.31.35,5.05-.08,1.29-.42,2.47-.34,3.79.2,3.37.02,5.51-.47,8.84-.19,1.31-.94,4.09-1.88,5.01-.62.61-3.44,2.16-4.28,2.27-.58.08-1.43.06-2.02.01-1.24-.1-3.28-.94-4.26-.9-.69.03-1.06.55-1.27,1.14-2.34,14.21-5.2,28.32-8.02,42.43-.35,1.73-1.35,4.54-1.09,6.22.09.56.54,1.16.55,1.75,0,1.09-.65,3.02-.79,4.27-.31,2.84.23,3.85.81,6.41.46,2.02-.01,2.97-.14,4.84-.17,2.55.1,4.98-.11,7.59-.17,2.09.85,3.06,1.23,4.86,1.09,5.17,1.03,11.26,1.07,16.51.01,1.71-.17,2.95-.35,4.6-.6,5.5-.72,10.44-.34,15.97.15,2.16.7,3.59,1.1,5.57.34,1.69.11,3.62.16,5.36.06,1.94.22,3.9.23,5.85.04,6.23,3.51,13.56,5.35,19.6.27.9.96,2.97.7,3.8-.21.67-1.41.73-1.98,1.01-.79.39-1.03,1.16-2.14.91-.57-.12-1.28-.81-1.65.23-.33.92-.2,4.53-.16,5.72.08,2.26.43,4.45.68,6.68.33,2.91-.15,5.97.43,8.76.15.69.5,1.32.67,1.97,1,3.69,1.87,7.61,2.66,11.36.23,1.07.78,3.69.58,4.65-.31,1.53-1.99.99-2.86,1.5-.26.15-1.95,1.91-2.07,2.18-.46,1.06-.25,2.56-.32,3.7-.12,1.8-.41,3.72-.34,5.52.04,1.09.34,2.37.35,3.45,0,.77-.25,1.69-.25,2.42.02,3.17,1.21,6.17,1.91,9.25.65,2.9,2.25,8.83,2.12,11.53-.06,1.33-1.47,2.47-2.74,2.55-.97.06-2.09-1-2.5.6-.18.71-.23,2.17-.26,2.95-.2,4.86.23,9.35.58,14.14.06.86-.06,1.78,0,2.64.14,1.89.97,3.8,1.34,5.67.63,3.17,1.11,6.63,1.54,9.83.21,1.53,1.12,3.8-.39,4.81-1.08.71-3.79,1-4.33,1.64-.79.95-.34,3.63-.93,4.93-.31.69-1.27,1.58-1.74,2.29-1.19,1.78-1.08,2.73-3.42,3.47-1.81.57-4.14,1.11-6.02,1.57-2.24.55-5.69,1.53-7.88,1.71-.63.05-1.55.04-2.18,0Z"/></svg>