<?xml version="1.0" encoding="UTF-8"?><svg id="Layer_1" xmlns="http://www.w3.org/2000/svg" viewBox="0 0 300 360"><defs><style>.cls-1{fill:none;stroke:#231f20;stroke-miterlimit:10;stroke-width:.25px;}</style></defs><path class="cls-1" d="M229.69,161.42v3.42l-.48,7.15c-.27,1.8-.94,4.15-2.4,5.35-2.67,2.18-5.78-.13-6.66,4.96-.67,3.89-.53,13.35-3.33,16.04-1.45,1.4-4.14,1.44-5.98,1.99-3.16.94-6.54,3.76-5.91,7.42.47,2.74,4.12,4.97,1.17,8.12-1.01,1.07-4.81,3.65-6.25,4.68-1.13.81-2.53,1.42-3.69,2.23-1.35.94-2.66,2.49-4.1,3.19-3.09,1.5-6.85.39-10.17,1.9-3.72,1.69-6.36,7.74-10.13,8.09-1.83.17-5.26-1.35-5.58,1.48-.24,2.08,1.87,8.09,3.41,9.59s3.96,1.84,4.72,4.39c1.21,4.05-4.54,5.27-2.71,8.64s9.27,1.82,11.88,5.2c1.64,2.12.39,3.38-1.81,3.89-3.03.7-5.65.38-8.51.57-1.84.12-3.81.52-5.61.9-.72-.07-1.58.1-2.28,0-5.25-.75-3.77-7.31-6.15-10.6-1.65-2.28-4.09-2.11-6.03-3.53-2.86-2.1-2.51-6.03-7.46-4.28-3.43,1.21-5.75,4.56-8.74,6.52-8.26,5.39-14.72.5-22.54-2.41-2.19-.82-4.54-1.65-6.77-2.34-6.85-2.09-16.03-2.38-19.79-9.35-1.96-3.63.12-8.7-5.49-8.43-3.72.18-9.41,3.06-11.3-1.89s.24-11.66,5.39-13.84c2-.85,8.74-2.88,10.7-2.73,1.67.13,5.07,1.04,6.43,1.99,2.52,1.78,3.43,6.68,7.21,6.19,2.75-.36,2.9-3.2,2.19-5.35-1.51-4.59-5.68-4.71-8.32-7.85-4.48-5.32-4.04-11.85-5.74-17.96-1.32-4.77-5.31-7.81-4.56-13.32.37-2.73,3.67-5.3.1-7.28-2.31-1.28-5.68-1.59-7.07-4.31-1.27-2.48-.21-4.29-.13-6.69.09-2.86-1.62-7.62,2.86-8.09,1.72-.18,5,1.67,5.67-.92.38-1.45.16-4.51.34-6.27.32-3.12.93-10.35,2.54-12.73,2.46-3.63,6.79-2,10.09-5.62,4.96-5.43-2.06-7.73-.51-12.82.77-2.51,3.61-4.65,5.29-6.56,3.14-3.56,4.9-7.42,10.27-7.51,3.54-.06,5.96.47,9.64-.59,6.12-1.77,9.1-8.15,16.4-4.57,1.44.71,2.57,2.3,4.38,1.9s1.47-3.52,1.86-4.98c.54-2.04,2.62-4.68,4.81-4.98,1.61-.22,2.83.32,4.31.43,2.93.21,7.79-1.53,9,2.38.86,2.8-1.37,6.6,2.82,6.97,4.93.44,9.72-1.57,14.74.97,3.94,1.99,2.37,5.44,4.09,8.44.99,1.74,5.34,4.84,7.36,4.95,2.76.15,4.1-2.41,7.61-1.26,3.98,1.3,11.28,9.51,13.88,12.99,3.66,4.89,1.94,7.42,3.02,12.48.5,2.35,2.45,4.4,3.2,6.83.67,2.21.59,4.47,1.14,6.61,1.12,4.38,7.04,4.59,7.67,10.21Z"/></svg>