<?xml version="1.0" encoding="UTF-8"?><svg id="Layer_1" xmlns="http://www.w3.org/2000/svg" viewBox="0 0 300 360"><defs><style>.cls-1{fill:none;stroke:#231f20;stroke-miterlimit:10;stroke-width:.25px;}</style></defs><path class="cls-1" d="M37.96,173.76c1.39-1.9,1.22-4.37,1.53-6.49,1.32-9.13,1.19-18.33,2.32-27.49.46-3.71.99-7.54,1.5-11.24.75-5.42,2.63-11.18,3.05-16.31.58-7.12.73-12.21,3.7-18.98.61-1.38,1.79-2.57,2.25-4.12,1.58-5.37,2.23-7.23,5.31-12.01,2.65-4.11,4.33-8.63,7.85-12.28,1.57-1.63,4.47-2.99,5.12-5.07.96-3.1.11-10.61.23-14.3.14-4.36.85-8.66,1.29-12.98.3-2.94,1.15-3.92,4.2-3.97,2.67-.05,5.76.53,8.41.78,2.16.2,6.68.04,8.37,1.06,2.35,1.41,1,4.57.92,6.7-.19,5.28.19,12.25.51,17.6.07,1.21.23,3.25.92,4.18.55.74,5.23,3.49,6.13,3.57.34.03.59,0,.92-.05,1.65-.2,9.69-3.69,11.42-4.64,3.66-2.01,6.14-9.13,7.04-13.08,1.01-4.45.83-7.02.82-11.38,0-3.8,2.62-4.16,4.46-6.52,1.69-2.17,2.3-4.97,1.87-7.69-.23-1.47-3.27-6.63-.3-6.8,1.1-.07,6.71,3.31,6.99,4.2.03.63-1.17.16-1.01,1.4,2.05-1.16,2.61,2.27,2.77,3.73.68,6.47-2.91,8.27-5.11,13.43-1.13,2.64-1.51,7.39-1.22,10.23.14,1.43.92,2.56,1.21,3.89.58,2.67,0,5.4.65,8.01.93,3.7,2.52,7.6,2.96,11.57.16,1.48-.13,2.96.14,4.44.39,2.16,3.08,5.4,4.26,7.46,3.47,6.04,7.41,15.23,1.49,21.2-2.3,2.32-5.11,3.07-8.23,2.1s-4.68-4.67-7.17-1.19c-1.61,2.24-6.65,12.56-9,12.93-3.35.52-1.16-7.32-.71-8.88.51-1.76,2.28-5.16,2.41-6.53.2-2.03-1.37-2.97-3.18-3.15-1.42-.14-7.03-.19-8.09.31-1.82.85-2.28,4.9-2.24,6.71.12,5.38,1,7.67,1.99,12.53.32,1.59.16,3.4.39,4.96s1.19,6.22,3.11,6.34,8.07-4.65,10.69-5.39c4.05-1.13,8.36.39,10.38,4.17.73,1.37,1.04,4.06,2.32,4.81,1.02.61,2.24.43,2.62-.81.25-.81.63-4.31.64-5.23.01-1.36-.49-2.76-.54-4.07-.11-3.18.32-6.86,0-9.94-.12-1.15-.73-2.19-.78-3.31-.09-1.9,1.42-4.37,3.48-4.45,3.72-.14,7.27,1.12,11.38.43,2.82-.47,1.99-2.17,2.23-4.14.72-5.94,1.74-12.21,2.29-18.09.29-3.13-.28-6.31,0-9.17.21-2.1,1.13-4.33,1.28-6.62.27-4.01-.04-9.73-.55-13.74-.23-1.82-2.53-8.9.67-9.1,2.5-.15,1.99,4.75,3.05,5.89.75.8,1.35-.35,1.61-.95,1.56-3.68,1.41-10.32,2.42-14.65.39-1.67,1.16-3.32,1.58-5.04,2.05-8.43,2.65-17.81,5.18-26.16.31-1.01.52-2.12,1.82-1.87.23,1.47.35,2.97.27,4.47-.11,1.88-.71,5.14-1.1,7.05-.45,2.21-2.15,6.17-1.6,8.12.4,1.45,2.11.39,2.49-.61,1.49-4.27,2.74-8.93,4.49-13.09.46-1.1,2-4.47,2.63-5.27.75-.95,1.67-.79,1.71.46.1,2.63-2.21,8.65-2.73,11.77-.18,1.07-.98,6.48-.26,6.94.25.15.95.05,1.24-.09.6-.29,2.12-4.58,2.58-5.57.67-1.41,1.63-2.69,2.2-4.17.4-1.04,1.35-5.98,1.6-6.17.03-.02.43.21.77.14.41-.09.4-.41.6-.57.15-.11.48-.05.58-.15.35-.34.18-1.55.46-1.98,2.52,1.44.63,4.46,1.95,6.71.5.85,1.71,1.52,2.22,2.37,1.18,2,.67,3.83,3.54,5.12,3.54,1.6,4.9-.99,7.63-2.69,3.79-2.36,7.21-4.5,11.37-1.28,3.53,2.73,2.94,8.02,4.63,11.42,1.19,2.4,2.99,1.79,5.08,2.31.33.08.85.52.9.48.02-.02-.06-.45.17-.51.57-.15,1.46.04,2.34-.17,1.38-.34,5.77-3.65,6.68-3.02,1.19.83-1.72,2.31-2.17,2.68-3,2.49-.18,2.97,1.03,5.34.91,1.78.63,2.85.05,4.67-.75,2.39-4.18,7.57-3.71,9.69.18.81,1.3,1.82,2.13,1.95,2.83.46,6.22-2.77,8.15.77.9,1.64.92,6.99,3.42,4.21,2.22-2.46,2.41-4.66,3.69-7.27.94-1.92,3.38-4.2,4.52-6.43.47-.93,1.09-3.66,1.59-4.01,1.12-.8,2.38.48,3.83.26,1.31-.2,3.08-2.12,4.47-.88l-.5.89,1.02-.51c1.03,1.45-3.3,8.88-3.54,10.85s1.05,3.05,1.23,4.85c.54,5.59-6.48,10.33-6.35,15.25.11,4.12,2.28,9.56-1.27,13.26-.98,1.02-3.26,1.47-3.71,2.92-.69,2.23,1.6,10.36-2.04,10.96-2.1.34-4.99-1.03-5.84-3.05-1.09-2.57-.61-3.78-.63-6.23s-.48-5.22-.28-7.66,1.07-4.32.75-7.1c-.21-1.76-1.41-4.99-3.42-2.71s-4.11,7.17-6.24,10.07-5.19,6.38-8.17,8.39c-.77.52-1.77.79-2.51,1.31-3.18,2.26-6.22,11.25-8.93,14.76-4.55,5.89-10.53,11.6-15.28,17.33-1.7,2.05-2.99,4.63-4.72,6.49-3.26,3.52-5.68,4.9-8.39,9.44s-3.61,9.1-5.88,13.23c-2.47,4.51-7.38,10.26-8.43,15.27-.32,1.54-.21,3.38-.44,4.91-.76,5.03-2.78,8.91-4.64,13.45-2.28,5.56-2.32,10.07-3.67,15.69-.58,2.44-2.3,5.2-2.55,7.38s.13,4.64-.03,6.85c-.15,2-.82,4.11-1.01,6.12-2.29,23.41-.91,46.92-2.03,70.33-.19,3.88-1.45,9.26-1.03,12.98s3.18,1.85,5.79,2.87c.93.37,1.48,1.01,1.96,1.86,3.57,9.82,11.15,19.74,10.85,30.42-.1,3.4-.99,6.52-1.27,9.69s.75,7.63-2.31,9.92c-1.93,1.44-6.15.97-8.52,1.16-20.66,1.7-41.47,2.49-62.17,3.82-3.94.25-8.03-.12-11.84,1.02h-10.96c-2.41-.93-3.84-2.72-4.3-5.25-1.67-9.13-1.45-18.76-1.57-28.01-.03-2.22-.49-4.2-.5-6.11s1.02-4.4,1.04-6.37c.02-1.82-1.09-4.61-.13-6.22,1.47-2.45,8.54-1.22,9.35-2.88.16-.33.22-.66.14-1.02-1.48-2.58-2.07-6.02-3.48-8.52-1.03-1.81-2.84-3.25-3.97-5.2-1.75-3.01-2.1-4.37-4.33-7.39-2.63-3.55-1.39-9.71-3.51-14.07-.27-.55-3.12-5.04-3.39-5.27-.93-.79-1.73-.35-2.75-.57-.9-.2-2.41-2.64-2.87-3.5-.57-1.06-1.69-4.7-2.27-5.12-1.11-.8-2.38.63-3.67-1.17-1.51-2.11-1.43-5.03-1.99-7.43-.37-1.59-1.14-3.02-1.5-4.62-.38-1.71-.32-3.68-.8-5.31-.89-2.98-5-6.26-4.3-9.74.31-1.53,1.59-2.26,1.57-4.15,0-1.22-.67-2.66-.69-3.87s.41-2.33.25-3.79-.96-2.77-1.22-4.13c-.65-3.41-.45-8.08-.79-11.69-.1-1.06-.27-2.49-.76-3.44v-2.04c.4-1.7.76-3.98.78-5.72s-.42-3.45-.47-5.11c-.05-1.87.82-4.49-.31-6.24v-2.29Z"/><path class="cls-1" d="M119.68,165.67c-1.03.2-4.85,1.7-5.97,2.19-3.25,1.43-4.3,3.38-5.25,6.73-.57,2.03-.37,3.93-.75,5.87-.52,2.63-2.14,5.63-2.87,8.34-2.9,10.79.27,24.17-4.41,34.57-1.93,4.28-4.08,8.1-5.66,12.69-1.12,3.26-1.2,6.56-2.21,9.76-.89,2.8-2.67,5.42-3.52,8.2-.21.7-.93,3.63-.88,4.19.16,1.68,4.14,2.24,1.14,4.74-1.73,1.45-2.79,1.27-3.16,4.22-.64,5,7.53,2.84,6.86,6.85-.43,2.54-8.8,3.5-9.7,5.1s.41,4.3,1.07,5.84c1.64,3.85,4.18,7.23,6.22,10.85.57,1.02.84,2.24,1.54,3.3,1.21,1.85,2.61,2.11,4.19,3.45,1.13.97,1.27,2.13,3.2,2.4,6.14.11,12.23-.63,18.32-.99,3.88-.23,7.84-.02,11.71-.52,4.08-.52,4.22-.79,4.47-4.95.44-7.23.1-15.32.25-22.68.23-11.26.29-22.13-.02-33.38-.13-4.86.57-9.64.54-14.28-.01-1.81-.56-4.05-.55-5.86.03-4.12,1.87-16.37.28-19.37-.45-.85-1.31-1.43-1.72-2.35-1.4-3.1-2.72-5.83-4.45-8.8-1.27-2.19-3.07-3.02-3.27-5.9-.12-1.7.67-3.95.07-5.42-.49-1.22-3.02-1.78-3.33-3.31-.43-2.1,2.29-3.61,2.45-5.62.05-.57-.16-1.8-.27-2.4-.52-2.7-1.32-4.02-4.33-3.45Z"/></svg>