<?xml version="1.0" encoding="UTF-8"?><svg id="Layer_1" xmlns="http://www.w3.org/2000/svg" viewBox="0 0 300 360"><defs><style>.cls-1{fill:none;stroke:#231f20;stroke-miterlimit:10;stroke-width:.25px;}</style></defs><path class="cls-1" d="M38.28,72.72c1.99.62,4.17.4,6.22.66,11.35,1.45,20.33,5.85,26.35,15.79,1.85,3.06,3.41,6.77,3.85,10.34.26,2.07.72,5.18-1.4,6.42-.82.48-4.13.88-4.28,1.12-.28.43.38,3.09.61,3.67.29.74,1.18,1.21,1.72,2.09,4.1,6.57,4.26,10.97,6.47,17.88.22.68.69,1.12.85,1.69.94,3.22,1.54,7.79,2.65,10.69,1.05,2.76,3.29,5.64,4.43,8.49.35.87.39,2.07.84,2.76.31.48,1.41,1.15,2.05,1.97,1.41,1.8,3.26,4.59,4.45,6.57.27.46.54,1.52.73,1.71.27.28,1.57.97,2.07,1.42,2.09,1.91,3.84,4.2,5.92,6.15,5.15,4.82,11.25,9.52,17.8,12.28,1.81.76,9.23,2.4,10.05,3.3.26.28.14.68.59.9.7.35,6.84,1.5,7.91,1.61,3.19.32,6.47-.13,9.69.26.82.1,1.5.53,2.13.62,5.95.81,17.08-1.06,23.03-2.61,2.85-.74,5.85-2.59,8.68-3.39.82-.23,1.91-.2,2.56-.41.3-.09,1.79-1.95,2.27-2.39,2.67-2.47,5.65-4.65,8.16-7.3,4.07-4.3,7.9-8.74,11.85-13.14.35-.39.99-.68,1.18-.94.28-.38.58-1.76.94-2.45.57-1.1,4.11-7.41,4.66-7.84.35-.27.83-.24,1.11-.48.52-.43.9-2.53,1.23-3.32,1.39-3.37,2-4.35,2.74-8.06.42-2.12,2.37-4.96,2.78-6.97.24-1.17.09-2.69.36-3.88.53-2.37,2.17-5.13,2.65-7.51.14-.72-.02-1.4.15-2.18s1.78-3.69,2.27-4.51c.44-.74,2.83-3.81,2.89-4.12.34-1.73-3.43-1.06-4.71-1.78-1.82-1.03-1.19-5.81-.92-7.64,1.7-11.78,12.56-21.79,23.55-25.16,6.63-2.03,15.37-2.2,22.18-1,2.4.42,3.96,1.1,6.41,1.43,2.25.3,9.86,3.18,10.95,5.14.34.61.68,1.87.58,2.57-.22,1.64-2.16,1.97-2.33,3.82-.21,2.32.61,5.41.86,7.85.22,2.18-.08,5.59.76,7.49,1.08,2.44,4.57,4.4,4.54,7.11,0,.67-.43,2.93-.65,3.6-.78,2.44-3.37,1.21-5.28,1.81v3.92c0,.68,2.37.11,2.85.1,2.87-.09,6.5-.14,8.78,1.82.38.33.52.75.85,1.05,1.01.92,1.93.62,1.93,2.53s-.71,1.28-1.71,1.91c-.51.32-.31.96-1.38.95-3.17-.05-7.72-.8-10.26-2.88-.82-.67-1.07-1.61-2.3-1.75s-.45,1.45-.46,2.19c0,.63-.35,1.23-.23,1.9.08.45.5.59.6.9.34,1.08-.41,1.83-.58,2.72-.09.46.06.98-.03,1.45-.13.69-1.05,3.06-.37,3.49s2.91-.74,3.15,1.62c-.34,1.63-.03,3.5-.24,5.07-.16,1.16-.68,2.45-.83,3.83-.12,1.09-.25,2.82,0,3.81,1.59.47,3.28.37,4.88.84.73.22,2.09,1.08,2.48,1.14.25.04.44.07.59-.18l2.41-11.36c.03-1.89.04-3.81.24-5.69.1-.89.38-3.84,1.1-4.19.64-.31,2.66-.22,3.13.48v1.91l-.66,7.28c-1.67,3.92-1.17,9.31-2.41,13.05-.23.7-.8,1.11-.92,1.62-.85,3.8-1.14,7.95-2.47,11.71-2.16,6.08-3.45,12.87-5.51,19.06-1.18,3.54-3.98,8.89-5.87,12.34-.67,1.23-2.65,4.76-3.47,5.64-.43.47-.93.53-1.25.87-.49.52-.66,1.75-1.3,2.51-.39.46-1.01.72-1.24,1.09-1.28,1.99-2.27,6.4-3.74,8.54-.31.45-1.23.91-1.67,1.51-2.67,3.67-3.4,4.72-7.1,7.51-.74.56-1.26,1.71-2.33,1.71-.22,0-3.64-1.45-4.06-1.67-2.08-1.06-4.06-4-5.19-6.03-.42-.75-4.15,5.11-4.83,5.9s-1.18,1.72-1.8,2.43c-.9,1.02-5.35,4.67-5.58,5.44-.12.42-.02.68.13,1.06.44,1.14,2.61,3.61,3.4,5.07.24.44.47,1.87.99,1.76.39-.09,2.4-2.6,2.86-3.07,1.2-1.23,2.56-2.26,3.5-3.7,1.5-1.01,3.03-3.83,4.44-4.67,1.1-.66,2.84,1.55,2.62,2.61-.08.4-3.22,3.92-3.77,4.5-.64.67-1.45,1.19-2.02,1.79-1.45,1.5-3.73,4.44-5.29,5.51-.72.5-1.55.34-2.01.74-.41.35-.55,1.41-1.17,2.01-.58.57-1.44.68-1.91,1.05-2.87,2.29-5.7,4.72-8.67,7-1.32,1.02-4.07,3.85-5.4,4.34-.41.15-.9.02-1.28.2-.29.14-.95,1.35-1.62,1.77s-1.92.5-2.14.72c-.18.18-.19.71-.38,1-.82,1.24-6.63,3.98-8.21,4.92-2.01,1.2-4.67,3.46-6.7,4.31-.72.3-1.46.24-2,.54-.5.28-.63.93-1.39,1.37-1.57.9-2.12.08-3.04.3-.25.06-.39.8-.63,1.01-.56.48-6.65,1.94-7.94,2.33-3.5,1.08-6.5,1.96-10.06,2.86-.55.14-1.06.64-1.58.75-.43.09-1.62-.03-1.73.07-.22.19-.03,1.7-.59,1.85l-14.37,1.32c-2.47,0-5.55-.06-8.01.23s-1.93,1.27-3.32,2.19c-2.15,1.44-2.39-.18-3.82-.81s-3.22-.23-4.74-.34c-4.06-.31-8.23-.13-12.13-.79-2-.34-4.72-.3-6.55-.86-.68-.21-.58-.59-1.15-.76-.93-.28-1.88-.03-2.81-.16-8.11-1.13-16.15-5.28-23.28-8.91-.64-.33-1.47-.24-2.07-.9-.28-.31-.28-.87-.68-1.04-.61-.25-1.03.41-1.9.25-2.66-.51-9.96-5.27-12.55-6.94-.97-.63-2.1-1.75-2.87-2.21-.6-.36-1.48-.38-2.09-.87-.46-.37-.64-1.05-1.2-1.34-.78-.41-1.7-.22-2.66-.73-2.51-1.37-4.63-4.16-6.74-5.97-1.69-1.46-4.55-3.15-5.95-4.64-.42-.45-.57-1.07-.94-1.39-.44-.39-1.15-.44-1.7-.84-1.07-.76-1.46-2.66-1.8-2.86-.3-.18-.86-.11-1.23-.25-.87-.33-3.9-3.89-4.69-4.84-.6-.72-.81-1.49-1.27-2.11-.76-1.02-5.55-5.06-5.47-5.89.07-.75,1.72-2.11,2.45-2.22.45-.07.68.15,1.01.39.46.33,4.2,4.25,4.56,4.76,1.43,2.05,2.28,3.68,4.13,5.62.54.56,1.35,1.77,1.99.92.9-1.2,1.57-3.02,2.48-4.3.61-.86,3.53-3.63,3.25-4.53-.26-.83-2.16-.48-2.83-.58-.8-.12-3.04-2.9-3.71-3.7-1.96-2.33-3.91-5.32-6.35-7.2-1.54-1.18-1.21.67-1.65,1.74-1.13,2.74-1.84,3.18-3.76,5.13-.34.34-.43.91-.74,1.17-.74.64-2.99.32-3.8-.21-.6-.4-.95-1.49-1.28-1.68-.4-.23-.95-.03-1.47-.44-.37-.3-1.42-2.1-1.79-2.65-3.02-4.5-6.48-10.83-8.84-15.72-.66-1.36-.97-3.36-2.39-4.18-.48-.28-.92-.12-1.41-.5-.42-.33-2.78-4.96-2.9-5.57-.15-.72.07-1.46-.14-2.19-.41-1.4-3.15-4.64-3.97-6.2-.76-1.45-1.67-4.03-2.19-5.64-1.11-3.39-2.93-6.6-4.02-10.17-.89-2.93-1.47-6.99-2.53-9.75-.21-.54-.78-.84-.91-1.42-.19-.83.2-1.45.12-2.03-.04-.35-.43-.87-.53-1.38-1.01-5.04-1.57-10.01-1.55-15.18-.13-.7-1.16-1.08-1.38-1.79-.47-1.51.94-3.45-.94-4.46,0-.14,0-.28,0-.42.03-.46.37-1.41.42-2.01.1-1.08-.05-5.13.79-5.57.55-.29,2.74-.17,3.05.31.67,1.06-.62,5.98,0,6.4.18.13.6,0,.82-.1,1.13-.47,2.51-1.56,3.83-2.1.53-.22,2.72-.73,2.87-.94.48-.69-.53-.85-.77-1.16-.43-.57.09-5.35.32-6.28.46-1.81,3.09-.17,2.57-2.54-.39-.53-4.77.43-5.73.45-2.17.04-4.15-.12-5.73-1.7-.88-.87-1.21-1.5-.9-2.82.54-2.33,5.76-2.61,7.69-2.49s3.83,1.01,5.81.85c-.19-.75.89-2.83.23-3.29-.62-.44-4.64.92-6.47-.52-1.14-.89-1.52-2.95-1.38-4.34.25-2.44,3.81-4.25,4.35-6.87.46-2.24.06-5.9.31-8.37.19-1.9,1.92-6.55,1.65-7.79-.42-1.94-3.53-.8-3.14-4.29.12-1.11,1.47-2.55,2.4-3.11,6.75-4.05,16.97-5.77,24.72-6.1h.64ZM14.96,156.14l-3.47-14.59c-.22-.33-.24-.13-.45-.04-.82.35-1.56,1.09-2.56,1.47-.84.32-1.71.47-2.57.71-.27.42.28,7.26.42,8.31.12.9.87,5.05,1.24,5.55.44.61,2.1-.49,2.75-.66.7-.18,4.48-.56,4.64-.75ZM275.7,177.76h4.13c1.25,0,3.7.91,4.84,1.52.39.21.61.76,1.19.59l5.71-20.86c-.05-1.01-1.53-.65-2.15-.78-3.71-.79-4.95-2.84-7.85-4.22-2.36-1.12-1.77.18-2.07,1.61-.2.95-1.1,2.33-.19,3.19.5.48,2.48.72,2.86,1.6s-2.27,6.13-2.54,7.42c-.3.63-.96.82-1.39,1.36-1.47,1.84.55,1.63.39,2.7-.12.86-3.37,5.46-2.94,5.88ZM12.89,176.68c.54.38,2.68-1.15,3.31-1.42,1.31-.55,3.51-.83,4.56-1.36.26-.13.41-.29.49-.58.09-.35-1.11-6.45-1.32-7.17-.16-.55-2.04-4.38-2.32-4.47-1.36.33-2.54,1.48-3.84,2.04-.69.3-1.8.67-2.53.85-.59.15-1.71-.2-1.93.63-.14.55,1.12,4.67,1.39,5.52.63,1.95,1.63,3.96,2.2,5.96ZM23.37,179.25c-.19.04-2.49,1.98-3.16,2.35-.53.29-1.16.62-1.72.82-.73.26-2.81.36-2.88,1.16-.02.28,1.62,4.8,1.88,5.33.78,1.61,2.61,3.39,3.3,4.96.33.76.25,1.39.5,2.04.18.47,1.84,3.85,2.06,3.86,1.1-.92,1.58-2.14,2.75-3.18.8-.71,3.35-1.98,3.45-2.88l-5.62-13.99c-.12-.21-.23-.55-.55-.47ZM283.72,186.25c-.13-.16-3.24-.42-3.95-.6-.57-.14-1.33-.42-1.88-.66-.73-.31-2.68-1.73-3.24-1.43-.22.12-2.66,3.83-2.8,4.2-.24.65-.1,1.21-.26,1.85-.3,1.16-2.84,4.11-2.5,5.01.32.85,3.36,2.3,4.29,3.13.67.6,1.71,2.27,2.11,2.55.17.12.44.18.62.08.25-.14,2.68-4.3,3.03-4.91,1.41-2.51,2.48-5.22,3.94-7.71.2-.35,1.2-.84.66-1.51ZM33.82,198.94c-.26-.18-.64.13-.85.3-.96.73-1.92,2.79-2.84,3.73-.51.52-2.54,1.59-2.62,1.72-.25.42,1.48,4.11,1.83,4.76,1.24,2.31,3.04,4.56,4.31,6.91,1,1.85,1.67,4.14,3.26,5.84.16.17.31.51.62.44.16-.04,1.28-2.4,1.59-2.86.75-1.17,2.68-3.06,2.54-4.42-.15-1.54-4.38-6.3-4.92-8.23l-.09-1.8c-.54-.75-2.55-6.19-2.84-6.39ZM267.17,216.45c.82-.63.77-2.35,1.29-3.26l3.22-6.32c0-.8-2.99-2.15-3.72-2.85-.64-.61-2.05-3.19-2.74-3.19-.23,0-.4.14-.53.32-1.45,2.2-2.92,4.4-4.48,6.53-1.36,1.86-2.95,3.6-4.29,5.46-.3.42-.8,1.01-.73,1.52.11.73,4.26,3.43,5.16,4.6.29.38.95,1.9,1.06,1.92.9.15,3.3-3.39,4.23-4.03.53-.37,1.16-.41,1.53-.7ZM233.06,237.28c-.34.03-4.54,3.93-5.23,4.53-.44.39-.73.97-1.07,1.26-1,.85-6.99,3.47-7.17,4.07-.24.81,2.71,3.53,3.33,4.45.85,1.27,1.21,2.68,2.05,3.84l11.89-9.49c.12-.23.09-.4-.01-.63-.24-.53-1.4-1.45-1.85-2.4-.7-1.49-.73-3.07-1.16-4.55-.1-.34-.32-1.12-.77-1.08ZM73.44,256.96c.12-.11.61-2.45.87-3.04.51-1.15,3.31-4.3,3-5.15l-12.97-10.23c-.65,2.2-1.34,4.44-2.66,6.34-.32.46-1.28.98-1.13,1.56s4.47,3.8,5.28,4.49c1.96,1.68,4.45,4.35,6.57,5.71.23.14.86.49,1.05.33ZM215.11,252.1c-.26-.18-.91.24-1.18.37-2.47,1.21-5.02,3.42-7.55,4.73-1.06.55-6.78,2.65-7.04,3.14-.35.65.69,1.24,1.05,1.71.67.87,1.72,2.17,2.2,3.09.55,1.05.7,2.21,1.21,3.24l14.83-8.68c.24-.49-.85-1.18-1.17-1.59-.35-.46-.79-.99-1.04-1.5-.39-.81-1.05-4.32-1.32-4.51ZM97.77,259.52c-.15-.23-4.27-2.09-4.91-2.39-1.29-.61-2.78-1.09-4.03-1.69-1.91-.91-3.56-2.42-5.72-2.74-.26.06-1.15,4.41-1.45,5.16-.45,1.12-2.12,2.68-1.33,3.55,1.96,1.05,3.86,2.71,5.76,3.77,2.43,1.37,5.39,2.34,7.81,3.83.26-.02,1.04-3.42,1.27-4.01.38-.97,2.97-4.92,2.62-5.48ZM121.5,268.2c-.22-.31-6.41-1.71-7.4-2.03-.65-.21-1.66-.59-2.34-.84-1.22-.45-7.16-3.31-7.91-3.06-.46.15-.94,3.95-1.18,4.76-.29.98-.92,2.34-1.38,3.28-.31.63-1.14,1.19-.97,1.97.05.25,3.69,1.71,4.26,1.94,1.67.67,13.78,5.18,14.39,4.56-.4-2.19,0-4.08.75-6.14.26-.7,2.08-4,1.78-4.43ZM177.22,267.55c-.45.53,2,3.21,2.37,3.87.26.47.69,1.56.86,2.1.19.6.49,2.97.92,3.12l15.96-4.96c-1.02-1.26-1.86-2.33-2.51-3.84-.34-.8-1.31-4.61-1.65-4.72l-15.95,4.44ZM153.92,276.76c.13,1.24-.09,2.65,0,3.92,6.57.06,13.19-.18,19.67-1.09.34-1.88-.85-3.39-1.4-5-.41-1.19-.99-3.75-1.48-4.66-.14-.26-.23-.46-.58-.48l-17.48.94c-.34.23-.19.68-.15,1.01.18,1.55,1.26,3.63,1.43,5.35ZM146.08,281.73c.23-.23-.44-3.65-.44-4.34s.23-1.29.24-1.9c0-.86.24-4.14-.43-4.46l-17.49-1.18c-.21.31-.21,5.65-.36,6.63-.25,1.67-1.65,1.98-1.62,3.53,1.6.4,3.28.4,4.9.71.51.1.84.5,1.53.59,2.08.26,4.32-.37,6.37-.22.8.06,1.56.37,2.32.43,1.65.13,3.32.23,4.98.22Z"/></svg>