<?xml version="1.0" encoding="UTF-8"?><svg id="Layer_1" xmlns="http://www.w3.org/2000/svg" viewBox="0 0 300 360"><defs><style>.cls-1{fill:none;stroke:#231f20;stroke-miterlimit:10;stroke-width:.25px;}</style></defs><path class="cls-1" d="M41.49,202.39c.19-.2.39-1.35.37-1.66-.05-.72-.77-1.17-.6-1.71.04-.13,1.25-2.08,1.42-2.33.24-.35.76-.7,1.08-1.19,3.24-4.82,4.23-9.9,7.99-14.42.83-1,3.81-3.68,4.14-4.47.21-.49.29-1.33.38-1.89.85-5.24,1.79-11.62,1.32-16.87-.2-2.17-2.34-4.02-2.59-6.66s.71-3.97.96-6.19c.08-.69-.04-1.39.04-2.07.36-3.33,4.24-4.62,5.8-7.52.42-.79.64-1.8,1.08-2.66,1.42-2.72,2.35-2.07,1.46-5.68-.34-1.4-.92-3.04-1.46-4.38-.31-.77-2.07-4.67-2.63-4.84-.36-.11-3.31.36-3.83.49-1.26.33-.64,2.49-1.13,3.42-.75,1.45-6.01,1.24-7.52,1.25-1.31,0-1.99-.08-3.24-.15-1.95-.12-1.35.39-2.29,1.61-2.52,3.29-6.61,1.12-7.94-2.1-.67-1.63-.61-3.55-2.05-4.78-1.6-1.37-2.92-1.17-3.77-3.54-1.12-3.14-1.44-10.46-1.26-13.86.11-2.03,1.96-6.21,3.66-7.39,1.21-.84,3.77-.18,4.7-1.3.5-.61,1.52-3.01,1.83-3.85,1.28-3.4,1.19-4.73.16-8.2-.57-1.92-1.59-3.84-1.99-5.81-.54-2.62-.33-5.79-1.1-8.33-.63-2.11-2.11-4.3-2.96-6.29s-.07-3.56-.26-5.43c-.11-1.12-.97-2.29-1.12-3.59-.17-1.49-.38-3.4-.49-4.87-.19-2.71,1.13-3.15,1.81-5.16.72-2.14.51-3.46,1.88-5.59,1.04-1.61,2.32-2.36,3.44-3.7.56-.66.99-1.68,1.62-2.28,2.12-2.01,6.94-2.45,9.79-3.05,1.43-.3,1.96-.71,3.62-.6,2.63.18,7.17,1.96,9.41,1.61.95-.15,1.74-1.34,2.54-1.85,2.22-1.41,6.24-1.4,8.76-2.28,2.4-2.2,3.34-5.09,6.28-6.87,3.43-2.08,6.54-1.18,10.2-1.32,1.58-.06,2.69-2.31,4.09-3.23,1.29-.85,1.07-.59,2.17-1.73,2.75-2.85,6.21-2.93,9.97-2.18,1.08.22,2.76,1.36,3.58,1.28.93-.09,1.76-1.38,2.46-1.94,1.83-1.47,6.08-3.22,8.44-3.26,1.02-.02,5.54.94,6.47,1.35,1.45.63,2.66,2.51,4.11,2.71,2.28.31,5.58-.9,8.1-.97,1.44-.04,2.95.42,4.23.33,1.2-.08,2.51-1.07,3.7-1.51,3.15-1.15,8.32-2.82,11.58-3.2,2.18-.26,3.2-.5,5.27-.9,4.54-.89,9.61-.42,14.01.95,2.43.75,3.65,2.18,5.66,3.43s4.52,2.17,5.91,4.33c.77,1.19.5,2.75.78,4.09.25,1.22.97,2.49,1.28,3.76.49,2,.93,4.07,1.39,6.08.58,2.53.09,3.05-.11,5.31-.1,1.14.06,2.42,0,3.58-.04.9-.38,2.02-.33,2.91s.63,2.1.79,3.11c.41,2.59.4,5.24.88,7.89.29,1.63.85,4.78,1.49,6.14,2.54,5.4,8.34,14.7,13,18.35,1.6,1.25,3.79,2.48,5.51,3.75,5.42,3.99,14.34,10.87,6.91,17.62-1.87,1.7-4.53,2.92-6.25,4.47-.51.46-.93,1.29-1.49,1.6-.73.4-2.51.66-3.43.95-.49.15-3.07.95-3.21,1.18-.36.58.71,1.73.98,2.27,2.19,4.28,1.96,9.09-.38,13.27-.73,1.29-2.1,2.59-1.94,4.15.26,2.6,4.43,10.76,5.95,13.23,1.95,3.17,5.88,6.2,7.37,9.69,1.64,3.87,1.38,8.16-.03,12.05-.73,2.01-2.54,4.06-1.66,6.2,5.56,9.03,11.1,18.14,15.98,27.56,2.33,4.5,3.73,9.19,5.84,13.65,1.68,3.55,4.02,6.96,5.42,10.67.71,1.88.92,3.74,1.68,5.63,2.36,5.83,5.43,11.99,8.13,17.7,2.17,4.6,3.56,8.28,6.85,12.32,3.98,4.89,8.3,7.87,10.56,14.13.73,2.03.85,4.59,1.59,6.37.47,1.15,1.9,2.35,2.6,3.57,1.61,2.84,2.69,5.51,2.26,8.86-.15,1.17-.79,2.5-1.05,3.66-.51,2.3-.72,4.78-1.43,7.02-.49,1.54-1.78,3.73-1.87,5.28-.07,1.12.66,2.48.93,3.62.52,2.18.5,4.68.54,6.93.07,3.46-.86,4.82-3.17,7.24-.69.72-1.7,1.31-2.23,1.99-1.14,1.45-2.15,3.67-3.14,5.3-.57.93-1.34,1.74-1.88,2.67-3.3,5.68-4.59,11.33-9.31,16.36-1.72,1.83-4.19,1.53-6.34,2.27-.73.25-1.26.74-1.91,1.01-2,.84-4.04,1.39-6.2,1.59-7.05.66-14.17,1.55-21.27,1.63-2.46.03-4.86-.69-7.31-.83-2.58-.14-5.08.38-7.63.5-3.94.18-6.26-1.04-9.8-2.24-.87-.29-1.93-.32-2.75-.66-1.79-.74-1.45-2.54-4.15-2.1-.79.13-1.6.76-2.46.76-1.25,0-7-1.24-8.09-1.82-.86-.45-1.37-1.14-2.36-1.54-2.1-.86-4.87-1.06-6.86-2.07-.75-.38-1.44-1.23-2.14-1.43-1.81-.52-4.25.32-6.08.52-4.27.45-8.65.26-12.81.67-2.57.26-2.9,1.68-4.38,3.25-1.01,1.07-2.46,2.22-3.33,3.33-.82,1.05-1.32,2.59-2.05,3.8-2.14,3.54-4.59,5.6-8.24,7.51-3,1.57-6.59,1.53-9.94,1.92-8.57,1.01-16.95,2.15-25.67,1.96-5.79-.13-11.74-.37-17.54-.81-2.82-.22-5.98-.36-8.71-1.03-3.27-.81-7.31-4.15-9.8-6.44s-4.78-5.85-7.91-6.87c-1.06-.35-2.33-.41-3.32-.9-.84-.41-1.5-1.3-2.27-1.79-1.42-.89-3.14-1.06-4.52-2.14-1.09-.86-2.29-2.72-2.81-4.01-.24-.6-.39-2.66-1.34-2.08-1.4.86.33,5.1-1.71,5.44-1.63.27-5.82-.56-7.13-1.62-4.2-3.36-3.26-9.99-1.14-14.29.49-.99,1.22-1.41,1.86-2.2,1.19-1.46,2.17-3.13,4-3.96,1.16-.53,4.75-1.23,4.94-2.69.25-1.88-.22-3.21.9-5.11.43-.74,2.04-1.69,2.15-2.08.26-.88-.11-2.6.07-3.66.15-.89,1.33-2.73,1.98-3.38,1.06-1.04,2.29-1.11,2.86-2.67.49-1.33.37-2.43,1.47-3.56,1.98-2.03,4.26-2.33,6.21-3.7,1.02-.72,1.26-2.74,1.41-3.96.29-2.47.22-5.15.49-7.63.77-7.1,2.99-13.81,3.74-21.12.22-2.13,1.13-3.33,1.42-5.08.45-2.72.52-3.01,1.42-5.57.4-1.12.52-2.28.81-3.41.4-1.56,1.7-3.34.25-4.63-2.17-1.93-6.09-3.38-8.2-5.28-1-.9-1.76-3.19-2.92-4.23-.66-.59-2.34-.85-2.76-1.47-.25-.38-.72-2.53-.71-3,.02-.82.77-1.3.91-1.82.28-1.07-.3-2.64-1.01-3.46-.67-.77-1.88-.86-2.43-1.79-.14-.23-1.49-3.78-1.52-4.01-.16-1.11.95-3.92,1.08-5.34.18-2.01-.34-2.36-1.69-3.63-.48-.45-1.55-.82-1.53-1.71.02-.96,1.31-.15,1.74-.6Z"/></svg>