<?xml version="1.0" encoding="UTF-8"?><svg id="Layer_1" xmlns="http://www.w3.org/2000/svg" viewBox="0 0 300 360"><defs><style>.cls-1{fill:none;stroke:#231f20;stroke-miterlimit:10;stroke-width:.25px;}</style></defs><path class="cls-1" d="M223.72,155.42c-.6-.81-2.74-1.12-2.23-3.09s3.65-2.61,4.49-3.54c.17-.19.2-.27.15-.54-.29-1.32-6.1-1.92-4.35-4.36.56-.78,1.31-.71,2.13-.44.56.18,3.13,1.36,3.64,1.67.92.55,1.84,2.37,3.1,1.55,1.43-.93-1.16-2.66-1.56-3.15-.35-.42-1.54-2.25-1.48-2.69.06-.48.67-.65.32-1.39-.24-.52-3.37-1.83-.43-1.93,1.83-.07,2.13.53,2.87,2.04.76-.12,2.1.5,2.62.47.34-.02.67-.32,1.09-.33s1.9.42,2.21.16c.15-.12.03-1.29.66-1.78.41-.32,2.08-.95,2.55-.64.74.48-.82,1-.98,1.59-.09.34.14.72,0,1.24-.18.61-.67.8-.88,1.26-.24.51-.16,1.09-.37,1.54-.47.99-2.55,1.78-2.81,2.92-.58,2.56,1.25,8.06-.46,9.73-.75.74-1.78.41-2.66.52-2.13.27-4.24.69-6.38.86-1.11.07-.88-1.18-1.22-1.65Z"/><path class="cls-1" d="M183.59,134.06c-.13.16-3.65,1.78-3.86,1.76-.94-.09-.99-1.44-1.38-1.97-.19-.26-.56-.32-.76-.56-.7-.84-.89-3.02-.64-4.07.18-.76.73-.96.99-1.56.34-.81.27-1.88.64-2.76.13-.3,1.17-1.77,1.38-1.82.31-.07.71.62,1.09.79.54.26,1.18.16,1.67.46.32.2,1.39,2.18,1.49,2.56.25.99-.65,1.48-.68,2.01-.02.46.51,1.01.53,1.48.01.43-.32.92-.35,1.34-.04.72.49,1.6-.11,2.33Z"/><path class="cls-1" d="M239.23,111.44c1.18-.23,4.47,1.3,4.84,2.5.15.49.03,1.02.19,1.51.13.41.58.62.71.99.1.29.71,2.71.71,2.92,0,.76-.72,3.17-1.5,3.41-1.54.48-1.84-.93-2.78-1.48-.41-.24-1.03-.24-1.38-.53-.49-.42-.81-2.48-1.4-3.27s-1.37-.57-1.23-1.92c.05-.5.42-.97.42-1.51,0-.85-.81-1.27.13-1.99.19-.14,1.08-.59,1.3-.63Z"/><path class="cls-1" d="M147.27,140.74c.34-.11,2.07-.09,2.52-.04,1.69.2,1.92,1.88,1.81,3.31-.62,1.43-.32,4.58-1.06,5.74-.45.72-2.67.91-3.51,1.37-1.72.31-2.53-3.16-2.07-4.2.17-.39.62-.64.85-1.06.17-.31,1.24-3.16,1.29-3.39.1-.47-.58-1.48.18-1.73Z"/><path class="cls-1" d="M0,137.52c.73-.99,1.53-2.4,1.23-3.67-.18-.76-1.06-1.03-.39-2.18,2.59-2.13,5.2-4.39,8.29-5.73.07-.31-.71-.92-.81-1.33-.35-1.41,1.42-2.87,1.33-3.9-.07-.83-.82-1.77-1.06-2.52-2.33-7.4-5.15-19.04-5.22-26.65-.02-1.67.89-2.81,1.04-3.87.13-.94-.78-2.32-.18-3.31.14-.22.58-.31.77-.55.57-.74.58-1.96,1.78-1.17s1.09,1.58,1.71,2.54c.69,1.08,2.34,1.87,2.87,3.29.49,1.31.3,2.91.62,4.06.14.52.96.69,1.27,1.27.42.78.08,1.55.22,1.89.09.22.51.4.63.65,1.11,2.14,1.65,6.55,2.29,8.97.56,2.11,2.54,5.33,2.88,7.75.08.59-.17,1.13-.12,1.41s.73.71.96,1.14c.55,1.01.43,2.4.79,3.45.25.74.9,1.29,1.07,2.11.32,1.56.36,1.89.83,3.41.8,2.55.33,3.82,1.8,6.42,1.19,2.1.85,2.18,1.55,4.24,1.15,3.35,3.19,7.36,4.5,10.79,2.67,7,4.66,14.98,7.68,21.4.47,1.01,2,3.74,2,4.61,0,.79-.45,1.18.03,2.08.36.67,1,.62,1.45,1.1.96,1.03,1.66,3.62,2.29,4.93,2.29,4.78,5.09,10.22,6.93,15.15.28.74.39,2.06.64,2.54.16.31.79.53,1.13.99.6.81.91,2.18,1.4,3.06,4.71,8.42,9.41,16.91,14.8,24.91.87,1.29,2.23,2.73,3.03,3.98.24.37.21.93.45,1.25.27.37,1.04.46,1.46.88.8.78,1.85,3.11,2.67,4.13s2.14,1.74,2.97,2.77c1,1.23,1.99,3.37,3.18,4.47,4.67,4.31,9.16,8.87,13.39,13.58.57.64,1.83,2.06,2.34,2.54.6.56,2.4,1.17,3.08,1.81.52.49.81,1.5,1.47,2.14.77.75,3.4,2.66,4.36,3.07.77.32,1.7.36,2.41.78.77.45,1.05,1.35,1.9,1.92,2.38,1.61,7.63,3.34,10.48,4.59,4.21,1.85,6.28,2.34,10.84,3.17,2.57.47,4.73,1.04,7.37.9,3.47-.18,6.64-.07,9.98-.2.65-.02,1.32-.56,2.13-.65,3.63-.4,7.01.06,10.52-1.16.41-.14.61-.54,1-.7,1.31-.52,2.98-.3,4.26-.63,1.01-.26,1.71-1.2,2.79-1.46.94-.23,2.31-.11,3.21-.4.59-.19.89-.91,1.26-1.07.55-.25,1.45-.08,2.17-.38.88-.37,2.09-1.53,3.16-1.93.68-.26,1.68-.24,2.1-.45.32-.16.41-.74.9-1.01.7-.38,1.89-.26,2.56-.63,1.59-.86,3.9-3.5,5.59-4.38.78-.41,1.52-.37,2.27-.7.7-.32,5.7-4.47,6.61-5.28,1.36-1.2,2.83-3.24,4.14-4.35.69-.59,1.68-.87,2.26-1.45,2.96-3,5.78-6.91,8.99-9.81.44-.4,1.19-.58,1.5-1.05.34-.52.52-1.5.96-2.23.68-1.12,1.9-2.12,2.64-3.09,7.9-10.46,14.8-22.42,20.49-34.09,3.42-7.01,6.51-14.11,9.47-21.32,7.21-17.53,13.95-35.26,19.99-53.28,2.72-8.1,5.19-18.89,8.88-26.37.34-.69.96-1.05,1.19-1.57.79-1.79.9-5.28,1.75-7.6.67-1.85,1.25-3.86,1.96-5.68.45-1.15,2.48-4.19,3.68-4.39,1.28-.21,1.83-.06,2.21,1.17.29.95.43,3.75.45,4.86.12,8.56-2.24,16.8-3.47,25.22l-2.27,9.09c.88.18,1.54.24,1.92,1.16.8,1.93.9,5.36,1.53,7.6.13.47.45.86.59,1.32.43,1.45,1.55,6.33,2.95,6.82.58.2,1.42.2,2.13.42,2.21.68,4.19,1.38,5.1,3.72v1.06c-.61.42-.76,1.46-1.18,1.9-.35.38-.97.39-1.25.87-.59.99-.56,4.34-.13,5.42.24.61,1.07,1.12,1.24,1.73.63,2.36-3.41,5.86-4.73,4.52-.43-.44-.82-3.05-.74-3.73.17-1.5,1.64-2.19,1.66-4.24,0-.55-.21-2.01-.82-1.25-1.07,1.33-.99,5.17-4.03,4.23-1.76-.55-1.25-3.13-.78-4.41,1.05-2.84,3.32-3.03,1.96-6.75-.9-2.44-1.85-3.73-2.49-6.43s-3-3.68-3.32-6.45c-.11-.91.14-2.01-.12-2.85-.12-.39-.54-.94-.87-.42-.4,2.36-.85,4.74-1.44,7.06-1.8,7.07-3.92,14.12-6.09,21.09-.48,1.53-2.13,4.92-1.91,6.35.12.76,1.09,1.36,1.45,1.96.35.56.57,2.16,1.4,2.19.72.03,1.13-.93,1.62.31.14.34.14.98.3,1.19.66.89,3.95-.33,4.88-.44,1.43-.16,3.13.41,4.48.63,1.17.19,1.88-.36,2.85.76,1.41,1.63-2.5,1.06-2.88,1.59-.35.48.52,1.13.31,1.78-.14.44-1.07.6-1.26.93-.3.52-.15,1.93-.55,2.21-.76.54-3.33-.2-4.21.62-.12.11-1.27,2.45-1.43,2.82-.28.65-.26,1.36-.63,2.13-.14.29-1.5,2.44-1.65,2.59-.75.74-1.98-.75-2.44-1.4-.83-1.17-2.35-5.5-2.46-6.89-.15-2.01,2.33-3.05,2.54-5.33.17-1.8-1.69-4.81-3.6-5.18l-1.48,5.42c-2.27,4.76-3.6,9.89-5.34,14.86.06.96,2.37,2.06,2.9,3.06,1.02,1.92,1.54,4.69,2.2,6.72.35,1.07,1.19,2.12,1.4,3.27.27,1.47-.11,2.47-.12,3.73,0,1,.69,3.89-.35,4.53-.46.28-2.54.4-2.8,0-.08-.13-.24-2.43-.26-2.82-.06-1.4.18-3.12,0-4.45-.11-.74-.63-1.17-.64-1.93-.02-1.26.96-1.41,1.21-2.43.84-3.51-1.98-5.5-4.31-7.41-1.07-.41-1.03,1.66-1.38,2.57-.72,1.87-2.42,6.11-3.38,7.66-.44.71-1.96,1.69-2.07,2.42-.06.44,1.65,2.77,1.83,3.82.28,1.65-.03,5.88.71,6.93.56.79,3.39,1.09,4.22,1.94.37.39.38,1.25.76,1.79.57.82,1.9.94,1.54,2.4-.55,2.23-3.03.82-4.41.59-.04.36.01.67.16,1.01.38.85,3.43,3.81,4.29,4.63.36.34.87.43,1.16.75.41.44.43,1.15,1.07,1.69,1.72,1.45,6.51.91,6.17,4.26-.22.31-.7.2-1.02.15-.75-.11-4.26-1.47-4.49-1.41-.78.18-.47,2.55-.7,3.33-.24.83-1.63,2.73-2.51,2.82-3.1.29-2.48-3.99-1.82-5.87.33-.95,1.32-1.98,1.03-2.92-.18-.59-1.07-.62-1.42-1.13-.45-.65-.39-1.77-.87-2.53-.63-.99-1.45-.87-2.23-1.38-.92-.59-3.68-4.37-4.11-5.45-1.04-2.61.08-4.83-.26-7.39-.04-.31-.69-2.37-.82-2.55-.14-.19-.38-.19-.54-.12-.52.22-.97,3.46-1.28,4.24-.44,1.09-1.58,3.08-2.19,4.18s-3.8,5.57-3.61,6.52c.07.37.77.57,1.03.87.82.95.28,4.31.42,5.74.3,3.12,2.01,4.09,3.26,6.5.31.59.37,1.28.68,1.87.52.99,2.14,2.91,1.99,3.93-.06.44-.46.75-.39,1.24.06.37.82,1.43.81,1.54-.36.55-.76.17-1.27.11,0,.44.11.97-.32,1.27l-.85-1.06-.95.63c-.2-.15-.33-2.04-.53-2.34-.37-.56-1.11.44-1.56-.35-.2-.34-1.22-4.88-1.29-5.51-.13-1.18.07-2.41-.03-3.58-.13-1.54-.81-2.84-1.04-4.27-.11-.68.07-1.37-.07-2.05-.07-.33-.98-2.35-1.33-2.28-.38.08-2.84,4.64-3.33,5.38-1.99,2.97-4.18,5.95-6.33,8.75-.34.44-1.84,2.47-1.89,2.81-.09.6.81.97.76,1.83-.1,1.74-2.07,3.56-1.64,5.45.95.23,2.22-.49,2.97.11.53.43.51,1.29.81,1.95,1.17,2.57,1.86,5.94,1.96,8.88.02.53-.28,2.98-.54,3.29-.81.95-3.21-1.57-4.57-.74-.27.16-.31.77-.78.91-2.1.65-1.65-.95-2.5-1.88-1.58-1.71-3.71.43-5.34.63-1,.12-2.13-.19-3.16-.2-.54-.01-1.58.55-1.76-.33-.07-.37.4-1.63.39-2.31,0-.32-.06-1.27-.55-1.17l-8.06,6.81c-1.05,2.47,3.46,6.8,4.2,9.17s-.09,7.84,2.07,9.39c1.65,1.19,2.27-.28,3.81-.83,1.93-.69,6.3-1.25,6.75,1.53.39,2.4-2.88,2.47-2.9,3.52,0,.39,1.09,1.21,1.44,1.32,1.62.51,3.3-1.1,2.99,1.69-.13,1.18-1.43,2.32-2.62,2.02-.14-.03-.45-1.01-1.01-1.37-.89-.58-3.38-1.69-4.45-2.13-.56-.23-4.05-1.46-4.32-1.38-.66.2-.45,4.61-2.52,5.56-.65.3-1.87.54-2.38-.06-.47-.56-.42-3.7-.31-4.54.18-1.33,1.29-2.82,1.46-3.85.35-2.24.19-6.72-.73-8.8-.3-.67-.99-1.29-1.36-2.04-.57-1.17-.87-2.64-1.41-3.9-.32-.74-1.22-2.99-2.08-2.92-1.26.1-4.08,3.82-5.13,4.83-3.21,3.08-7.5,6.71-11.17,9.21-.57.39-3.24,1.69-3.34,1.86-.17.28.08,1.08-.07,1.53-.12.36-.84.41-.99,1.15-.11.52.4,2.68.81,2.93.84.52,1.74-.94,2.42-.74s.14,1.04.14,1.39c0,.98,1.99.05,2.63.09,1.15.07,1.51,2.05,2.15,2.95.57.79,1.44,1.21,2,1.83s3.16,4.2,1.8,4.78c-.66.28-.67-.72-.98-1.14-.55-.75-.63-.04-1.17.25-2.27,1.25-5.2,1.57-7.28,2.91-1,.65-1.77,1.97-3,2.73-1.04.65-2.25.97-3.32,1.57-1.32.74-1.94,2.23-2.56-.75-.19-.93-.55-2.68-.67-3.58-.42-3.27,1.52-3.9,2.92-6.18.49-.81.65-1.83,1.09-2.52.56-.87,2.42-1.71,2.68-2.65.07-.26-.86-5.05-1.02-5.27-.43-.6-3.14.22-3.83.44-2.19.67-4.59,1.96-6.79,2.56-1.24.33-5.18.7-5.91,1.52-.82.92-.23,2.4-.2,3.41.04,2.04-.02,4.36.22,6.37.4,3.3,1.68,7.7,1.83,10.87.04.87-.02,2.87-.83,3.31-1.78.97-4.04-.03-4.35-2.12-.29-1.95-.12-5.34.26-7.28.29-1.47,1.37-2.84,1.75-4.41s.6-5.24-.8-6.3c-.4-.3-1.23-.49-1.49-.85-.51-.72.2-1.27-1.36-1.19-2.92.15-8.03,2.85-11.36,3.52-1.95.39-4.55.85-6.51,1.13-.57.08-1.88-.12-2.22.12-.53.37,0,1.96.02,2.55.04,1.35-.11,6.93.52,7.77.3.39,3.06.17,3.8.24,1.5.14,3.85.76,4.69,2.11,2.21,3.54-3.81,2.28-5.46,1.64-.65-.25-1.99-1.42-2.67-.99-.11.07-.47,2.29-.47,2.63,0,2.27,1.75,2.58,3.09,3.72,1.08.92,3.6,3.26,3.88,4.61.68,3.25-1.91,3.2-3.77,1.44-.73-.69-2.15-3.51-2.33-3.62-.83-.53-1.86,1.98-1.91,2.59-.05.74.41,1.41.42,2.11.02.74-.41,1.33-.45,2.11-.07,1.71.8,3.49-.31,5.2-.3.46-.91.76-1.16,1.28h-1.7c-2.54-1.91.92-5.15.38-6.86-.1-.33-.56-.47-.59-.88-.08-1.42,2.65-5.08,2.24-6.49-.55-1.9-3.4.93-4.36,1.39-3.03,1.44-4.58-.42-2.73-3.16.63-.94,2.67-2.36,3.71-2.87.92-.46,2.53-.7,3.13-1.12.74-.52,1.52-4.58.21-4.83-.96-.18-3.54,3.55-6.12,3.14-.71-.11-1.53-.86-1.6-1.6-.22-2.22,5.11-4.38,6.99-4.56l-1.67-8.39c-1.15-.28-2.05.21-3.25.06-2.34-.29-5.18-2.13-7.73-2.26-1.05-.06-1.89.54-2.92.4-1.2-.16-3.29-1.96-3.81-1.86-.46.09-1.77,2.61-1.63,3.21.05.2,1.29.74,1.6,1,.23.19,2.33,2.32,2.42,2.46.28.44.25,1.15.43,1.69.21.59,1.07,1.21.44,1.9-.15.16-3.72,1.83-4.03,1.91-1,.26-2.54-.03-3.3-.74-.54-.5-.68-1.45-1.16-2.03-1.12-1.34-1.34-.35-2.38-.04-1.9.57-5.42.67-6.76-1.07-.39-.51-1.61-4.02-1.45-4.57.09-.31,2.22-1.95,2.65-2.24.83-.55,3.31-1.62,3.68-2.05.52-.6.4-2.68.1-3.3-.34-.73-2.14-.31-2.93-.47-1.4-.28-3.77-1.92-4.96-2.68-2.76-1.76-5.66-4.03-8.65-5.37-.68-.3-1.57-1.42-1.82-.07-.13.69-.18,2.55-.22,3.39-.13,2.71.43,5.36-.33,7.96-.3,1.04-1,2.13-1.28,3.18-.34,1.29-.04,2.94-1.26,3.83-1.06-1.63-1.44-.11-1.91-.21s-.26-1.22-.32-1.27c-.17-.17-2.03.45-1.22-1.75.3-.8.93-1.04,1.11-1.44.21-.48,0-1,.22-1.48.19-.43,1.29-1.06,1.48-1.49.24-.53.04-1.26.21-1.91.22-.87,1.25-1.51,1.68-2.35.85-1.66.96-4.6.74-6.43-.05-.43-1.01-3.91-1.15-4.16-.18-.32-1.48-1-1.85-1.12-.67-.21-2.7-.09-3.44.05-.54.1-.8.78-1.58.97-.92.23-2.97.13-3.68.51-.15.08-1.29,2.15-1.99,2.73-.48.4-4.63,2.4-5.39,2.68-.37.14-.82.46-1.18.14-.39-.35-1.71-4.8-1.74-5.5-.03-.63.24-2.22.43-2.86.16-.55.77-1.32.77-1.76,0-.55-.75-.96-.61-1.46.12-.43,1.53-.71,2.01-.98.55-.31.91-.81,1.43-1.11.67-.39,2.25-.56,2.02-1.29-1.1-1.34-1.97-3.32-3.03-4.62-.96-1.17-2.45-1.77-3.51-2.65s-2.98-3.4-4.25-4.67c-.45-.45-1.35-2.24-2.08-1.03-.81,1.35-.84,6.38-.67,8.03.13,1.24.85,2.56.86,3.83.02,1.73-.24,5.03-.81,6.64-.82,2.32-1.91.53-3.16.47-.51-.02-.84.54-1.25.43-.7-.19.4-2.62.5-3.32.36-2.51-.36-5.67.87-7.84.42-.74,1.34-1.44,1.6-2.22.34-1.01.88-5.48.2-6.16-.38-.38-1.34-.3-1.55-1-.36-1.21.68-2.37.28-3.25l-5.72-6.17c-.46-.51-1.39-.88-1.82-1.37-.37-.43-1.68-3.25-2.03-3.31-1.94-.31-2.54,5.38-2.17,6.66.17.58,2.09,2.92,2.54,3.83.89,1.79,1.49,5.11-.45,6.42-1.33.9-3.07-1.47-3.51-2.67-.35-.96-.4-4.27-1.64-2.27-1.02,1.65-1.66,4.73-2.53,6.17-.36.6-1.28.91-1.41,1.34-.51,1.66.97,3.46-.09,5.65-.51,1.04-3.65,1.7-4.09.79-.32-.66-.01-2.64.28-3.34.53-1.3,2.24-1.86,1.74-3.67-1.52,0-2.53,1.04-4.14,1.08-2.69.06-4.72-1.06-2.66-3.73,1.16-1.5,3.4-1.88,5.19-2.03,1.17-.1,3.14.41,3.91-.55.25-.32,1.4-2.47,1.56-2.9.25-.66.22-1.39.51-2.04.32-.73,1.07-1.14,1.4-1.78.38-.73.76-2.6-.35-1.63-.34.3-.52.96-1.1,1.45-1.31,1.09-3.69,1.87-3.89-.52-.18-2.2,2.37-5.33,4.17-6.42.9-.54,2.31-.67,2.8-1.44.23-.37.66-1.67.67-2.1.01-.3-.57-3.92-.68-4.1-.17-.27-1.56-.13-2.2-.67-2.19-1.85-3.02-6.45-3.97-8.98-.56-1.5-1.69-3.33-2.18-4.83-.36-1.11-.33-4.18-1.5-4.66-.45-.19-.27.31-.32.52-.82,3.73.09,6.95-.21,10.62-.05.61-.84,5.26-1.06,5.42-.13.09-.85-.35-1.05-.21-.14.1-.26,1.72-.75,1.48-.76-.34.17-2.94-.43-2.97-.32-.01-1.54,1.4-2.23,1.06-.57-.56,2.76-5.99,3.16-6.95.29-.77-.85-.57-1.02-1.04-.33-.96,1.47-2.36,1.95-3.11.86-1.34.88-3.54.48-5.05-.08-.32-.44-.54-.53-.96-.2-1.06.34-2.29-.13-3.26-.15-.31-1.72-2.36-1.89-2.35-.83.55-.95,3.29-2.03,3.08-.39-.07-2.75-1.34-3.23-1.64-.91-.56-2.37-2.02-3.18-2.35-.95-.38-1.9.04-3-.39-.38-.15-2.73-1.7-3.09-2.01-1.85-1.57.3-2.95,1.14-4.15,1.26-1.79,2.39-4.78,4.43-5.55.76-.29,2.38-.13,2.03-1.29-.17-.56-.79-.46-.6-1.73.13-.88,1.14-1.51,1.26-2.14.44-2.3-2.22-6.44-3.07-8.6-.45-1.15-1.12-4.42-1.79-5.17-.12-.13-3.18-.76-3.47-.73-.57.06-1.31.52-1.42,1.13-.28,1.48,1.24,7.15,2.23,8.38.33.41.83.51,1.13.99.69,1.08,1.04,3.99.24,5.02-.31.4-2.08,1.25-2.6,1.18-3.18-.42-2.03-4.14-1.91-6.38l-2.28-5.81c-.66-.42-.89.48-1.28.87-.85.85-2.66,2.74-3.66.89-1.07-1.97,1.06-5.35,2.39-6.84.44-.5,2-1.54,2.06-1.65.58-1.01-.09-3.23.72-4.7,1.2-2.15,2.56-4.08,2.52-6.83,0-.6-.41-1.02-.38-1.64.08-1.45,1.44-2.79.56-4.49-.57-1.12-1.57-.83-2.49-1.12-1.56-.49-1.56-3.8-2.06-5.16-.1-.27-.97-1.91-1.08-1.93-.97-.21-1.32,1.16-2.11,1.29-.92.15-1.44-.54-2.32-.64-2.33-.29-5.9.02-7.74,1.61-.47.41-1.06,2.01-1.61,2.02-.66,0-1.75-3.07-2.23-3.62v-1.91ZM11.25,125.42c-.75-.51-1.6,1.61-.75,2.35.42.37,1.3.65,1.4-.12.03-.23-.56-2.16-.65-2.22ZM226.75,250.3c.16.16,2.84-1.14,3.17-1.39.78-.6.97-1.74,1.63-2.19s2.23-.52,2.73-1.09c.46-.53,1.07-3.32.45-3.84-1.23-1.03-2.79,2.45-3.31,3.1-.46.58-5.09,5-4.67,5.41Z"/><path class="cls-1" d="M216.35,33.03c1.55.52,1.91.82,2.1,2.47.43,3.81-1.38,12.99-2.84,16.64-.36.9-1.71,2.91-1.6,3.71.08.55.69.7.81,1.12.19.63-.04,1.56.06,2.27.34,2.48,2.72,1.31,3.26,2.26.46,1.47.92,3.61,1.65,4.93.26.47.83.74.96,1.16.09.27.49,2.26.47,2.48-.12,1.25-1.59,1.03-1.7,1.51s1.42.98.66,1.93c-1.15,1.44-2.04-1.39-2.58-1.71-.8-.48-1.83.25-2.54-.64-.56-2.37-2.64-5.57-2.02-7.98.34-1.31,1.69-1.06,1.34-2.6s-1.44-.98-1.88.15c-.64,1.63-.93,4.63-1.4,6.46-.42,1.64-1.09,3.23-1.5,4.87-.33,1.36-.24,2.73-.9,3.98.2.3.38.32.72.32,2.37.04,4.36-1.9,5.95,1.06,1.25,2.32.88,3.63-.21,5.94s-2.87,2.54-3.38,3.41c-.32.55-.49,2.49-.8,3.44-.22.67-1.09,2.72-1.57,3.1-1.46,1.15-4.64-.46-5.56-1.81-.33-.49-1.19-2.74-1.31-2.83-.26-.19-.48.18-.59.36-.29.49-.88,2.97-.9,3.58-.03.95.45,1.86.45,2.75,0,.83-.58,1.78-.45,2.54s1.26.68,1.59,1.18c.11.17.68,2.21.71,2.5.1.97-.4,1.72-.4,2.7,0,1.29.07,2.24.02,3.61-.01.4.25.83.23,1.28-.06,1.4-2.37,1.61-2.37,2.33.3.92,2.44,1.5,2.48,2.55.02.4-.88,1.79-1.19,2.13-1.81,1.94-6.03.25-6.37.75-.36.53,1.53,1.58,1.85,2.28.61,1.33-.37,3.92-1.12,5.13-.3.47-1.92,2.53-2.33,2.57-1.01.1-5.07-2.67-5.71-3.63-1.16-1.74.13-3.22-.53-4.14-.57-.8-2.67-.62-2.78-.73-.44-.44,1.4-2.04,1.81-2.34,1.17-.84,3.42-.99,3.83-2.33.08-.26.31-3.61.27-3.89-.03-.2-.36-.92-.53-1.03-1.44-.93-1.64,1.18-2.15,2.07-1.47,2.55-4.36,6.33-6.4,8.46-.25.26-2.13,1.94-2.28,1.98-.52.12-1.41-.54-2.1.01-.32.26-.44,1.36-.68,1.86-1.1,2.31-4.64,3.93-6.51,5.6-1.13,1.01-1.25,2.85-1.38,4.35-.07.81-.25,3.31.1,3.93.26.46,2.05.56,2.66.74,1.52.45,3.26,1.32,4,2.79,1.05,2.07-2.08,3.3-3.09,4.71-3.27,0-6.86.98-10.1,0-.82-.25-2.56-2.5-2.87-3.28-.22-.54-.41-1.5-.46-2.08-.17-1.74.48-4.67-1.44-5.58-.78-.37-2.44.37-3.4.53-.61.1-2.83.14-3.09.31-.7.45-.24,1.91-.89,2.51-.68-.39-.38-1.79-.89-2.13-.72-.49-2.58-.56-3.47-.94-.56-.24-.8-.68-1.43-.9-.99-.34-1.59.02-2.48-.05-1.26-.1-2.45-.85-3.52.09-1.19,1.05-.64,1.76-.86,2.96-.39,2.14-.74,3.11-1.57,5.01-.37.84-.37,2.55-.96,3.08l-10.77.59c-.83-.34-2.72-4.39-2.8-5.28-.18-1.87,1.89-3.66,3.59-4.02.67-.15,2.28.01,2.66-.52.25-.35.56-3.37.4-3.77-.28-.67-3.49-.88-4.47-1.29-3.22-1.33-5.58-5.42-7.81-7.91-.35-.38-2.24-2.34-2.56-2.34-.75,0-2.05,3.01-1.49,3.84.32.47,1.62.02,1.62,1.8s-.36,5.36-.68,7.2c-.14.78-.72,2.96-1.02,3.66-.32.75-2.87,1.64-3.64,1.49-.97-.19-.75-.7-1.17-1.18-.49-.55-1.27-1.08-1.36-1.84-.1-.84.41-1.57.43-2.33.05-2.08.1-4.11.19-6.18.04-.84-.73-2.78.76-2.82,1.14-.03,2.17,1.27,2.87.52.21-.22.8-1.63.83-1.94.15-1.25-.98-2.16,0-3.38.36-.45,1.27-.72,1.27-1.26,0-.29-1.39-3-1.64-3.67-.52-1.39-1.31-5.09-2.61-5.69-.28-.13-.35-.13-.63,0s-2.65,3.24-2.88,3.72c-1.2,2.49.13,2.46.1,4.11-.09,4.39-3.57,6.52-7.6,6.7-.28-2.15-1.6-4.97-.03-6.88.5-.61,1.3-.76,1.75-1.44.19-.28,1.04-2.85,1.01-3.02-.05-.34-.31-.25-.56-.15-.95.4-1.78,1.39-2.78,1.68-.52.15-3.09.68-3.56.7-.95.04-1.17-.3-.51-.95.96-.95,2.98-.9,4.17-1.56.96-.54,1.16-1.56,2.5-1.55.44,0,.87.25,1.26.22.83-.05,2.16-1.37,2.63-2.04.39-.56,1.99-3.21,2.21-3.75.39-.97-.31-.98-.78-1.65-2.11-3.04-4.07-6.37-6.25-9.26-.14-.18-.19-.62-.27-.67-.91-.57-.97.78-1.27,1.32-.55,1.02-1.35,2.01-1.46,3.21-.23,2.59,1.46,1.04,2.02,2.23.45.95-.15,4.95-.45,6.13-.25.97-1.08,1.31-1.15,1.84-.09.67.8,2.22-.31,2.43-.98.19-1.55-.33-2.44-.43.01.38.02,1.43-.25,1.65-.04.03-.28-.12-.39-.04-.16.1-.16.43-.23.48-.06.05-1.52-.1-1.58-.15-.52-.44-.22-1.69-.57-2.1-.38-.44-1.58-.02-1.64-1.24-.04-.72.36-.98.41-1.48.16-1.56-.26-5.53,2.21-5.39.46.03,1.45.65,1.61.08.39-1.39-1.87-.32-1.46-2.1.38-1.66,2.29.3,3.02-1.02.1-.19,1.21-3.89,1.22-4.11.03-.88-.91-1.45-.83-2.71.12-1.88,1.46-1.61,1.65-2.19.15-.47.08-2.71-.13-3.2-.92-2.16-3.71.18-4.99-.09-.84-.17-2.62-2.32-3.42-2.08-.52.16-.55,1.92-.89,2.52-1.21,2.17-4.27,2.63-6.47,2.05-2.6-.68-.35-4.53-1.24-5.93-.33-.52-1.93-.37-2.12-.91-.62-1.79,1.84-1.97,1.86-2.77s-2.03-.59-1.36-1.57c.28-.41,2.62-.5,3.35-.69.8-.21,2.29-1.32,2.95-.49.28.35.23,1.65,1.12,1.38.61-.19,1.55-2.85,1.94-3.38.52-.69,1.95-.84,2.02-2.25-1.29-2.68-1.87-5.77-2.97-8.49-.58-1.43-1.48-2.84-2.17-4.2-.14-.28-.5-2.02-1.02-1.63-.17.13-1.08,3.75-1.05,4.13.07,1,1.25,1.09,1.44,1.76.23.81-.44,1.23-.39,1.85.03.43.43.69.39,1.24-.1,1.18-1.39,4.13-1.78,5.46-.13.44-.03.94-.15,1.34-.8,2.83-.98,2.04-3.34,2.82-.75.25-1.21.97-2.13.74-.43-.93.86-1.54.86-2.02s-.56-.42-.72-.79c-.62-1.43.79-3.22,1.24-4.41.76-2.04.37-3.99,1.64-6.01.46-.74,1.57-.56,2.09-1.73.19-.43.43-1.46.43-1.93,0-.98-.83-2.89-.58-3.58s1.1-.69,1.21-1.31c-1.35-6.1-3.2-12.17-3.2-18.48-.33-1.9,2.45-3.07,3.81-2.31,2.29,1.29,2.77,3.15,3.63,5.5,1.32,3.61,2,7.3,3.57,10.87.69,1.58,1.74,3.1,2.41,4.59,4.08,9.03,7.5,18.26,11.88,27.2,1.73,3.53,3.92,6.88,5.39,10.54.16.4.03.87.21,1.28.46,1.06,2.89,2.92,3.54,4.32,1.29,2.75,1.72,2.5,3.24,4.62.46.64.68,1.54,1.21,2.18.57.69,1.57,1.25,2.18,2.06,1.67,2.22,3.53,6.89,5.33,8.69.33.33,1.01.33,1.48.64,1.5.97,2.72,3.07,4.03,4.04.67.5,1.62.71,2.22,1.18,5.9,4.53,10.52,5.41,17.95,5.43,2.05,0,2.87-1.1,4.05-1.28.78-.12,1.3.21,1.9.2,2.01-.03,4.04-1.69,5.69-2.8,1.15-.77,2.16-1.61,3.35-2.39.58-.37,1.69-.72,2.1-1.09.79-.74,2.03-2.75,2.87-3.71,4.12-4.7,8.87-9.49,12.52-14.45,4.92-6.7,8.38-14.4,11.82-21.94.67-1.46,1.86-2.78,2.56-4.23.92-1.89,1.42-4.32,2.32-6.17.37-.76,1.16-1.44,1.4-1.99.31-.72.19-1.6.41-2.35,1.07-3.56,2.91-6.96,4.21-10.45,1.97-5.27,3.54-10.8,5.4-16.05.76-2.12,1.77-4.5,3.83-5.62h1.7ZM196.55,110.08c.25-.25.51-2.35.48-2.81-.05-.8-.57-1.38-.65-2.13-.13-1.25.99-2.82-.31-3.51-1.18,1.69-4.19,3.9-4.16,6.05,0,.59.46,2.99.91,3.25.37.22,3.49-.61,3.73-.85Z"/><path class="cls-1" d="M256.21,96.48c-.36.35-.92.04-1.48.96-.83,1.36.31,2.32-.81,3.22s-3.43,1.62-4.79,1.8c-.83.11-2.17-.18-2.85.13-1.1.5-2.07,2.68-2.87,3.5-.6-.55-.66-1.59-1.3-2.09-.52-.4-2.87-1.4-3.38-.88-.15.15-1.51,3.72-1.49,3.94.05.69,1.39,1.31,1.17,2.08-.13.42-.78.4-.99.62-.72.73-2.03,11.14-2.49,13.12-.2.86-1.27,2.41-.4,2.93.64.38,2.55.56,3.52.93,1.03.39,3.06,1.61,3.13,2.83.08,1.3-2.3,4.91-3.65,5.25-1.87.48-7.27.33-8.67-1.23-.52-.58-.53-2.52-1.48-1.92-1,.62-2.3,6.06-3.06,7.55-1.08,2.1-2.73,4.23-3.91,6.5-1.35,2.6-2.18,3.83-3.73,6.25-.51.79-2.16,3.5-2.36,4.22-.4,1.42.75.9,1.66,1.33,1.73.81,1.19,2.44,1.47,3.84.04.19.98,2.14,1.07,2.22.63.61,2.54-.32,4.07,1.55.84,1.03,3.05,5.65,2.35,6.79-.11.17-3.26,1.97-3.49,2.03-1.29.31-4.04.02-5.06.46-1.5.65-1.05,4.2-4.14,3.4-.37-.1-3.1-1.65-3.35-1.96-.5-.63-1.4-3.62-1.48-4.47-.16-1.73.22-3,1.02-4.5.34-.64,1.35-1.05.7-1.89-.74-.94-1.77.82-2.19,1.46-.96,1.43-1.33,2.95-2.51,4.29-.42.48-1.89,1.56-2.01,1.81-.17.38.04,4.07.11,4.77.04.44.27,2.01.42,2.29.28.52,2.08.26,2.45,1,.31.64-.06,1.7.15,2.4.14.48.94.74,1.02,1.55.07.69-.39,1-.42,1.48-.08,1.15,0,1.46-.21,2.76-.08.55.08,1.18-.01,1.69-.13.7-1.12.71-1.6,1.16-.37.35-.49,1.12-.88,1.25-1.48.5-1.43-1.61-2.08-1.69-1.03-.12-2.57.34-2.45,1.59.04.45,1.21,2.18,1.59,2.47.77.59,1.99.45,2.85.97,2.74,1.62,1.79,5.97,1.71,8.58-1.31-.3-2.71-.4-3.99-.78-.96-.29-3.28-1.71-3.92-1.52-.38.12-.66.91-1.23.51-.84-.59-.39-5.37-.84-6.59-.41-1.11-1.53-.95-1.68-2.58-.12-1.28.91-1.92.53-3.7-.15-.73-1.46-3.01-2.31-2.72-.38.13-3.18,4.87-3.7,5.65-.48.72-1.61,1.77-1.73,2.51-.14.88.38,5.22.82,5.9.37.58,2.02.05,2.07,1.12.08,1.71-.96,1.38-2.27,1.36v1.28c1.14-.02,2.84-.28,2.55,1.37-.24,1.34-2.15.74-2.34,1.71-.38,1.91,1.43,1.44,1.68,1.83.22.34-.14,1.6-.52,1.87-1.21.85-1.81-.82-2.11-.83-.51,0-.41,2.7,0,3.18.49.57,1.81-.29,2.02.74.4,2.02-1.33,1.14-2.61,1.42-.67.15-2.39,1.98-2.87-.2s1.29-.96,1.65-2.18c-.82,0-2.38,0-2.55-.97-.15-.87.31-1.32.36-1.93.04-.55-.28-1.18-.14-1.88.11-.59.71-.72.81-1.11.18-.66-.54-2.09.66-2.51.41-.14,2.48-.14,1.44-.79-.73-.45-1.99-.37-1.6-1.7s2.44-.37,2.69-1.14c.16-.49-.51-4.55-.77-5.12-.1-.21.05-.34-.36-.27-.58.1-1.43,1.03-2.05,1.36-1.88,1.01-7.03,1.97-9.23,2.23-1.02.12-2.99-.32-3.58.45-.51.66-.5,5.64,0,6.36.35.5,2.82,1.02,3.69,1.62,1.88,1.29,2.61,2.54,1.47,4.63-1.87,3.45-8.15,1.34-11.34,1.84l-.75-.31c-.41-3.01-.63-6.02-.71-9.06-.08-.88-2.72-3.66-3.31-3.91-1.04-.45-4.09.51-5.41.53-.49,0-1.99-.15-2.53-.23-1.81-.26-2.14-1.53-3.05,1.02-.26.73-.97,3.79-.12,4.06.98.31,3.23-.31,2.84,2.04-.31,1.87-2.37.19-2.87.19-.99,0-1.32,1.46-.16,1.8.89.26,3.03-.95,2.6.98-.27,1.2-1.7.51-2.54,1.08,0,1.95,3.72,1.46,3.12,3.14-.52,1.49-3.25-.51-4.38.38-.32,2.94,3.22.17,3.58,2,.61,3.11-2.78,1.24-2.96,1.38-.38.27.15,2.82-2.4,1.87-1.21-.45.53-2.45.19-2.94-.44-.64-3.18-.28-3.49-.65-.52-.62.62-1.8.71-2.29.1-.54-.28-1.3-.05-2,.09-.3.49-.46.56-.72.19-.71-.91-2.38.7-2.9,1.03-.33,1.94.35,1.67-.99-1.23-.08-3.43.28-2.98-1.56.21-.87,2.67.06,3.12.06,1.35.01,1.02-1.9,1.23-2.77.2-.79,1.32-2.53.76-3.07-.15-.15-3.92-1.19-4.13-1.16-.37.05-1.71,1.1-2.01,1.41-2.48,2.56-1.28,7.61-1.73,10.8-.22,1.51-.84,2.38-2.43,2.41-1.81.03-5.78-.64-7.39-1.48-.34-.17-2.61-1.67-2.81-1.86-1.14-1.11.81-3.16,1.74-3.8,1.26-.86,5.14-1.66,5.57-2.29.52-.76-.31-1.28-.55-1.95-.3-.83-.52-3.5-.05-4.17.22-.31,1.37-.53,1.05-.97-.39-.53-4.9-1.15-5.77-1.34-1.6-.34-3.25-1.27-4.61-2.18-.68-.46-.95-1.39-2-1.17l-1.58,4.37c-.03,1.73,2.13.54,1.85,3.37-.26,2.59-2.65,5.19-2.62,8-1.13.14-3.86,1.94-4.79,1.38-.46-.28-.45-1.45-.69-1.75-.3-.37-1.6-.34-1.82-1.05-.12-.38.25-3.75.43-4.16s.68-.43.9-.8l1.91-4.25c.93-.84,2.94-.24,3.74-1.14.54-.6.31-1.72.51-2.46.14-.54.88-1.21.92-1.62.1-.98-2.57-2.18-3.33-2.75-1.25-.93-3.04-2.26-4.15-3.28-.64-.59-2.89-3.54-3.59-3.38-.15.04-1.58,2.36-1.66,2.59-.85,2.52,1.74,2.04,3.46,3.01,2.59,1.47,1.84,5.35.81,7.63-.13.28-1.14,2.09-1.25,2.15-.62.38-4.34-.83-4.97-.35-.33.25,0,2.42-1.29,2.34-.24-.01-2.26-.9-2.34-1.04-.22-.38-.2-1.72-.42-2.34-.24-.68-.84-1.11-.91-2.08-.06-.79.35-1.73.17-2.59-.88-.15-1.89.21-2.72.08-.39-.06-4.07-1.58-4.2-1.77-.71-1.02,2.55-2.82,2.44-3.49s-1.41-.94-1.98-.79c-.19.05-.36,2.69-2.03,1.38-.7-.55-.25-1.64-.59-2.38s-1.86-.8-1.52-1.82c.14-.43.91-.4,1.21-.92.22-.38.2-1.04.42-1.49.19-.41.65-.67.8-1.11.2-.59.04-1.31.43-1.91s1.29-.56,1.48-.85c.45-.66-.53-1.94.89-2.3.98-.25,1.35.25,2.01-.96,1.23-2.24.4-3.97.85-5.94.23-.99,1.34-.6.92-2.08-.39-1.38-2.01-.12-2.71.09-1.84.54-1.52.33-3.17,1.3-1.48.87-2.46-1.05-3.48-.95-.72.07-.75,1.08-1.33,1.25-.53.16-.97-.19-1.44-.18-1.94.03-3.37,2.01-5.54,2.33-2.35.34-1.69-2.31-2.54-3.59-.53-.79-1.7-.54-2.08-1.74-.51-1.64.23-5.49,1.7-6.52,1.24-.86,3.46-.16,3.66-1.64.25-1.88-.28-2.57,1.39-4.14.41-.39,2.54-1.59,2.62-1.73.33-.56-.45-1.9-.84-2.37-1.33-1.61-2.83-3.32-4.09-5.04-1.53-2.08-2.93-4.32-4.36-6.47-.96-1.29-1.75,2.12-1.87,2.82-.35,2.09,1.53,1.75,2.82,3.02,1.51,1.49,1.47,2.81.56,4.61-.55,1.08-1.73,2.94-2.95,3.21-1.3.28-4.8.73-6.07.67-.37-.02-1.22-.21-1.53-.4-.14-.08-2.21-2.26-2.28-2.41-.32-.78.26-1.58.27-2.38,0-.74-.56-4.31-.88-4.85-.29-.49-.98-.85-1.15-1.4-.32-1.01.37-1,.73-1.63.81-1.46.77-2.09,2.68-2.63,3.04-.86,3.5,1.49,3.09,3.94,0,.19.43.14.53.1.58-.25,1.36-2.97,1.72-3.59.27-.45,1.19-.85,1.16-1.17-.11-1.07-3.14-4.52-3.66-5.91-.56-1.48-.18-3.13-.83-4.59l-5.29.93c-2.36,1.34-4.15.66-6.22-.77-1.07-.74-1.39-1.47-1.15-2.78.49-2.7,4.62-3.36,4.96-4.61.24-.89-1.28-2.59-1.39-3.53-.16-1.3.74-1.43.85-2.11.21-1.32-1.25-1.22-2.13-.94.77,1.83.66,2.34-1.49,2.12-.34,1.6.69,2.22,1.22,3.47-.6.84-1.15,2.93-1.84,3.45-1.44,1.07-1.85-.09-2.97-.24-.69-.09-1.55.46-2.12-.43-.14-1.29,2.49-.99,2.73-1.37.56-.87-1.83-1.04-1.91-1.4-.45-1.84,3.05-1.1,1.5-2.74-.69-.73-1.94-.53-1.62-1.8.05-.17.65-1.47.75-1.6.67-.84,2.43-.44,2.94-.77.33-.22.1-1.98.78-2.3.53.39.29,1.68.88,1.88.42.14,1.91-.19,2-.54s-.47-4.19-.65-4.32c-.53-.38-.91,1.66-1.78,1.47-.91-.67-.75-2.89-.02-3.59.55-.52,1.73-.18,1.77-1.38.07-2.26-2.34-1.15-3.91-1.17-.71,0-2.27-.13-2.94-.24-1.92-.31-1.97-1.57-4.14-.07-1.71,1.18-2.73,3.32-5.22,2.85-1.3-.25-.62-4.24-1.91-4.46-.49-.09-2.69.1-2.86-.54.91-1.74,1.07-3.8,2.25-5.38.3-.32,2.56-1.7,3.01-1.88.64-.26,2.16-.19,2.2-.8.07-1.38-2.38-5.65-2.94-7.27-1.63-4.73-1.81-9.09-2.65-13.91-.26-1.46-1.29-3.5-1.39-4.79-.07-.87.37-2.06.38-2.91.02-1.44-.55-3.25-.64-4.66-.07-1.11.04-6.34.45-6.99.18-.28.6-.36.79-.7.23-.41.14-1.05.45-1.46.11-.15,2.23-1.56,2.47-1.57,2.55-.17,4.22,4.98,5,6.87.47,1.13,1.06,1.91,1.41,3.26.17.68-.01,1.49.32,2.23.25.57.84.82,1.17,1.59.77,1.79,1.08,4.64,1.8,6.27.25.56.91,1.1,1.26,1.93.53,1.25.74,2.76,1.29,4.02,4.68,10.7,9.65,21.66,14.7,32.23,1.48,3.1,3.53,5.88,5.1,8.91.5.96.9,2.54,1.41,3.27.45.63,1.41,1.1,1.97,1.85,4.29,5.73,8.12,13.45,12.05,19.6,1.97,3.08,4.28,6.03,6.21,9.08s3.48,7.7,5.85,10.08c2.69,2.7,6.83,5.09,9.23,7.97,1.32,1.59,1.35,1.51,2.88,2.85,2.47,2.16,4.61,4.7,7.32,6.9,5.37,4.34,12.3,9.5,18.29,12.92,2.63,1.5,10.06,2.57,13.12,2.37,1.96-.13,8.38-1.94,10.15-2.81,3.27-1.61,5.63-3.96,8.36-6.08,1.87-1.45,4.75-2.63,6.54-4.07,1.1-.88,2.66-3.69,3.81-4.89,1.03-1.07,2.66-2.36,3.83-3.39,7.83-6.95,12.75-16.69,18.66-25.3,1.15-1.68,2.74-3.22,3.7-5,1.07-1.98,2.01-4.03,3.1-6.03,1.28-2.36,1.74-3.44,2.51-5.98s2.37-4.64,3.38-7.02c.91-2.14,1.38-4.57,2.76-6.59.56-.83,1.5-1.37,1.92-2.33.59-1.37.84-3.35,1.56-5.03,1.4-3.27,3.1-6.4,4.52-9.7,4.76-11.03,9.19-22.28,13.46-33.47,1.38-3.62,3.16-8.86,5.68-11.74.85-.97,2.66-1.95,3.49-2.88.71-.79,1.05-2.57,2.34-2.52,2.14.09,2.93,2.34,3.1,4.14.73,8.03-4.97,24.74-8.66,32.11-.56,1.11-2.54,3.73-2.55,4.84,0,.41.68,2.85.86,3.35,1.28,3.41,4,.52,6.4.59,1.02.03,4.72,1.28,4.35,2.59-.1.37-1.03.96-1.03,1.11,0,.13,1.61,1.19.58,2.18ZM100.79,172.6c-1.14.16-2.66,4.32-2.17,5.28.31.61,1.92.24,1.83,1.8-.04.62-.59.91-.82,1.54-.44,1.2-.42,3-.75,4.35-.16.64-1.17,1.65.18,1.87.63.1,1.43-.27,2.3-.19,1.05.1,2.75,1.24,3.59,1.01.78-.21.7-1.88.89-2.53.27-.95,1.19-2.79.92-3.66-.17-.56-3.06-2.98-3.74-4.33-.41-.81-1.52-5.05-1.87-5.15-.12-.04-.23,0-.35.02ZM201.91,180.64c.15-.14-.83-3.87-.96-4.03-.19-.24-.31-.28-.61-.2-.82,1.48-6.36,7.29-6.24,8.55.02.19,1.74,3.18,1.91,3.28.71.42,3.22-1.08,3.35-1.76s-.19-1.7.2-2.3,2.48-.15,1.83-1.21c-.5-.81-2.57.16-2.66-1.39-.13-2.35,2.84-.6,3.18-.94ZM135.88,211.43c.2-.98,1.01-1.65.85-2.76-.22.34-1.16,1.4-1.23,1.64-.11.35-.26,1.34.38,1.13Z"/></svg>