<?xml version="1.0" encoding="UTF-8"?><svg id="Layer_1" xmlns="http://www.w3.org/2000/svg" viewBox="0 0 300 360"><defs><style>.cls-1{fill:none;stroke:#231f20;stroke-miterlimit:10;stroke-width:.25px;}</style></defs><path class="cls-1" d="M148.63,360.4c-.85-.12-.88-.55-1.39-.86-.34-.2-.9-.21-1.2-.53-.44-.48-.4-1.9-.87-2.13-.33-.16-.89.19-1.32.18-.59-.01-1.86-.52-2.32-.92-.4-.35-.85-1.38-1.17-1.48-.48-.14-.88.2-1.53-.08-.51-.22-.7-.83-1.34-.86-.19,0-.37.11-.56.1-1.08-.06-1.15-.97-1.65-1.12-.31-.09-.74,0-1.1-.05-.44-.07-.85-.46-1.21-.53-.9-.18-1.34.71-2.49.07-.38-.21-1.3-1.17-1.69-1.54-1.11-1.04-2.04-2.29-3.28-3.18-.63-1.45-2.86-3.38-3.3-4.78-.36-1.14.43-1.69.34-2.06-.04-.14-.28-.28-.36-.46-.37-.85-.05-1.25-.1-1.97-.08-1.22-.71-3.19-1.69-3.98-1.18-.96-1.29-.54-2.51-.6-.23-.01-1.85-.29-1.95-.36-.09-.06-1.02-1.5-1.23-1.77-1.24-1.67-1.97-2.59-2.59-4.68-.33-1.11-.98-3.83-.96-4.91.02-.98,2.56-1.77,2.72-2.33.03-.1.14-1.32.13-1.47,0-.09-.35-1.67-.39-1.8-.09-.3-.61-.66-.82-1.03-.37-.65-.39-1.41-.65-2-.06-.13-.85-1.16-.95-1.24-.69-.54-2.2.29-3.05-.18-.64-.35-1.36-1.68-1.68-2.36-1.06-2.24-1.7-4.63-1.9-7.1-.07-.81-.23-2.6-.09-3.32.3-1.58,1.83-1.22,2.83-2.01.41-.32,1.43-1.73,1.51-2.2.07-.38-.27-1.1-.22-1.71.03-.33.24-.65.24-.8,0-.22-.29-.35-.37-.55-.64-1.57-.66-3.14-.92-4.73-.35-2.13-2.47-.29-3.6-1.82-.3-.4-1.05-2.42-1.19-2.96-.55-2.12-.53-4.19-.49-6.32.02-1.02-.25-2.58.7-3.22.31-.21,1.97-.76,2.06-.89.14-.22-.21-.67-.22-.96-.01-.47.4-1.16.12-1.6-.12-.2-.34-.11-.44-.63-.22-1.16.11-4.5-1.03-5.08-.66-.33-2.55-.3-2.84-1.19-.25-.78-.2-2.17-.32-3.03-.26-1.85-.53-3.23-.56-5.09-.01-.87-.17-3.16.24-3.8.63-.98,2.47-.47,3.05-.87.26-.18.42-1.34.39-1.67-.05-.5-.43-1.14-.46-1.75-.05-1.2.09-.84-.27-2.04-.2-.69-.83-3.26-.76-3.84.06-.43.49-1.31-.09-1.69-.71-.46-2.38-.13-2.97-1.04-.56-.85-1.33-4.06-1.45-5.13-.14-1.35-.39-5.32.03-6.43.47-1.27,1.83-.8,2.17-1.29.08-.11.66-2.24.68-2.45.03-.31-.06-2.46-.12-2.75s-.38-.57-.51-.87c-.44-1-.01-1.49-.18-2.36-.06-.34-.47-.62-.55-.95-.08-.38.2-1.01-.1-1.2-.62-.39-2.36.24-3.33-.57-.78-.65-.46-1.71-.51-2.6-.15-2.57-.2-4.92,0-7.5.14-1.84.12-3.6,2.54-3.41.11-.36-.2-.55-.29-.81-.58-1.77.88-3.09.76-4.68-.05-.62-.6-1.43-.58-1.95.06-1.18,1.22-2.27,1.03-3.58-.05-.35-.33-.64-.34-1.04-.01-.88.69-1.8.7-2.31,0-.17-.4-1.54-.5-1.65-.51-.56-1.96.09-2.63-.66-.22-.25-.61-1.63-.66-1.99-.3-2.27-.13-4.64-.6-6.9.19-.76-.47-2.56.17-3.06.28-.22.78-.15.96-.51-1.03-1.1-.88-2.39-.12-3.6.28-.45.97-.94,1.1-1.44.08-.29-.07-.48-.04-.71.1-.71.28-1.02.23-1.86-.08-1.21-.75-1.81-.8-3.12-.02-.6.31-1.62.21-1.94-.28-.92-2.04.23-2.8-.78-.47-.62-.28-2.44-.41-3.28-.06-.4-.42-.77-.43-1.28-.01-.47.19-1.25.18-1.73-.03-1.42-.3-2.91-.22-4.39.02-.33.09-1.21.15-1.47.31-1.2,1.86-.78,2.28-1.18.21-.2.29-.92.48-1.25.5-.84,1.03-.46.91-1.87-.08-.96-.6-.82-.76-1.43-.06-.23-.28-1.94-.24-2.08.11-.35.5-.58.53-1.09.02-.32-.15-1.14-.32-1.41-.37-.59-1.72-.14-2.4-1.19-.57-.88-.62-3.4-.77-4.54-.23-1.83-.62-3.94-.68-5.78-.02-.62,0-1.49.46-1.97.5-.53,1.94-.39,2.29-1.06.13-.26.64-1.79.69-2.08.08-.53-.08-.91-.05-1.32.06-.84.44-1.98.44-2.69,0-.64-.36-2.37-.5-3.08-.09-.45-.34-1.69-.52-2.02-.31-.57-.89-.46-1.42-.77-.86-.5-.56-.72-.71-1.49-.49-2.56-1.14-4.81-1.22-7.42-.02-.65.08-2.23.27-2.83.06-.2.39-.85.52-.98.57-.53,2.63-.93,3.37-1.44.32-.25-.11-1.56-.26-1.92-.14-.33-.56-.73-.58-1.04-.02-.35.35-1.3.33-1.83-.04-1.17-.41-1.52-.17-2.96.2-1.19.08-.55-.06-1.55-.12-.87.1-1.49.1-2.2,0-.58-.41-1.43-.43-1.97s.43-1.11-.27-1.46c-.79-.39-1.2-.04-1.83-1.05s-1.59-5.79-1.55-7.04c.01-.34.17-.73.19-1.06.05-1.29-.15-2.78.55-3.95.26-.43.6-.31.99-.51.44-.22,1.64-.79,1.96-1.04.62-.48-.14-1.45-.16-2.12-.01-.4.2-.85.23-1.27.08-1.1-.75-2.28-.22-3.22.17-.3.65-.35.68-.71.01-.11-.4-2.06-.45-2.2-.2-.51-1.03-.94-1.26-1.39-.2-.39-.11-1.01-.31-1.31-.18-.27-.81-.24-1.15-.34-.81-.26-1.62-1.17-1.66-2.03-.09-2.16-.47-4.72-.21-6.89.07-.6.63-2.88.89-3.38.12-.23.28-.39.47-.56.47-.42,1.71-.88,1.96-1.16.07-.07.83-1.66.86-1.79.12-.46.23-2.67.17-3.18-.07-.65-.61-1.38-.58-1.96.03-.65.82-1.19.82-1.61s-.46-.69-.54-1.21c-.08-.56.3-1.04-.16-1.56-.71-.8-1.99.61-2.94-.64-.11-.14-.35-.6-.39-.77-.31-1.54-.06-2.77-.03-4.25.03-1.07-.06-2.16,0-3.24s.17-3.54.61-4.35c.61-1.15,2.97-1.11,3.26-1.58.23-.37-.18-1.14-.18-1.56.01-.65.53-.72.91-1.05.14-.12.2-.31.36-.45.41-.33,1.08-.4,1.38-.81.06-.08.64-1.12.66-1.19.06-.23,0-.49.08-.73.15-.49.59-2.15.88-2.36.74-.54,1.61.09,2.36.17.88.1,1.43-.25,2.19-.24.84.01,1.78.27,2.65.24.35-.01,1.47-.16,1.74-.34.52-.34.3-1.27.92-1.39.47-.09,1.54-.02,2.08,0,.89.02,1.99.23,2.87.24,1.52.01,4-.45,5.37.17,1.54.7.16,2,1.09,2.72.25.19,1.98.62,2.3.57.28-.04.44-.23.81-.24.57,0,1.2.3,1.73.36,2.38.24,5.01-.16,7.27,0,1.33.09,1.58.58,3.02-.09.58-.27.89-.73,1.32-.99.25-.15,1.79-1.01,1.95-1.05,1.77-.45,2.71.5,4.13.73.42.07.86-.05,1.27.11.1.04,1.58.94,1.65,1,.53.51.19,1.43,1.32,1.39.74-.02.66-.82,1.1-1.15.4-.31,1.76-.42,2.19-.23.37.17.34.69.49.84.56.56,2.52.01,3.26.02.84,0,1.68.29,2.52.34.32-.11.15-.76.2-1.08.2-1.3,3.14-1.96,4.14-2.55.31-.18.42-.62.69-.69.83-.23,2.94-.05,3.77.29.25.1.38.31.63.41.77.32,2.95.67,3.47,1.26.18.21.17.47.29.63.36.5,1.44.08,1.88.2.58.15.47,1.02,1.7.85.63-.08.48-.7,1.27-.8,1.92-.26,4.08.04,5.99-.13.92-.08,1.78-.54,2.71-.75s1.87-.31,2.8-.43c.65-.5.75-1.37,1.47-1.87.87-.6,1.98-1.08,2.93-1.8.82-.62.65-.98,1.96-1.04,1.45-.07,1.71.38,2.83.87.5.22,1.07.22,1.56.4.59.21,2.13.8,2.58,1.11.67.46,0,2.16,1.77,1.76,1.27-.29.04-2.63,1.5-2.26.77.2.88,1.27,1.22,1.9.26.49.95,1.21,1.11,1.66.12.33-.01.86.11,1.04.12.16,1.05-.03,1.68.75.97,1.21.02,1.39.11,2.07.05.33.7.79.79,1.19.17.73-.2,1.15-.2,1.59,0,.07.41,1.06.46,1.14.24.35.97.39,1.38.58.92.44,1.5.65,1.61,1.74.29,2.97.14,5.27-.22,8.21-.08.66-.14,3.18-.52,3.51-.51.45-2,.01-2.49.51-.43.43-.15,1.09-.25,1.6-.08.41-.45.79-.45,1.3s.37.84.44,1.3c.16.95-.24,1.19-.32,1.93-.22,2.01.15,4.52,0,6.69-.07.94-.69,1.66.4,2.37.74.48,1.48.17,2.04,1.19.27.49,1.37,4.87,1.37,5.45,0,1.49-.56,4.53-.83,6.11-.34,1.97-2.47.89-3.03,2.74-.26.86-.42,3.63-.3,4.53.09.67.8,1.31.79,1.74,0,.35-.61,1.11-.14,1.45.54.38,1.12.07,1.59,1.03.63,1.25.2,4.76.17,6.3-.02.76-.01.97-.1,1.74-.12,1.11.05,3.07-1.08,3.65-.45.23-1.42.2-1.7.5-.7.73.39,4.73.24,6.01-.06.44-.37.72-.21,1.24.37.24.71,1.05.95,1.24.51.41,1.47.25,1.82,1.18.49,3.06.21,6.07-.03,9.15-.02.23.12.45.11.68,0,.14-.2,1.1-.25,1.25-.3.95-1.98,1.68-2.04,2.57-.1,1.29.09,2.61.75,3.74.16.27.53.48.72.78.5.78.3,2.14.37,3.1.2,2.75,0,4.87-.47,7.61-.19,1.08-.52,1.82-1.38,2.54-.24.2-.83.33-.97.53-.12.18-.11.56-.23.81-.19.39-.47.48-.52.98-.06.59.19.95.24,1.5.07.9-.28,1.31-.36,2.08-.17,1.86.23,4.03.34,5.9.01.2-.12.39-.11.56.04.45,1.43,1.61,1.59,2.34.32,1.46.12,3.32.5,4.82-.02,1.25-.31,2.48-.46,3.71-.1.77,0,1.64-.24,2.42-.34,1.08-1.96,1.15-2.3,2.89-.18.95-.28.98-.53,1.77-.68,2.09.7,2.81.91,4.41.07.53-.09,1.28-.04,1.89.02.28.29,1.71.4,1.8.36.31.74.21.86.98.16,1.05.03,3,.01,4.15-.02,1.55-.24,3.17-.25,4.73,0,.37.22.8.2,1.14,0,.1-.56,1.74-.63,1.89-.13.32-.76.85-.98,1.22-.16.27-1.23,2.63-1.21,2.78.03.26.52,1.07.63,1.55.12.54.07,1.84.2,2.1.11.22,1.21.62,1.56.98.88.88.82,1.5.81,2.66-.02,2.31-.13,4.73-.75,6.98-.16.57-.76,2.32-1.15,2.65-.22.18-.52.24-.74.41-.28.21-1.21,1.47-1.42,1.82-.81,1.36-.1,1.91-.08,3.25,0,.57-.21,1.06-.21,1.5,0,.36.24.78.21,1.14-.03.28-.29.51-.34.83-.08.47-.05,1.85.14,2.27.38.84,1.7.14,2.22,1.36.35.82.03,1.23.05,1.9.04,1.3.2,2.61.13,3.93-.09,1.63-.47,5.22-.89,6.73-.08.29-.38.93-.62,1.11-.42.32-1.12.2-1.43.53-.06.06-.72,1.27-.78,1.42-.3.74-.14,1.33-.24,2.07-.2,1.46-.77,2.46-.64,4.05.03.31.33.7.33,1.07,0,.26-.22.5-.21.58.02.32.93.37,1.1.55.09.09.33.9.36,1.08.64,3.51.25,7.26-.47,10.71-.21.54-1.12,1.42-1.61,1.74-.73.48-1.71.3-1.93,1.53-.07.41-.19,1.99-.05,2.31.12.29.56.57.73,1,.47,1.22-.07,1.96,0,3.13.04.81.36,1.81.35,2.64,0,1.01-.68,2.07.01,2.99.13.18.34.23.45.36.37.47,1.86,4.44,1.95,5.09.43,2.99-1.46,4.79-2.86,7.17-.68,1.16-.52,1.61-.86,2.72-.37,1.21-1.36.93-1.84,1.62-.5.73-.19,1.72-.47,2.54-.12.35-.53.73-.53,1.07,0,.36.39.91.44,1.28.09.62-.03,1.39-.06,2.01,1.88.67,1.89,1.59,2.24,3.31.39,1.89.82,3.9.71,5.87-.06,1.09-.36,3.84-.8,4.74-.38.79-1.42.76-1.74,1.17-.38.49-.57,2.05-.86,2.69-.22.49-.71.83-.92,1.39-.89,2.36-.17,4.03.19,6.38.37.8,1.28,1.13,1.56,2.02.15.49.09.98.18,1.44.23,1.22.62,2.35.55,3.61-.13,2.42-.96,4.72-2.42,6.58-1.16,1.47-2.26,1.19-3.46,2.2-.14.12-.98,1.27-1.01,1.41-.36,1.35,1.57,1.16,2.03,2.06.32.62-.19,2.35-.32,3.12-.39,2.34-1.68,5.86-3.48,7.48-.15.13-.22.36-.35.46-.41.32-1.24.21-1.73.35-.17.05-1.5.82-1.6.94-.67.87-.18,2.52-1.22,3.51-.35.33-.8.39-1.1.63-.52.44-.48,1.48-.79,2.1-.51,1.03-.84.98-1.16,2.41-.34,1.52-.59,1.97-1.26,3.36-.47.98-1.02,1.93-1.46,2.93-.88.6-2.04.83-2.95,1.32-.42.22-.78.66-1.15.81-1.9.82-3.89.11-5.76,1.16-.58.33-1.07.95-1.59,1.18-1.47.64-3.39.48-5.12,1.23-.3.13-.8.15-1.02.36-.21.19-.18.49-.34.69-.4.5-3.25.53-4,.85-1.45-.34-2.78.78-3.97.94-.26.03-.9.04-1.15,0ZM200.62,7.35c-.22-.23-.65-.14-.89.03-.7.51-.05,2.5-.98,3.29-.36.3-1.61.53-2.22.9-.39.24-.79.73-1.15.93-1.14.63-5.48.19-6.77-.35-1.04-.43-1.58-1.27-2.78-1.37-1.44-.13-2.6.45-4.03-.24-.61-.3-1.11-.94-1.87-1.01-1.91.18-3.85.09-5.76.22-.38.03-.74.21-1.15.23-.94.06-1.55-.43-2.37.28-.98.84-1.99,2.35-3.07,3.16-1.99,1.47-4.83,1.89-7.25,1.64-.92-.1-.97-.53-1.56-.97-.73-.54-1.06-.91-1.68-1.43-.47-.39-1.17-.55-1.65-.89-.43-.31-.56-.85-1.21-.74-.26.04-.49.33-.75.41-.89.25-1.07-.32-1.69-.4-.45-.06-1.14.13-1.72.11-.5-.02-1.18-.17-1.7-.26-.26-.05-.65-.27-.84-.27-.17,0-1.01.87-1.33.93-.2.65-.26,1.07-.69,1.62-.22.29-2.37,2.34-2.61,2.47-.71.39-4.28.47-5.17.35-.67-.09-.94-.54-1.45-.74-1.26-.49-2.07.19-2.97-1.29-.48-.79-.45-1.34-.62-2.21-.98,0-1.76.24-2.73-.1-.75-.26-.63-.68-.92-.84-.58-.32-1.56.08-2.37-.37-.19-.1-.32-.37-.5-.42-.44-.13-.97.03-1.5-.23s-.52-.79-1.36-.84c-1.85-.12-1.82.94-3.01,1.15-.34.06-1.08-.14-1.18.32-.04.18.12.51.11.78-.07,1.31-2.54,1.75-3.55,1.75-.46,0-1.07-.19-1.48-.19-.32,0-.64.22-.92.21-.41,0-.72-.37-1.27-.34-.6.04-1.69.83-2.3.81-.84-.04-2.32-1.8-2.51-2.57-.2-.86.23-1.35-.85-1.46s-1.65.36-2.48-.64c-.35-.43-.45-1.1-1.1-1.1-.29,0-.54.19-.82.23-.37.05-1.06-.09-1.32.18-.33.35.01,1.75-1.26,2.31-.72.32-1.21-.04-1.78.76-.94,1.33.79,1.02,1.59,1.16.7.12,1.3.32,1.74.91-.03.93.27,1.94.3,2.82.04,1.72-.06,3.49-.01,5.2.04,1.33.15,2.43-.13,3.78-.41,1.93-2.82.27-3.49,1.12-.55.7.36,1.29.4,1.79.04.53-.61,1.9-.55,2.73.1,1.41,1.2,2.84,1.2,4.09,0,1.01-.61,1.98-.39,3.07.27,1.32,1.09.77,1.79,1.21.91.58.62,2.83.87,3.86.11.43.49.96.51,1.32.12,1.82.23,4.43-.09,6.21-.16.88-.6,1.36-1.41,1.7-.5.21-2.03.3-2.14.63-.44,1.3.75,1.22,1.14,1.74s.43,1.78.2,2.37c-.29.72-.93.7-.75,1.73.08.46.47.73.43,1.28s-.53.99-.64,1.45c-.14.58-.43,1.94-.5,2.5-.23,1.81,1.87.36,2.76,1.37.77.88.52,1.73.72,2.75.31,1.62,1.05,2.79,1.13,4.53.04.92-.23,2.22-.12,3.12.1.77.48.9.18,1.9-.44,1.47-1.59.98-2.53,1.51-.3.17-.88.97-.89,1.31,0,.54.31,1.01.22,1.84-.07.67-.51,1.35-.57,1.86-.19,1.53.59,2.43.69,3.81.08,1.06-.12,2.09.02,3.22.1.84.24,1.69.36,2.52.19,1.32.44.87,1.23,1.31.52.29.55,1.04.59,1.6.13,1.84-.04,3.62.23,5.43.21,1.4,1.35,4.57,1.01,5.75-.26.89-2.21.65-2.6,1.03-.22.22-.23,1.02-.34,1.34-.14.41-.52,1.03-.59,1.37s-.09,1.93-.02,2.28c.05.28.47.56.62.88.34.74.19,2.86.06,3.73-.04.26-.29.52-.23.8.02.1.39.16.53.3.19.18.23.51.36.59.16.1.49.1.7.2,1.82.87,1.49,3.36,1.66,5.02.18,1.81.61,3.79.69,5.56.04.86-.04,1.61-.58,2.31-.73.94-1.79.41-2.24,1.11-.52.82-.31,1.29-.42,2.12-.09.63-.45,1.18-.46,1.97-.01.86.6,1.38.84,2.17.31,1.02.21,1.98.09,3.02-.02.19-.23.41-.17.53.18.39,1.43.1,1.97.57.38.33.5,1.22.6,1.71.42,1.96.56,4.45.5,6.43-.03,1.23-.17,2.93-.36,4.15s-2.75.72-2.94.98c-.24.34.28.89.3,1.34.03.54-.24,1.07-.1,1.7.11.47.86.81.89,1.42s-.63,1.1-.69,1.62c-.04.32.12.55.11.8-.04.91-.21,1.63.08,2.58.04.12,1.12,1.93,1.25,2.1.84,1.13,1.54.56,2.25,1.1.81.62.71,3.41.84,4.47.15,1.22.11,2.45.22,3.71.09,1.04.5,2.39.33,3.47s-1.95.82-2.5,1.37c-.22.22-.51,1.66-.5,1.99.02.5.55.84.74,1.35.44,1.24.3,2.39.43,3.61.09.87.4,1.76.32,2.66-.06.71-.68,1.38-.67,1.96,0,.44.4.68.57,1.05.53,1.15-.03,2.32.27,3.31.21.69.64.51,1.05.79.12.08.83.68.87.75.46.74.15,2.49.12,3.33-.07,2.07,0,4.16,0,6.24,0,.78.19,1.58-.02,2.4-.08.31-.6.82-.89.95-.82.37-2-.42-2.42.7s.18,1.53.31,2.45c.09.63-.04,1.31.04,1.92.1.77.43,1.71.58,2.65.16,1.03,1.07,2.46,1.91,3.05s1.34.02,1.64,1.36c.42,1.91.65,4.92.82,6.91.08.94.35,3.11.22,3.92-.2,1.27-1.57.79-2.45,1.13-1.5.57.47,1.65.59,2.36.08.51-.37.85-.06,1.79.56,1.68.71,3.32.89,5.11.14,1.43-.45,1.79,1.34,2.12.61.11,1.03-.2,1.45.51.3.5.84,2.82.99,3.52.48,2.31.5,4.57.5,6.9,0,.35-.64,1.91-.87,2.14-.55.55-2.17.7-2.43,1.03-.24.31-.46,2.07-.4,2.47.11.72.96.75,1.1,1.45.11.52-.24.93-.18,1.44.02.17.5,1.57.59,1.73.45.78.92.77,1.62,1.04s.94,1.84,1.01,2.56c.19,1.92.17,3.69.76,5.59.37,1.2,1.67,3.02.84,4.2-.34.49-.85.41-1.2.76-.25.25-.94,1.8-.97,2.16-.12,1.36.98,2.55,1.1,3.85.03.38-.18.73-.15,1.08.04.44.45.75.53,1.09.12.49.03,2.02.32,2.22.17.12.46.1.69.24,1.1.67,1.85,2.88,1.91,4.1.07,1.68-.03,2.93.42,4.65.32,1.25,1.5,3.5,1.52,4.6.03,1.56-2.69,1.13-2.86,2.54-.13,1.02.47,1.26.86,2,.47.89,1.14,2.21,1.47,3.14.18.49.11,1.43.74,1.57.69.15,1.49-.08,2.11.43.51.42,1.22,1.87,1.52,2.52.1.21.06.46.15.66.09.18.38.31.46.58.16.51-.28,1.23-.3,1.8-.03.92.94,2.49,1.5,3.23.13.18.39.22.56.48.32.48.52,1.45.31,2.01-.17.43-1.06,1.24-.86,1.88.08.25.54.26.74.42.5.39.18,1.47.34,2.08.04.15,1.14,2.21,1.28,2.41.67.97,2.11-.32,2.87-.22.33.04.92.46,1.17.68,1.2,1.12,2.24,2.94,3.29,4.21,1.31,1.6,2.78,3.08,4.06,4.71.45,1.04-1.15,2.06-.37,3.26.6.93,1.84,1.13,2.73,1.54.62.28,1.34,1.01,1.95,1.05.41.03.88-.22,1.37-.23.68-.02,1.5.38,2.06.21.62-.18.31-.96.56-1.41.28-.5,1.78-.75,2.36-.87,2.29-.48,4.01-.55,6.33-.47.82.03,1.91-.13,2.66.1,1.26.4.84,1.96,1.55,2.26.25.11,1.53-.9,1.91-1.09.46-.23,2.68-.92,2.82-1.1.22-.28.06-.99.11-1.39.09-.69,2.34-4.57,2.88-5.2.87-1.02,2.02-1.17,3.19-1.65s2.88-1.38,4.13-1.52c.61-.07,2.57,0,2.95-.52.2-.28.48-1.43.75-1.9.15-.26.55-.44.6-.78.03-.17-.09-.35-.06-.52.13-.9.42-1.35-.26-2.19-.16-.2-.47-.26-.61-.58-.53-1.3,1.33-2.63,1.16-3.58-.04-.23-.27-.43-.32-.73-.21-1.3.85-2.65.97-3.97l1.96-3c.89-.7,1.87.46,2.54-.35.59-.71.48-1.91,0-2.64-.16-.25-.48-.28-.69-.47-.74-.66-1.22-1.44-1.22-2.48,0-.31.14-.58.13-.92-.05-1.13-.54-2.33-.2-3.55.3-1.09,2.26-5.29,2.92-6.2s1.03-.49,1.66-.88c.06-.04.86-.73.89-.78.47-.58-.13-1.15-.28-1.67-.2-.7-.02-2.06.16-2.78.13-.5.65-1.27.62-1.68-.01-.2-.19-.37-.22-.59-.05-.33.06-.62-.07-.97-.34-.94-1.29-1.14-1.42-2.27-.15-1.3.17-2.41.21-3.58,0-.32-.14-.62-.1-1.03.04-.52.37-.91.36-1.5-.02-1.37-.53-2.11-.69-3.12-.09-.6-.02-2.13.16-2.71.47-1.45,2.21-.77,2.41-1.3.13-.34-.13-.64-.15-.96-.01-.37.19-.87.22-1.26.01-.21-.14-.43-.11-.68.03-.38.58-1.13.67-1.54.12-.56-.06-1.23.05-1.79s.88-1.34,1.11-1.89c.26-.59.21-1.36.05-1.99-.59-2.36-2.26-4.87-2.64-7.17s1.69-4.33,2.81-6.2c.18-.31.27-.69.44-.95.13-.21.5-.43.57-.58.06-.13-.26-.82-.29-1.1-.05-.41-.05-1.44.03-1.82.14-.69,1.04-1.39,1.34-2,.39-.8.35-3.09.24-4.02-.04-.34-.29-.73-.3-1.07-.01-.5.36-.86.42-1.26.08-.52-.17-1.38-.52-1.77-.73-.8-1.81-.21-2-1.58-.24-1.78.44-4.49.46-6.34.01-1.42-.48-2.35-.21-4.01.14-.84.6-1.38,1.31-1.8.23-.14.56-.09.74-.3s.35-1.05.55-1.41c.36-.68,1.52-1.64,1.63-2.29.05-.31-.09-2.28-.19-2.57-.13-.42-.57-.64-.79-1.05-.35-.63-.31-1.27-.54-1.89-.18-.49-.72-.91-.79-1.4-.19-1.36.22-2.47.34-3.71.2-2.08.22-4.16.25-6.21.02-1.16-.37-3.51,1.22-3.75.38-.06,1.16.1,1.37-.36.1-.22.13-1.2.23-1.62.18-.79.76-1.98.75-2.71,0-.34-.21-.68-.23-1.04-.03-.64.06-1.33-.01-1.95-.09-.78-.91-2.46-1.28-3.22-.14-.29-.48-.46-.65-.73-.3-.48-.39-1.04-.36-1.6.07-1.53.36-3.45.23-4.97-.03-.39-.23-.72-.24-1.03,0-.5.67-3.98.87-4.45.4-.95.86-.58,1.65-.89s.4-.68.51-1.33c.06-.35.43-.82.43-1.07s-.28-.54-.3-.82c-.02-.33-.07-1.43-.05-1.72.02-.3.27-.55.24-.8,0-.09-.52-1.17-.61-1.47-.13-.42-.12-.95-.29-1.33-.13-.31-.65-.69-.72-1.01-.23-1.23,0-4.02,0-5.43,0-1.29-.17-2.85,0-4.14.23-1.77,1.27-1.26,2.63-1.58-.23-1.05-.02-2.23.45-3.18.12-.25.68-.86.7-.92.02-.09-.25-.59-.22-1.02s.34-.79.36-1.16c.05-1.36-.8-3.25-1.02-4.64-1.2-.81-2.24-1.37-2.44-2.99-.1-.81-.1-.94-.3-1.77-.57-2.35-.38-3.96-.07-6.31.17-1.31-.02-1.96,1.18-2.86.44-.33,1.51-.57,1.55-.64.21-.29-.14-.95-.14-1.31-.02-1.82.88-2.19,1.17-3.31.08-.31.17-1.43.18-1.79,0-.47-.24-.88-.24-1.27,0-.65.46-1.26.17-2.13-.35-1.05-1.87-1.18-2.14-1.56-.16-.22-.18-.84-.32-1.18-.27-.68-.77-1.21-1.03-1.74-.59-1.21,1.08-5.68,1.13-7.47.04-1.42-.5-4.6.29-5.71.47-.66,2.73-.52,3.14-1.36s-.02-1.26-.18-1.96c-.07-.33.05-.82-.13-1.11-.21-.34-1.95-.55-2.4-1.67-.27-.66-.03-.78-.03-1.35.03-1.9.06-3.8.11-5.66.03-1.32-.09-2.72.13-4.03.09-.53.39-.46.74-.76.52-.46.56-.68,1.31-.89.53-.14,1.89-.08,1.88-.78-.25-.5-.25-1.04-.42-1.56-.34-1.06-1.05-1.91-.6-3.14.2-.53.62-.58.37-1.37-.33-1.03-1.57-.94-2.03-1.31-.15-.12-.89-1.24-.98-1.45-.51-1.17.26-5.49.41-6.99.09-.86.04-3.75.58-4.26.61-.58,2.1-.36,2.39-1.07.54-1.36.5-3.92-.06-5.3-.22-.54-.72-.96-.87-1.56-.11-.44-.05-.82-.13-1.25-.16-.84-.94-2.14-1.21-3.06-.52-1.8-.24-4.09-.01-5.89.12-.95.18-2.43.41-3.29s1.73-.92,2.25-1.67c.14-.19.38-.79.47-1.03.59-1.73.06-2.86-.12-4.51-.19-1.74.06-3.93.49-5.62.1-.39.43-.86.43-1.18,0-.27-.18-1.49-.23-1.86-.19-1.4-1.76-.95-2.25-1.44-.14-.14-.21-.48-.36-.68-.17-.22-.38-.36-.54-.62-.79-1.34.03-3.94.14-5.45.19-2.56-.75-6.08,2.16-7.3.36-.15,1.28-.18,1.3-.66,0-.13-.47-1.69-.57-1.82-.36-.49-1.6-1.02-2.02-1.71-.25-.41-.26-1.29-.43-1.47Z"/></svg>