<?xml version="1.0" encoding="UTF-8"?><svg id="Layer_1" xmlns="http://www.w3.org/2000/svg" viewBox="0 0 300 360"><defs><style>.cls-1{fill:none;stroke:#231f20;stroke-miterlimit:10;stroke-width:.25px;}</style></defs><path class="cls-1" d="M249.69,173.69c.28,3.75.22,9.34,0,13.12-.16,2.67-.62,7.41-1.54,9.88-.41,1.11-1.02,1.54-1.14,2.93-.16,1.91.35,3.12-.1,5.33-2.34,11.6-11.32,23.91-18.49,33.09-1.64,2.1-3.71,4.11-5.29,6.25-1.08,1.47-1.48,2.81-2.84,4.17-3.22,3.21-6.88,4.89-10.39,7.48-2.86,2.11-4.84,4.5-8.09,6.39-4.11,2.39-10.51,5.13-15,6.94-11.07,4.46-26.88,8.23-38.81,7.82-8.53-.29-16.42-.49-24.59-3.24-2.74-.92-5.46-2.33-8.21-3.33s-6.32-1.72-8.94-2.83c-8.32-3.5-15.68-8.81-22.4-14.7-7.15-6.26-13.54-12.66-18.5-20.86-2.44-4.03-2.68-6.62-4.06-10.88-1.54-4.75-4.4-6.26-6.05-10.24-4.63-11.15-6.21-27.77-4.35-39.64,2.43-15.48,9.37-34.41,18.43-47.17,1.67-2.35,4.85-4.21,6.39-6.28.88-1.19,1.18-2.61,2.26-3.85,3.95-4.56,16.14-14.94,21.57-17.12,1.78-.71,3.87-.9,5.65-1.59,2.17-.85,4.45-2.61,6.73-3.45,1.66-.61,3.38-.61,4.97-1.14,4.39-1.46,8.95-4.56,13.35-5.66s9.82-1.59,14.14-1.92c8.94-.69,20.5-.42,28.92,2.55,1.63.57,2.71,2.05,4.24,2.55,1.36.44,3.04.38,4.49.72,2.3.54,5.67,1.71,7.58,3.06,2.57,1.81,5.8,4.26,8.67,5.58,1.16.53,2.45.43,3.63.9.86.34,2.78,1.64,3.67,2.21,10.21,6.56,19.65,15.65,27.16,25.1,9.28,11.68,15.88,33.15,16.97,47.84ZM149.19,107.02c-5.37.06-11.44.81-16.78,1.55-4.86.67-8.85,2.56-14.05,3.14-2.56.28-2.2,1-3.89,2.22-2.18,1.56-6.01,3.11-8.51,4.61-23.63,14.16-36.07,40.93-38.82,67.74-.78,7.66,1.35,17.17,3.38,24.61,1.44,5.28,6.09,12.71,9.22,17.25,3.66,5.32,10.1,12.18,15.09,16.36,1.59,1.33,3.51,2.09,5.06,3.31,1.65,1.3,2.43,2.12,4.3,3.39,4.24,2.88,7.58,5.9,12.64,7.27,6.66,1.8,13.61,2.64,20.3,4.36,14.43,1.05,27.4-1.05,41.33-4.14s32.63-18.76,40.55-30.27c5.02-7.3,12.89-23.27,13.48-31.99,1.98-29.49-10.2-60.73-35.76-76.67-14.7-9.17-30.21-12.94-47.54-12.74Z"/></svg>