<?xml version="1.0" encoding="UTF-8"?><svg id="Layer_1" xmlns="http://www.w3.org/2000/svg" viewBox="0 0 300 360"><defs><style>.cls-1{fill:none;stroke:#231f20;stroke-miterlimit:10;stroke-width:.25px;}</style></defs><path class="cls-1" d="M292.8,210.21c3.06.08,3.77.84,4.75,3.63,2.53,7.21,2.4,15.29,1.68,22.79-.29,2.99-1.01,7.85-3.97,9.32s-11.13.84-14.64.98c-18.95.74-37.91,1.73-56.88,2.12-2.03.04-4.63.89-6.14-.97-1.82-2.23-3.05-11.25-3.21-14.33-.27-5.31-.1-13.9,1.03-19.02.91-4.13,3.13-3.44,6.8-3.44,20.86.03,41.76-.51,62.66-.75,2.59-.03,5.32-.39,7.93-.32Z"/><path class="cls-1" d="M113.52,110.78c2.82-.29,7.38.57,9.59,2.44,2.49,2.11,4.64,8.52,5.83,11.71,4.92,13.22,8.81,29.12.86,41.99-3.49,5.65-13.63,7.46-19.81,7-7.31-.54-11.85-11.48-12.24-17.82-.75-12.06,4.39-30.3,10.13-40.95,1.5-2.78,2.22-4.02,5.65-4.37Z"/><path class="cls-1" d="M2.65,141.4l11.12.36c1.68.18,1.76,1.77,1.86,3.15.38,5.35-.41,11.21-.59,16.57-.11,3.1.21,6.38,0,9.45-.05.76-.23,2.49-.54,3.13-.87,1.78-3.08,1.64-4.77,1.6-2.38-.83-8.59.74-9.26-2.5-.57-2.75.08-5.99.12-8.77.07-6.36-.38-13.61.19-19.85.11-1.23.45-2.92,1.87-3.14Z"/></svg>