<?xml version="1.0" encoding="UTF-8"?><svg id="Layer_1" xmlns="http://www.w3.org/2000/svg" viewBox="0 0 300 360"><defs><style>.cls-1{fill:none;stroke:#231f20;stroke-miterlimit:10;stroke-width:.25px;}</style></defs><path class="cls-1" d="M264.38,132.1c.88.84,3.21,2.5,3.63,3.49.77,1.79.58,3.88.81,5.67.51,3.93,1.09,7.88.9,11.89s-1.45,8.29-1.26,12.43c.09,1.97.49,3.69.36,5.77-.17,2.68-1.34,4.85-1.74,7.45-.58,3.7-.08,5.82.13,9.3.34,5.46-.43,10.96-.56,16.4-.02,1.08-.15,2.75.28,3.7.28.64.76.88.98,1.73,1.08,4.31-1,8.61-1.74,12.64-.16.89-.09,2.05-.27,2.98-.29,1.56-1.17,3.26-1.53,4.78-.91,3.84-.94,8.36-2.12,12.11-.34,1.08-1.19,1.9-1.41,2.73-2.02,7.56-4.24,15-7.06,22.3-.32.82-1.71,3.66-2.17,4.32-1.46,2.05-3.53,3.45-4.98,6.01-1.73,3.07-1.65,6.49-4.74,8.77s-9-.37-11.54-2.52c-.54-.46-.65-1.04-1.39-1.31-.94-.34-2.05-.2-2.98-.44-.77-.2-1.71-1.04-2.56-1.41-6.32-2.75-12.93-.83-19.54-1.54-2.98-.32-6.1-1.2-9.03-1.6-1.19-.16-2.78-.04-3.9-.24-2.38-.44-6.59-2.77-9.06-2.85-2.29-.07-4.27-.02-6.66-.17-7.36-.48-14.67-.7-22.01-1.6-5.71-.7-11.35-1.46-17.1-1.82-15.62-.97-31.49-2.29-45.91-8.69-4.47-1.98-8.81-4.03-13.42-5.68-6.04-2.17-11.8-6.89-16.53-11.22-2.82-2.58-5.93-5.81-7.86-9.07-2.03-3.42-3.98-6.56-5.38-10.29-.89-2.38-1.67-5.74-2.84-7.97-.29-.56-.91-.9-1.27-1.43-1.06-1.59-2-4.67-3.05-6.49-2.63-4.54-5.25-7.68-7.07-12.93-1-2.88-2.75-7.74-2.51-10.63.56-6.85,3.45-13.36,8.37-18.11,2.98-2.88,3.16-2.91,4.99-6.73,3.53-7.38,11.36-12.61,18.29-16.48,2.31-1.29,3.92-3.25,5.91-4.9,4.02-3.35,10.5-7.37,15.49-9.01,1.12-.37,2.31-.41,3.41-.92,1.57-.72,3.44-2.33,5.04-3.25,5.38-3.12,9.97-4.77,15.61-7.09,6.75-2.78,10.56-7.63,17.24-10.69,1.03-.47,2.38-.73,3.29-1.21,1.58-.84,3.45-2.74,5.08-3.75,1.33-.82,2.9-1.26,4.19-2.12,4.14-2.75,7.68-6.26,12.13-8.59,1.67-.87,3.98-1.59,5.49-2.61,3.13-2.13,6.17-4.39,9.36-6.49,3.61-2.38,6.7-4.73,10.49-6.99,4.59-2.73,10.39-6.91,15.92-4.32,2.95,1.38,5.16,2.79,7.75,4.68.87.64,2.28,1.14,2.95,1.73,2.14,1.91,4,4.34,6.38,6.05.46,2.26,1.78,3.7,2.72,5.57.65,1.31.76,2.57,1.59,3.81,2.56,3.8,6.47,8.05,9.48,11.6,3.2,3.78,3.81,3.7,7.81,6.24,1.59,1.01,1.94,1.79,3.09,3.03,4.73,5.08,10.1,7.47,16.94,8.29,2.04.25,3.48,1.41,5.41,1.98,1.46.44,3.44.56,4.78,1.17,1.22.56,3.79,3.46,4.92,4.53Z"/></svg>