<?xml version="1.0" encoding="UTF-8"?><svg id="Layer_1" xmlns="http://www.w3.org/2000/svg" viewBox="0 0 300 360"><defs><style>.cls-1{fill:none;stroke:#231f20;stroke-miterlimit:10;stroke-width:.25px;}</style></defs><path class="cls-1" d="M43.22,108.59c1,.31,2.08.47,2.96,1.08,1.12.79,1.64,2.46,2.98,3.12,1.47.73,3.66.72,5.28,1.15,1.24.33,2.38,1.07,3.6,1.35,1.13.26,2.18.1,3.24.39,4.09,1.1,8.59,9.11,11.97,12.11,2.14,1.9,3.43,3,5.44,5.11s2.66,1.89,5.12,2.8c.71.26,1.39.82,2.14,1,1.52.37,2.44.03,3.96.99,2.6,1.64,4.26,3.31,7.68,3.53,1.85.12,2.98-.84,5.07.04s1.55,3,4.64,2.59c1.76-.23,4.12-3.19,6.05-4.18.8-.41,1.61-.47,2.34-.8.55-.25,1.04-.89,1.6-1.03,1.99-.52,6.68-.96,8.83-1.06,3.85-.19,9.35.01,13.17.52,2.39.31,4.93,1.4,7.27.79,2.87-.75,3.96-.89,6.94-1.15,1.06-.09,2.68-.52,3.62-.5s2.39.77,3.29.66c.53-.06,1.35-.68,2.03-.78.94-.15,1.97.05,2.91-.06,1.29-.15,2.72-.89,4.16-1.12,2.36-.38,5.68-.72,8.06-.84s2.64.28,4.55,1.38c.7.41,1.28.25,1.87,1.1.35.5.29,1.28,1.16,1.33s3.95-1.91,5.15-2.29c4.4-1.37,8.68.47,13.11-.09,1.9-.24,3.07-1.69,4.6-2.66,1.22-.77,2.61-1.25,3.77-2.01s2.21-1.92,3.33-2.77c3.77-2.86,8.56-6.73,13.02-8.26,2-.69,3.91-.5,6.02-1.24,2.97-1.04,5.96-3.24,8.99-4.37,2.4-.89,4.32-.21,6.68-.09,1.75.09,3.51-.04,5.26.19,1.21.16,1.9.26,2.65,1.31.81,1.12,3.2,7.03,3.23,8.33s-.83,2.24-.98,3.31c-.28,2.06.17,3.59-.64,5.79-.33.9-1.67,2.36-1.27,3.19.33.67,1.51.42,2.1.54,1.17.23,2.55,1.07,3.69,1.09,1.74.04,4.48-.95,6.42-.98,1.65-.03,3.11,2.31,3.21,3.74.06.98-1.21,2.57-.7,3.65.19.41,1.53.95,2.02,1.61.65.87.37,1.2.53,2.1.21,1.16,1.39,1.31,2.19,1.93,2.77,2.14,2.64,4.88,3.59,7.79.22.68.79,1.36.9,2.06.3,1.82-.41,7.38-1.25,9.06-.35.7-2.63,2.81-.45,2.69,3.58-.2,6.04-2.76,8.99-3.23,3.51-.55,4.44,3.36,5.75,5.64.68,1.18,1.6,2.01,2.05,3.39.5,1.51,1.17,3.22,1.61,4.66.74,2.46-.41,2.95-2.49,3.79-.89.36-2.64.68-3.25,1.04-1.66.99,1.66,2.49,2.17,3.18.6.82.59,1.87,1.11,2.68.88,1.4,3.38,2.69,3.61,4.48.26,2.05-.54,2.41-1.35,3.93-1.14,2.16-2.25,4.47-3.19,6.71-.69,1.66.03,3.98.23,5.7s-.78,4.67-1.1,6.46c-.4,2.26-.53,4.48-1.88,6.53-1.04,1.57-3.16,2.51-5.01,2.43-2.23-.1-9.93-1.8-11.61-3.07-.66-.5-1.19-1.29-1.83-1.8-2.69-2.19-2.53-.03-3.51,1.93-.89,1.76-2,2.37-3.17,3.76-1.25,1.47-2.22,3.26-3.79,4.45-2.73,2.07-12.4,3.02-15.79,2.6-3.77-.47-7.65-3.38-11.18-4.82-2.56-1.04-5.36-1.68-7.86-2.86-2.16-1.02-4.35-2.95-6.44-3.78-4.54-1.8-10.17-1.81-14.92-3.06-2.09-.55-7.15-3.98-8.88-5.47s-3-3.3-4.61-4.79c-2.08-1.92-4.46-3.72-6.52-5.68-2.87-2.73-4.18-5.19-7.81-7.36-2.69-1.61-3.62-.86-6.37-.72-6.92.33-13.6-.2-20.46-.34s-13.64-3.17-20.61-2.63c-2.9.23-6.55,1.55-9.44.52-.88-.31-1.78-1.03-2.7-1.43-1.34-.57-2.78-.71-4-1.44-1.62-.96-2.37-2.79-3.83-3.92-3.94-3.05-4.51,2.02-6.35,4.2-1.45,1.72-3.03,1.39-4.83,2.43-1.27.73-2.85,1.82-4.13,2.64-5.55,3.57-9.6,7.06-13.74,12.16-3.13,3.86-6.7,7.4-10.37,10.74-3.98,3.62-9.46,3.4-14.28,4.86-1.28.39-2.52,1.04-3.83,1.45-1.04.32-2.18.43-3.18.77-2.2.77-6.66,5.42-8.41,7.26-4.4,4.62-8.99,10.18-14.51,13.53-3.07,1.86-6.03,3.39-8.66-.09-.48-.63-1.02-2.36-1.53-2.6-.82-.38-2.29.26-3.43-.03-.93-.24-4.23-1.8-5.28-2.31-3.23-1.55-5.5-3.15-7.92-5.78-1.53-1.67-1.35-2.95-1.81-5.03v-.49c.3-.93.56-1.66,1.02-2.52,1.06-1.99,2.7-4.51,3.96-6.43.48-.74,1.75-1.93,1.91-2.71.4-1.95-1.59-4.61-1.27-6.71.29-1.9,5.02-4.28,6.69-5.02.68-.3,2.7-.71,3.04-1.25.54-.84-.38-2.85-.49-3.82-.24-2.17.63-2.08,1.5-3.58,1.4-2.43.13-4.22-.19-6.63-.2-1.47.11-2.95-.02-4.27-.35-3.58-2.98-1.88-5.04-3.2-1.04-.66-1.42-2.28-2.13-2.65s-1.79-.15-2.53-.6c-1.63-1.01-3.02-4.03-2.81-5.93.17-1.58,1.98-2.81,1.93-3.6-.07-1.21-2.25-2.88-2.79-3.95-.32-.63-1-2.84-.97-3.5.06-1.07.85-1.68,1.25-2.55,1.06-2.29.7-3.49.73-5.86,0-.72.29-1.35.16-2.13-.09-.57-.62-1.13-.74-1.73-.24-1.18.32-5,.75-6.2.4-1.12,1.5-2.07,2.12-3.16,1.17-2.07,1.74-5.32,2.25-7.65.46-2.11,2.48-3.27,3.63-4.79.54-.72.65-1.39,1.06-2.08,2.09-3.53,5.35-6.35,7.69-9.63.6-.84.66-1.9,1.79-2.33,1.83-.71,1.17-.56,2.54-1.58,2.02-1.51,3.71-1.06,5.87-1.39,2.44-.37,1.72-3,2.64-4.62,1.05-1.84,3.68-1.35,5.47-1.46l2.74-.81h1.48Z"/></svg>