<?xml version="1.0" encoding="UTF-8"?><svg id="Layer_1" xmlns="http://www.w3.org/2000/svg" viewBox="0 0 300 360"><defs><style>.cls-1{fill:none;stroke:#231f20;stroke-miterlimit:10;stroke-width:.25px;}</style></defs><path class="cls-1" d="M225.2,92.7c.11.11.16,2.29.27,2.9,1.35,7.37,2.62,13.75,3.45,21.27.95,8.69,2.71,17.4,3.88,26.11,1.28,9.54,1.81,19.21,2.96,28.78,2.76,23.01,7.32,47.12,8.1,70.13v1.35c-.41.55-.17,1.33-.33,2.04-.52,2.28-2.28,4-3.95,5.51-1.37,1.24-4.19,2.78-4.68,4.55-.33,1.19-.07,2.06-.05,3.1.07,5.76.75,11.01,1.35,16.66,1.65,15.59,3.86,31.13,6.04,46.64.84,5.97,2.02,14.31,1.38,20.23-.14,1.3-.66,2.19-1.94,2.57-2.87.83-5.91.63-8.75.93-10.85,1.14-21.57,2.67-32.42,3.82-23.13,2.46-46.41,4.56-69.54,6.98-10.12,1.06-20.22,2.59-30.39,3.15-.72.04-1.9.22-2.59.45-1.79-.07-3.61.1-5.4,0-.03,0-.26-.21-.54-.23-1.39-.1-2.49.34-3.74-.54-3.52-2.48-1.33-8.23-1.11-11.71.34-5.36.21-11.23.43-16.68.13-3.35-.1-7.03.24-10.34.16-1.61,1.26-3.18,1.65-4.88,1.23-5.48-1.05-4.97-3.41-8.67-1.33-2.08-3.15-7.32-5.23-8.5-1.86-1.05-5.05,1.1-7.13,1.39-1.86.26-3.95.37-4.73-1.68-.7-1.83.17-2.47.38-4.02.62-4.47-.58-8.21-.44-12.6.16-4.96,1.22-9.96,1.37-15.08.13-4.44.67-8.84.89-13.28.26-5.12-2.21-4.56-5.29-7.31-3.64-3.24-2.55-5.97-2.57-10.48-.01-2.55.13-4.47.23-6.96.05-1.44.39-2.97-1.14-3.61-2.23-.93-6.27,0-6.3-3.83-.04-5.73,1.56-13.29,2.25-19.14,4.25-36.11,9.07-72.18,13.53-108.26,1.52-12.28,2.9-24.63,4.5-36.92,1.37-10.54,2.65-20.98,6.39-30.98.83-2.22,2.29-5.98,3.71-7.77,2.28-2.87,7.49-5.29,10.79-6.99,3.02-1.56,12.96-6.85,15.65-7.08,5.31-.47,10.35-.53,15.65-1.68,2.41-.52,5.69-2.06,7.98-1.92,6.28.4,11.39,9.51,15.53,13.51,3.68,3.57,6.99,2.45,11.68,2.95,3.58.38,6.99,1.72,10.21,2.16,5.67.78-.34-6.65,1.17-7.72.67-.48,3.37,1.1,4.23,1.43,4.42,1.66,8.24,2.34,12.67,3.54,2.44.66,4.01,2.3,6.09,3.58,5.6,3.45,7.6,4.05,11.42,9.74,6.65,9.91,8.88,21.64,10.91,33.22.12.7.46,1.29.6,1.88.17.71.12,2.46.24,2.95.52,3.54.39,7.2.92,10.74.32,2.16,1.07,4.44,1.49,6.62.42,2.18.7,5.81,1.42,7.93l.03.07Z"/></svg>