<?xml version="1.0" encoding="UTF-8"?><svg id="Layer_1" xmlns="http://www.w3.org/2000/svg" viewBox="0 0 300 360"><defs><style>.cls-1{fill:none;stroke:#231f20;stroke-miterlimit:10;stroke-width:.25px;}</style></defs><path class="cls-1" d="M150.59.02c6.3.21,12.52,1.46,18.14,4.44,2.96,1.56,5.41,4.98,3.33,8.26-.33.53-1.24,1.3-1.46,1.82-.48,1.16.14,2.2-.86,3.37-1.16,1.35-4.63,2.03-6.13,3.14-.29.31-.4,1.75-.47,2.26-.38,3-.47,6.01-.68,9.01-1.81,25.3-2.91,50.71-2.19,76.08.19,6.7.71,13.39,1.1,20.07.7,12.14,2.31,23.45,7.34,34.58,1.91,4.23,4.28,8.25,6.26,12.44,1.07,2.28,2.07,5.49,3.38,7.55.29.46.81.81,1,1.19.34.68.64,3.11.92,4.13,1.02,3.78,2.31,7.15,3.03,11.04.66,3.56,1.01,7.16,1.56,10.73.22,1.39.83,3.25.93,4.53.06.76-.26,1.6-.28,2.32-.05,2.87.35,6.34.41,9.28.04,2.01.25,4.49.14,6.43-.08,1.41-.52,2.82-.69,4.23-.49,4.27-.93,8.54-1.4,12.8-.17,1.56-1.31,4.7-1.8,6.39-2.06,7.05-5.13,13.35-7.26,20.18-.87,2.8-2.12,3.76-3.47,6.09-3,5.17-5.96,11.11-8.64,16.48-3.27,6.57-5.85,12.81-6.87,20.17s-1.85,15.18-1.92,22.39c-.02,1.9-.47,4.07-.56,6-.13,2.91.69,7.65-.09,10.15-.89,2.87-4.13,3.3-5.75.76-.28-.44-.36-1.12-.7-1.48-.77-.83-1.66-.1-1.9-2.06-.28-2.3.11-4.2.26-6.41.13-1.99.02-4.14.14-6.14.4-6.7,1.61-13.52.5-20.17s-2.94-13.28-6.07-19.46c-.61-1.21-1.81-2.5-2.23-3.77-.25-.75-.18-1.49-.49-2.24-1.22-2.92-3.42-5.17-4.87-7.83-4.26-7.83-7.95-15.96-11.5-24.14-1.63-3.75-2.75-8.06-3.75-12.09-2.57-10.35-3.64-21.09-2.82-31.73.66-8.57,1.49-17,3.48-25.34,1.33-5.59,3.12-11.13,5.46-16.39,2.7-6.08,6.3-11.88,9.09-17.94,7.46-16.23,7.51-37.66,7.88-55.35.49-23.07.8-46.49-.27-69.52-.22-4.76-.2-10.35-.97-15-.05-.33-.12-.83-.24-1.12-.37-.89-2.31-1.41-3.14-2.05-.56-.43-.91-1.22-1.25-1.48-.57-.43-2.81-1.04-3.76-1.56-4.23-2.3-7.12-6.88-2.57-10.68C131.74,1.16,142.78.08,147.73.02c.95-.01,1.92-.03,2.86,0ZM146.41,188.86c-.06-.03-.02-.26-.11-.22-.61.26-.98.8-.96,1.49s.9.29,1.23.31c1.04.05,2.09.64,1.84-.98-.28-.03-.59.05-.86,0-.06-.01-.85-.46-1.15-.59ZM147.69,193.59c-.51-.43-.7.08-.75.1-.14.04-.38-.03-.44,0-.1.06.13.83.14,1.02,0,.26-.17.48-.12.79.11.64.89.54-.02,1.6l.88.28c.18,0,.09-.74.15-.83.12-.18.94-.29.61-.68-.02-.02-.71.06-.41-.27.18-.2,1.83-.05,1.91-.48.12-.61-.68-.38-.82-.68l.27-.34c-.19-.09-1.17.03-1.21,0-.07-.06-.05-.39-.18-.51Z"/></svg>