<?xml version="1.0" encoding="UTF-8"?><svg id="Layer_1" xmlns="http://www.w3.org/2000/svg" viewBox="0 0 300 360"><defs><style>.cls-1{fill:none;stroke:#231f20;stroke-miterlimit:10;stroke-width:.25px;}</style></defs><path class="cls-1" d="M200,145.66v3.1c-1.33,4.78-3.82,4.16-7,5.99-2.17,1.25-2.03,3.45-3.01,5.52-1.81,3.82-4.03,7.37-5.21,11.46-2.5,8.69-1.02,20.25-5.64,28.1-.65,1.1-3.44,3.93-3.51,4.65-.09,1.06,2.65,2.25,3.18,3.68.8,2.17.74,4.85-.3,6.94-1.38,2.76-4.29,1.84-6.6,2.7-3.26,1.21-6.9,8.72-10.07,10.87-1.36,4.75-2.37,7.31-7.58,8.51-1.86-.15-3.99.21-5.81,0-.98-.11-4.36-1.06-5.07-1.71-1.28-1.18-1.06-4.66-1.99-5.57-.42-.41-2.53-.69-3.39-1.06-2.02-.88-3.77-2.05-4.87-4.05-.67-1.21-1.1-4.12-1.42-4.59-.48-.69-4.08-1.24-5.06-1.73-2.87-1.42-3.17-7.65-1.32-9.87,1.35-1.62,3.67-1.06,3.77-4.21.11-3.89-5.36-4.52-7.72-7.01-1.46-1.54-3.47-9-3.54-11.22-.08-2.51,1.09-4.94,1.19-7.34.26-6.46-4.45-6.48-7.47-10.78-1.67-2.37-3.34-8.97-4.38-9.97-1.61-1.54-4.24-.51-6.08-4-1.44-2.73-1.47-4.4.01-7.13,2.32-4.29,5.68-2.51,9.46-3.72,6.43-2.07,8.28-7.42,11.76-12.27,1.79-2.5,5.92-4.06,8.88-5.08,7.33-2.52,13.41-2.37,20.95-2.69,14.26-.6,19.11-2.18,29.06,9.28,1.15,1.33,4.64,6.74,5.63,7.19,1.06.47,3.03-.51,4.43-.6,4.98-.32,6.74,2.65,8.74,6.6Z"/></svg>