<?xml version="1.0" encoding="UTF-8"?><svg id="Layer_1" xmlns="http://www.w3.org/2000/svg" viewBox="0 0 300 360"><defs><style>.cls-1{fill:none;stroke:#231f20;stroke-miterlimit:10;stroke-width:.25px;}</style></defs><path class="cls-1" d="M123.6,119.17c1.9-.27,3.22.22,4.74,1.29.58.41,1.41,1.4,1.99,1.7,1.53.79,3.64-.46,5.28-.6,2.04-.17,3.17.42,4.94.6,2.23.23,2.56-.88,4.37-1.32,1.42-.34,3.09-.27,4.52,0,1.27.24,4.15,1.63,4.98,1.54,1.71-.17.97-3.1,3.87-3.05,2.47.04,3.56,1.04,5.55,1.83,2.37.94,4.73,1.17,7.2,2.41,1.65.83,3.18,2.36,4.77,3,2.25.9,4.76,1.03,7.09,2.12,1.75.82,3.46,2.61,4.98,3.2s3.02.47,4.63,1.09c2.75,1.06,6.54,3.24,9.2,4.71,1.49.82,4,2.88,5.5,3.09,4.2.59,5.91.65,9.29,3.6,1.68,1.47,2.81,3.57,4.83,4.58,3,1.51,5.94,2.55,8.36,5.14,1.59,1.69,1.39,3.04,4.14,3.63,3.51.75,12.26,1.1,14.75,3.66,1.86,1.91,1.19,5.61.62,7.95-.45,1.84-1.58,5.9-2.28,7.54s-4.68,7.94-5.89,9.25c-1.3,1.41-4.8,3.39-5.43,4.6s-.34,2.01-.5,3.18c-1.46,11-2.85,14.54-12.95,19.79-3.93,2.04-8.79,3.84-12.95,5.67-3.63,1.59-6.28,1.78-9.79,2.89-2.72.86-5.54,2.45-8.22,3.44-2.13.79-4.27,1.1-6.39,1.8-4.24,1.4-8.49,3.77-12.89,4.91-9.13,2.37-18.15,5.04-27.44,6.72-2.32.42-8.98,2.04-10.85,1.73-.5-.08-1.27-.47-1.72-.73-2.08-1.2-7.37-4.71-8.61-6.53-.44-.65-.91-1.53-1.24-2.24-.59-1.3-1.41-4.91-2.17-5.6-1.7-1.55-2.42,2.47-2.87,3.48-4.86,10.79-11.27,7.84-21.05,7.36-4.43-.22-8.86-.39-13.29-.61-2.78-.14-4.36.26-7.17-.6-2.27-.7-4.43-1.81-6.69-2.51-3.48-1.08-8.05-.86-7.49-5.96.29-2.69,3.1-6.56,2.59-8.78-.19-.83-3.41-3.35-4.24-4.35-4.33-5.2-4.36-9.23-6.34-15.15-1-2.99-2.79-4.64-3.07-8.19s1.3-6.15,1.61-9.44c.11-1.14-.06-2.31.03-3.45.17-2.21,1.1-4.24,1.4-6.37.4-2.82.25-4.44,1.3-7.3.83-2.25,1.7-4.44,2.51-6.7,1.81-5.02,7.07-6.15,8.93-9.49.82-1.47.94-2.52,2.31-3.83,3.44-3.29,6.55-2.04,10.65-2.44,1.63-.16,4-3,5.81-4.01,2.65-1.47,3.19-1.64,5.63-3.57s4.74-1.7,7.04-2.99,3.53-4.35,6.88-4.78c3.64-.47,6.63,4.03,5.3,7.35-1.16,2.89-5.52,4.47-7.47,6.44-1,1.01-1.52,2.35-2.76,3.38-1.91,1.59-4.61,2.24-6.59,3.64-3.27,2.32-5.25,5.38-10.03,5.31-2.2,1.54-7.46,2.15-8.92,4.17-.56.77-.95,1.85-1.58,2.72-1.29,1.76-2.65,2.22-2.81,4.77-.19,3.02-.05,6.83-.85,9.79-.23.86-.76,1.65-1.02,2.46-.9,2.87-1.52,11-.75,13.87.6,2.24,3.38,4.06,4.73,6.32,1.22,2.06,1.55,4.52,2.53,6.27,1.19,2.14,3.42-1.04,4.65-1.98,5.72-4.37,10.13-3.03,16.05-.11,6.14,3.03,19.75,11.38,22.53,17.57.27.61,1.12,4.02,1.49,4.03.85-1.39.36-3.01.86-4.66,1.35-4.48,9.19-9.19,13.28-11.07,4.58-2.1,9.98-3.96,14.75-5.71,19.65-7.21,39.82-13.01,59.64-19.73,1.82-1.26-1.82-5.37-2.57-6.8-.56-1.06-1.37-2.79-1.84-3.89-1.82-4.22-1.71-7.34,3.05-9.1.98-.36,4.03-.59,3.9-1.96-.08-.83-3.57-2.88-4.44-3.53-1.2-.91-2.58-2.68-4.01-2.96-1.11-.22-2.25.19-3.54-.12-.88-.21-1.89-.98-2.76-1.33-2.81-1.12-6.15-1.99-8.52-3.95-1.28-1.06-2.07-3.02-3.2-3.76-1.32-.86-4.71-1.69-6.48-2.52-1.64-.77-5.7-3.71-6.67-3.97-1.24-.33-2.79.09-4.11-.19-1.25-.26-2.45-1.45-3.67-1.85-1.71-.56-3.53-.29-5.15-.78-1.19-.36-2.37-1.56-3.59-1.74-2.43-.35-3.91,2.18-7.27.94-1.2-.44-2.39-1.88-3.72-1.81-.97.05-1.97,1.08-2.92,1.39-1.99.64-4.38.47-6.39-.04-1.31-.33-2.77-1.35-4-1.52-2.66-.37-5.51,1.24-8.31-.07-1.26-.59-2.81-2.34-3-3.75-.38-2.85,2.39-7.99,5.45-8.42Z"/></svg>