<svg width="277" height="43" viewBox="0 0 277 43" fill="none" xmlns="http://www.w3.org/2000/svg">
<path d="M1 42.5H132.572C133.365 42.5 133.709 41.4962 133.083 41.0091L120.889 31.5247C118.435 29.6162 117 26.6818 117 23.5733V22.083C117 17.3428 120.843 13.5 125.583 13.5V13.5C128.355 13.5 130.956 14.8387 132.567 17.0942L133.872 18.9201C134.605 19.9476 135 21.1788 135 22.4415V22.4415C135 25.7875 132.288 28.5 128.942 28.5H127" stroke="#333D37" stroke-linecap="round"/>
<path d="M121 6.5L121.88 5.06943C123.669 2.16252 127.326 1.01775 130.453 2.38584V2.38584C132.086 3.10028 133.376 4.42355 134.049 6.07426L134.581 7.38135C136.741 12.6836 134.173 18.731 128.857 20.8574L128.008 21.1969C126.681 21.7274 125.266 22 123.838 22H108.324C105.778 22 103.237 21.8056 100.721 21.4186L98 21" stroke="#333D37" stroke-linecap="round"/>
<path d="M276.5 42.5H144.928C144.135 42.5 143.791 41.4962 144.417 41.0091L156.611 31.5247C159.065 29.6162 160.5 26.6818 160.5 23.5733V22.083C160.5 17.3428 156.657 13.5 151.917 13.5V13.5C149.145 13.5 146.544 14.8387 144.933 17.0942L143.628 18.9201C142.895 19.9476 142.5 21.1788 142.5 22.4415V22.4415C142.5 25.7875 145.212 28.5 148.558 28.5H150.5" stroke="#333D37" stroke-linecap="round"/>
<path d="M187.5 39H276.5" stroke="#333D37" stroke-linecap="round"/>
<path d="M1 39H90" stroke="#333D37" stroke-linecap="round"/>
<path d="M156.5 6.5L155.62 5.06943C153.831 2.16252 150.174 1.01775 147.047 2.38584V2.38584C145.414 3.10028 144.124 4.42355 143.451 6.07426L142.919 7.38135C140.759 12.6836 143.327 18.731 148.643 20.8574L149.492 21.1969C150.819 21.7274 152.234 22 153.662 22H169.176C171.722 22 174.263 21.8056 176.779 21.4186L179.5 21" stroke="#333D37" stroke-linecap="round"/>
</svg>
